<?xml version="1.0" encoding="UTF-8"?>
<svg id="Layer_1" data-name="Layer 1" xmlns="http://www.w3.org/2000/svg" viewBox="0 0 1190.55 455.54">
  <defs>
    <style>
      .cls-1 {
        fill: #11763c;
      }

      .cls-2 {
        font-size: 98px;
      }

      .cls-2, .cls-3, .cls-4 {
        fill: #009542;
        font-family: Bison-Bold, Bison;
        font-weight: 700;
      }

      .cls-3 {
        font-size: 96px;
      }

      .cls-4 {
        font-size: 90px;
      }

      .cls-5 {
        fill: #41ad49;
      }

      .cls-6 {
        fill: #a3aaa3;
      }

      .cls-7 {
        fill: #1e1f1e;
      }
    </style>
  </defs>
  <rect class="cls-6" x="71.99" y="210.96" width="596.01" height="4.49"/>
  <rect class="cls-6" x="67.67" y="108.87" width="4.32" height="108.7"/>
  <rect class="cls-1" x="330.51" y="205.29" width="4.33" height="35.56"/>
  <rect class="cls-1" x="67.62" y="205.29" width="4.32" height="35.56"/>
  <rect class="cls-1" x="65.06" y="207.06" width="9.55" height="12.28"/>
  <rect class="cls-1" x="327.9" y="207.06" width="9.55" height="12.28"/>
  <rect class="cls-6" x="72.65" y="108.87" width="28.54" height="3.8"/>
  <text class="cls-3" transform="translate(326.2 129.42)"><tspan x="0" y="0">1</tspan></text>
  <path class="cls-7" d="M372.36,83.71h-4.98v-21h4.53c1.42,0,2.57.39,3.45,1.17.52.46.9,1.02,1.14,1.68.26.64.39,1.38.39,2.22v1.95c0,1.42-.4,2.5-1.2,3.24,1.1.78,1.65,2.04,1.65,3.78v1.92c0,.86-.13,1.59-.39,2.19-.24.66-.62,1.22-1.14,1.68-.86.78-2.01,1.17-3.45,1.17h0ZM370.68,71.59h1.23c.56,0,.97-.12,1.23-.36.3-.3.45-.8.45-1.5v-1.95c0-.68-.14-1.16-.42-1.44-.24-.22-.66-.33-1.26-.33h-1.23v5.58ZM370.68,80.41h1.68c.6,0,1.02-.11,1.26-.33.28-.26.42-.73.42-1.41v-1.92c0-.72-.15-1.22-.45-1.5-.26-.24-.67-.36-1.23-.36h-1.68v5.52ZM390.09,83.71l-4.2-21h-3.3l-4.2,21h3.36l.6-3.33h3.78l.6,3.33h3.36ZM384.24,69.55l1.32,7.53h-2.64l1.32-7.53ZM383.55,61.6l1.65-3.3h3.3l-3.3,3.3h-1.65ZM396.27,83.95c-1.44,0-2.6-.41-3.48-1.23-1-.96-1.5-2.27-1.5-3.93v-11.16c0-1.66.5-2.97,1.5-3.93.88-.82,2.04-1.23,3.48-1.23s2.6.41,3.48,1.23c1,.96,1.5,2.27,1.5,3.93v11.16c0,1.66-.5,2.97-1.5,3.93-.88.82-2.04,1.23-3.48,1.23h0ZM396.27,65.77c-.56,0-.97.12-1.23.36-.3.28-.45.78-.45,1.5v11.16c0,.72.15,1.22.45,1.5.26.24.67.36,1.23.36s.99-.12,1.23-.36c.3-.26.45-.76.45-1.5v-11.16c0-.74-.15-1.24-.45-1.5-.24-.24-.65-.36-1.23-.36h0ZM412.74,83.95c-1.4,0-2.56-.41-3.48-1.23-1-1-1.5-2.31-1.5-3.93v-11.16c0-1.62.5-2.93,1.5-3.93.92-.82,2.08-1.23,3.48-1.23s2.6.41,3.48,1.23c1,.96,1.5,2.27,1.5,3.93v1.86h-3.3v-1.86c0-.74-.14-1.24-.42-1.5-.26-.24-.68-.36-1.26-.36s-.97.12-1.23.36c-.3.28-.45.78-.45,1.5v11.16c0,.72.15,1.22.45,1.5.26.24.67.36,1.23.36s1-.12,1.26-.36c.28-.26.42-.76.42-1.5v-3.93h-1.65v-3.3h4.95v7.23c0,1.66-.5,2.97-1.5,3.93-.88.82-2.04,1.23-3.48,1.23h0ZM419.88,83.71v-21h3.3v21h-3.3ZM436.47,83.71l-4.2-21h-3.3l-4.2,21h3.36l.6-3.33h3.78l.6,3.33h3.36ZM430.62,69.55l1.32,7.53h-2.64l1.32-7.53ZM429.93,61.6l1.65-3.3h3.3l-3.3,3.3h-1.65Z"/>
  <path class="cls-7" d="M376.5,96.71v3.3h-3.36v17.7h-3.3v-17.7h-3.36v-3.3h10.02ZM384.63,96.71h3.3v21h-3.3v-9.12h-3.36v9.12h-3.3v-21h3.3v8.58h3.36v-8.58ZM393.63,117.71v-21h-3.3v21h3.3ZM405.39,117.95c1.44,0,2.6-.41,3.48-1.23,1-.96,1.5-2.27,1.5-3.93v-2.7h-3.3v2.7c0,.74-.14,1.24-.42,1.5-.26.24-.68.36-1.26.36s-.97-.12-1.23-.36c-.3-.28-.45-.78-.45-1.5v-11.16c0-.72.15-1.22.45-1.5.26-.24.67-.36,1.23-.36s1,.12,1.26.36c.28.26.42.76.42,1.5v1.86h3.3v-1.86c0-1.66-.5-2.97-1.5-3.93-.88-.82-2.04-1.23-3.48-1.23s-2.56.41-3.48,1.23c-1,1-1.5,2.31-1.5,3.93v11.16c0,1.62.5,2.93,1.5,3.93.92.82,2.08,1.23,3.48,1.23h0ZM417.15,117.95c1.44,0,2.6-.41,3.48-1.23,1-.96,1.5-2.27,1.5-3.93v-11.16c0-1.66-.5-2.97-1.5-3.93-.88-.82-2.04-1.23-3.48-1.23s-2.6.41-3.48,1.23c-1,.96-1.5,2.27-1.5,3.93v11.16c0,1.66.5,2.97,1.5,3.93.88.82,2.04,1.23,3.48,1.23h0ZM413.85,95.6l1.65-3.3h3.3l1.68,3.3h-1.68l-1.65-1.65-1.65,1.65h-1.65ZM417.15,99.77c.58,0,.99.12,1.23.36.3.26.45.76.45,1.5v11.16c0,.74-.15,1.24-.45,1.5-.24.24-.65.36-1.23.36s-.97-.12-1.23-.36c-.3-.28-.45-.78-.45-1.5v-11.16c0-.72.15-1.22.45-1.5.26-.24.67-.36,1.23-.36h0ZM434.4,96.71v21h-1.92l-5.04-10.65v10.65h-3.3v-21h1.92l5.04,10.62v-10.62h3.3ZM441.39,117.95c1.44,0,2.6-.41,3.48-1.23,1-.96,1.5-2.27,1.5-3.93v-7.23h-4.95v3.3h1.65v3.93c0,.74-.14,1.24-.42,1.5-.26.24-.68.36-1.26.36s-.97-.12-1.23-.36c-.3-.28-.45-.78-.45-1.5v-11.16c0-.72.15-1.22.45-1.5.26-.24.67-.36,1.23-.36s1,.12,1.26.36c.28.26.42.76.42,1.5v1.86h3.3v-1.86c0-1.66-.5-2.97-1.5-3.93-.88-.82-2.04-1.23-3.48-1.23s-2.56.41-3.48,1.23c-1,1-1.5,2.31-1.5,3.93v11.16c0,1.62.5,2.93,1.5,3.93.92.82,2.08,1.23,3.48,1.23h0Z"/>
  <path class="cls-5" d="M110.19,120.32c-1.12,0-2.05-.33-2.78-.98-.8-.8-1.2-1.85-1.2-3.14v-8.93c0-1.3.4-2.34,1.2-3.14.74-.66,1.66-.98,2.78-.98s2.08.33,2.78.98c.8.77,1.2,1.82,1.2,3.14v1.49h-2.64v-1.49c0-.59-.11-.99-.34-1.2-.21-.19-.54-.29-1.01-.29s-.78.1-.98.29c-.24.22-.36.62-.36,1.2v8.93c0,.58.12.98.36,1.2.21.19.54.29.98.29s.8-.1,1.01-.29c.22-.21.34-.61.34-1.2v-2.16h2.64v2.16c0,1.33-.4,2.38-1.2,3.14-.7.66-1.63.98-2.78.98h0ZM121.11,110.19h-2.69v-6.86h-2.64v16.8h2.64v-7.3h2.69v7.3h2.64v-16.8h-2.64v6.86ZM129.54,120.32c-1.15,0-2.08-.33-2.78-.98-.8-.77-1.2-1.82-1.2-3.14v-12.86h2.64v12.86c0,.59.11.99.34,1.2.21.19.54.29,1.01.29s.78-.1.98-.29c.24-.22.36-.62.36-1.2v-12.86h2.64v12.86c0,1.3-.4,2.34-1.2,3.14-.74.66-1.66.98-2.78.98h0ZM127.64,99.87c-.4,0-.76.08-1.08.24l1.08,1.08c.35,0,.65.12.89.36.24.24.36.54.36.89h1.32c0-.7-.25-1.31-.76-1.81-.5-.5-1.11-.76-1.81-.76h0ZM145.93,104.33c-.72-.67-1.65-1.01-2.78-1.01h-3.98v7.1h-.96v2.64h.96v7.06h3.98c1.15,0,2.07-.31,2.76-.94.4-.35.71-.8.94-1.34.19-.51.29-1.1.29-1.75v-8.64c0-1.34-.4-2.38-1.2-3.12h0ZM144.49,116.09c0,.56-.11.94-.34,1.13-.19.18-.53.26-1.01.26h-1.34v-4.42h1.2v-2.64h-1.2v-4.46h1.34c.45,0,.78.1.98.29.24.24.36.64.36,1.2v8.64ZM151.26,117.46h3.02l.48,2.66h2.69l-3.36-16.8h-2.64l-3.36,16.8h2.69l.48-2.66ZM151.45,102.44l1.32-1.32,1.32,1.32h1.34l-1.34-2.64h-2.64l-1.32,2.64h1.32ZM151.71,114.82l1.06-6.02,1.06,6.02h-2.11ZM152.29,97.4h2.64l1.32,2.64h-1.32l-2.64-2.64ZM162.51,120.32c-1.15,0-2.08-.33-2.78-.98-.8-.77-1.2-1.82-1.2-3.14v-12.86h2.64v12.86c0,.59.11.99.34,1.2.21.19.54.29,1.01.29s.78-.1.98-.29c.24-.22.36-.62.36-1.2v-12.86h2.64v12.86c0,1.3-.4,2.34-1.2,3.14-.74.66-1.66.98-2.78.98h0ZM171.3,103.32v2.64h2.69v14.16h2.64v-14.16h2.69v-2.64h-8.02ZM189.68,102.99c0,.1-.03.18-.1.24-.06.06-.14.1-.24.1h-3.65v12.86c0,.58-.12.98-.36,1.2-.21.19-.54.29-.98.29s-.8-.1-1.01-.29c-.22-.21-.34-.61-.34-1.2v-12.86h-2.64v12.86c0,1.33.4,2.38,1.2,3.14.7.66,1.63.98,2.78.98s2.05-.33,2.78-.98c.8-.8,1.2-1.85,1.2-3.14v-11.54h1.01c.46,0,.86-.16,1.18-.49.32-.33.48-.72.48-1.16h-1.32ZM194.48,112.83h4.32v-2.64h-4.32v2.64Z"/>
  <path class="cls-5" d="M113.31,132.33c.8.74,1.2,1.78,1.2,3.12v8.64c0,.66-.1,1.24-.29,1.75-.22.54-.54.99-.94,1.34-.69.62-1.61.94-2.76.94h-3.98v-7.06h-.96v-2.64h.96v-7.1h3.98c1.14,0,2.06.34,2.78,1.01h0ZM111.87,135.45c0-.56-.12-.96-.36-1.2-.21-.19-.54-.29-.98-.29h-1.34v4.46h1.2v2.64h-1.2v4.42h1.34c.48,0,.82-.09,1.01-.26.22-.19.34-.57.34-1.13v-8.64ZM122.14,148.12l-.48-2.66h-3.02l-.48,2.66h-2.69l3.36-16.8h2.64l3.36,16.8h-2.69ZM118.98,150.28c0,.32.12.6.35.83.23.23.51.35.83.35s.6-.12.83-.35c.23-.23.35-.51.35-.83,0-.34-.12-.62-.35-.85-.23-.23-.51-.35-.83-.35s-.6.12-.83.35c-.23.23-.35.52-.35.85h0ZM119.1,142.82h2.11l-1.06-6.02-1.06,6.02ZM128.77,148.12v-16.8h-2.64v16.8h2.64ZM138.39,148.12c1.15,0,2.07-.31,2.76-.94.4-.35.71-.8.94-1.34.19-.51.29-1.1.29-1.75v-8.64c0-1.34-.4-2.38-1.2-3.12-.72-.67-1.65-1.01-2.78-1.01h-3.98v16.8h3.98ZM137.05,133.97h1.34c.45,0,.78.1.98.29.24.24.36.64.36,1.2v8.64c0,.56-.11.94-.34,1.13-.19.18-.53.26-1.01.26h-1.34v-11.52ZM146.72,148.12v-16.8h-2.64v16.8h2.64ZM155.6,133.97h-4.32v4.22h2.98v2.64h-2.98v4.66h4.32v2.64h-6.96v-16.8h6.96v2.64ZM154.9,130.44h-1.32l-1.32-1.32-1.32,1.32h-1.34l1.34-2.64h2.64l1.32,2.64ZM151.09,150.28c0,.32.12.6.35.83s.51.35.83.35.6-.12.83-.35c.23-.23.35-.51.35-.83,0-.34-.12-.62-.35-.85-.23-.23-.51-.35-.83-.35s-.6.12-.83.35c-.23.23-.35.52-.35.85h0ZM165.34,131.32v16.8h-1.54l-4.03-8.52v8.52h-2.64v-16.8h1.54l4.03,8.5v-8.5h2.64ZM174.66,148.32c1.15,0,2.08-.33,2.78-.98.8-.77,1.2-1.82,1.2-3.14v-2.16h-2.64v2.16c0,.59-.11.99-.34,1.2-.21.19-.54.29-1.01.29s-.78-.1-.98-.29c-.24-.22-.36-.62-.36-1.2v-8.93c0-.58.12-.98.36-1.2.21-.19.54-.29.98-.29s.8.1,1.01.29c.22.21.34.61.34,1.2v1.49h2.64v-1.49c0-1.33-.4-2.38-1.2-3.14-.7-.66-1.63-.98-2.78-.98s-2.05.33-2.78.98c-.8.8-1.2,1.85-1.2,3.14v8.93c0,1.3.4,2.34,1.2,3.14.74.66,1.66.98,2.78.98h0ZM185.58,131.32h2.64v16.8h-2.64v-7.3h-2.69v7.3h-2.64v-16.8h2.64v6.86h2.69v-6.86ZM194,148.32c1.12,0,2.05-.33,2.78-.98.8-.8,1.2-1.85,1.2-3.14v-12.86h-2.64v12.86c0,.58-.12.98-.36,1.2-.21.19-.54.29-.98.29s-.8-.1-1.01-.29c-.22-.21-.34-.61-.34-1.2v-12.86h-2.64v12.86c0,1.33.4,2.38,1.2,3.14.7.66,1.63.98,2.78.98h0ZM192.1,127.87c.7,0,1.31.25,1.81.76.5.5.76,1.11.76,1.81h-1.32c0-.35-.12-.65-.36-.89-.24-.24-.54-.36-.89-.36l-1.08-1.08c.32-.16.68-.24,1.08-.24h0ZM210.39,132.33c.8.74,1.2,1.78,1.2,3.12v8.64c0,.66-.1,1.24-.29,1.75-.22.54-.54.99-.94,1.34-.69.62-1.61.94-2.76.94h-3.98v-7.06h-.96v-2.64h.96v-7.1h3.98c1.14,0,2.06.34,2.78,1.01h0ZM208.95,135.45c0-.56-.12-.96-.36-1.2-.21-.19-.54-.29-.98-.29h-1.34v4.46h1.2v2.64h-1.2v4.42h1.34c.48,0,.82-.09,1.01-.26.22-.19.34-.57.34-1.13v-8.64ZM215.24,148.12h-2.69l3.36-16.8h2.64l3.36,16.8h-2.69l-.48-2.66h-3.02l-.48,2.66ZM214.59,130.44l1.32-2.64h2.64l1.34,2.64h-1.34l-1.32-1.32-1.32,1.32h-1.32ZM218.28,142.82l-1.06-6.02-1.06,6.02h2.11ZM219.39,128.04h1.32l-1.32-2.64h-2.64l2.64,2.64ZM226.97,148.32c1.12,0,2.05-.33,2.78-.98.8-.8,1.2-1.85,1.2-3.14v-12.86h-2.64v12.86c0,.58-.12.98-.36,1.2-.21.19-.54.29-.98.29s-.8-.1-1.01-.29c-.22-.21-.34-.61-.34-1.2v-12.86h-2.64v12.86c0,1.33.4,2.38,1.2,3.14.7.66,1.63.98,2.78.98h0ZM243.77,131.32v2.64h-2.69v14.16h-2.64v-14.16h-2.69v-2.64h8.02ZM255.46,130.99c0,.45-.16.84-.48,1.16-.32.33-.71.49-1.18.49h-1.01v11.54c0,1.3-.4,2.34-1.2,3.14-.74.66-1.66.98-2.78.98s-2.08-.33-2.78-.98c-.8-.77-1.2-1.82-1.2-3.14v-12.86h2.64v12.86c0,.59.11.99.34,1.2.21.19.54.29,1.01.29s.78-.1.98-.29c.24-.22.36-.62.36-1.2v-12.86h3.65c.1,0,.18-.03.24-.1.06-.06.1-.14.1-.24h1.32Z"/>
  <path class="cls-7" d="M376.5,242v3.3h-3.36v17.7h-3.3v-17.7h-3.36v-3.3h10.02ZM384.63,242h3.3v21h-3.3v-9.12h-3.36v9.12h-3.3v-21h3.3v8.58h3.36v-8.58ZM393.63,263v-21h-3.3v21h3.3ZM405.39,263.24c1.44,0,2.6-.41,3.48-1.23,1-.96,1.5-2.27,1.5-3.93v-2.7h-3.3v2.7c0,.74-.14,1.24-.42,1.5-.26.24-.68.36-1.26.36s-.97-.12-1.23-.36c-.3-.28-.45-.78-.45-1.5v-11.16c0-.72.15-1.22.45-1.5.26-.24.67-.36,1.23-.36s1,.12,1.26.36c.28.26.42.76.42,1.5v1.86h3.3v-1.86c0-1.66-.5-2.97-1.5-3.93-.88-.82-2.04-1.23-3.48-1.23s-2.56.41-3.48,1.23c-1,1-1.5,2.31-1.5,3.93v11.16c0,1.62.5,2.93,1.5,3.93.92.82,2.08,1.23,3.48,1.23h0ZM417.15,263.24c1.44,0,2.6-.41,3.48-1.23,1-.96,1.5-2.27,1.5-3.93v-11.16c0-1.66-.5-2.97-1.5-3.93-.88-.82-2.04-1.23-3.48-1.23s-2.6.41-3.48,1.23c-1,.96-1.5,2.27-1.5,3.93v11.16c0,1.66.5,2.97,1.5,3.93.88.82,2.04,1.23,3.48,1.23h0ZM413.85,240.89l1.65-3.3h3.3l1.68,3.3h-1.68l-1.65-1.65-1.65,1.65h-1.65ZM417.15,245.06c.58,0,.99.12,1.23.36.3.26.45.76.45,1.5v11.16c0,.74-.15,1.24-.45,1.5-.24.24-.65.36-1.23.36s-.97-.12-1.23-.36c-.3-.28-.45-.78-.45-1.5v-11.16c0-.72.15-1.22.45-1.5.26-.24.67-.36,1.23-.36h0ZM434.4,242v21h-1.92l-5.04-10.65v10.65h-3.3v-21h1.92l5.04,10.62v-10.62h3.3ZM441.39,263.24c1.44,0,2.6-.41,3.48-1.23,1-.96,1.5-2.27,1.5-3.93v-7.23h-4.95v3.3h1.65v3.93c0,.74-.14,1.24-.42,1.5-.26.24-.68.36-1.26.36s-.97-.12-1.23-.36c-.3-.28-.45-.78-.45-1.5v-11.16c0-.72.15-1.22.45-1.5.26-.24.67-.36,1.23-.36s1,.12,1.26.36c.28.26.42.76.42,1.5v1.86h3.3v-1.86c0-1.66-.5-2.97-1.5-3.93-.88-.82-2.04-1.23-3.48-1.23s-2.56.41-3.48,1.23c-1,1-1.5,2.31-1.5,3.93v11.16c0,1.62.5,2.93,1.5,3.93.92.82,2.08,1.23,3.48,1.23h0Z"/>
  <path class="cls-7" d="M370.68,297h-3.3v-21h4.98c1.42,0,2.58.42,3.48,1.26,1,.92,1.5,2.22,1.5,3.9v2.28c0,1.7-.5,3.01-1.5,3.93-.88.82-2.04,1.23-3.48,1.23h-1.68v8.4ZM370.68,285.3h1.68c.56,0,.97-.12,1.23-.36.3-.28.45-.78.45-1.5v-2.28c0-.7-.15-1.2-.45-1.5-.26-.24-.67-.36-1.23-.36h-1.68v6ZM385.8,284.58h-3.36v-8.58h-3.3v21h3.3v-9.12h3.36v9.12h3.3v-21h-3.3v8.58ZM394.65,293.67h3.78l.6,3.33h3.36l-4.2-21h-3.3l-4.2,21h3.36l.6-3.33ZM394.89,274.89l1.65-1.65,1.65,1.65h1.68l-1.68-3.3h-3.3l-1.65,3.3h1.65ZM395.22,290.37l1.32-7.53,1.32,7.53h-2.64ZM395.94,268.59h3.3l1.65,3.3h-1.65l-3.3-3.3ZM410.85,276v10.62l-5.04-10.62h-1.92v21h3.3v-10.65l5.04,10.65h1.92v-21h-3.3ZM420.18,276v3.3h3.36v17.7h3.3v-17.7h3.36v-3.3h-10.02ZM438.33,284.58h-3.36v-8.58h-3.3v21h3.3v-9.12h3.36v9.12h3.3v-21h-3.3v8.58ZM448.74,297.24c-1.44,0-2.6-.41-3.48-1.23-1-.96-1.5-2.27-1.5-3.93v-11.16c0-1.66.5-2.97,1.5-3.93.88-.82,2.04-1.23,3.48-1.23s2.6.41,3.48,1.23c1,.96,1.5,2.27,1.5,3.93v11.16c0,1.66-.5,2.97-1.5,3.93-.88.82-2.04,1.23-3.48,1.23h0ZM447.09,274.89l1.65-1.65,1.65,1.65h1.68l-1.68-3.3h-3.3l-1.65,3.3h1.65ZM448.74,279.06c-.56,0-.97.12-1.23.36-.3.28-.45.78-.45,1.5v11.16c0,.72.15,1.22.45,1.5.26.24.67.36,1.23.36s.99-.12,1.23-.36c.3-.26.45-.76.45-1.5v-11.16c0-.74-.15-1.24-.45-1.5-.24-.24-.65-.36-1.23-.36h0ZM459.06,283.98c0,.46-.17.85-.49,1.18-.33.33-.73.49-1.18.49s-.86-.17-1.18-.49-.5-.72-.5-1.18.17-.86.5-1.18c.33-.33.72-.5,1.18-.5s.85.17,1.18.5.49.73.49,1.18h0ZM459.06,295.41c0,.46-.17.86-.49,1.18-.33.33-.73.49-1.18.49s-.86-.17-1.18-.49c-.33-.33-.5-.72-.5-1.18s.17-.86.5-1.18c.33-.33.72-.49,1.18-.49s.85.16,1.18.49.49.73.49,1.18h0Z"/>
  <path class="cls-7" d="M370.68,331h-3.3v-21h4.98c1.42,0,2.58.42,3.48,1.26,1,.92,1.5,2.22,1.5,3.9v2.28c0,1.7-.5,3.01-1.5,3.93-.88.82-2.04,1.23-3.48,1.23h-1.68v8.4ZM370.68,319.3h1.68c.56,0,.97-.12,1.23-.36.3-.28.45-.78.45-1.5v-2.28c0-.7-.15-1.2-.45-1.5-.26-.24-.67-.36-1.23-.36h-1.68v6ZM385.8,318.58h-3.36v-8.58h-3.3v21h3.3v-9.12h3.36v9.12h3.3v-21h-3.3v8.58ZM394.65,327.67h3.78l.6,3.33h3.36l-4.2-21h-3.3l-4.2,21h3.36l.6-3.33ZM394.89,308.89l1.65-1.65,1.65,1.65h1.68l-1.68-3.3h-3.3l-1.65,3.3h1.65ZM395.22,324.37l1.32-7.53,1.32,7.53h-2.64ZM395.94,302.59h3.3l1.65,3.3h-1.65l-3.3-3.3ZM410.85,310v10.62l-5.04-10.62h-1.92v21h3.3v-10.65l5.04,10.65h1.92v-21h-3.3ZM420.18,310v3.3h3.36v17.7h3.3v-17.7h3.36v-3.3h-10.02ZM438.33,318.58h-3.36v-8.58h-3.3v21h3.3v-9.12h3.36v9.12h3.3v-21h-3.3v8.58ZM454.92,331l-4.2-21h-3.3l-4.2,21h3.36l.6-3.33h3.78l.6,3.33h3.36ZM450.72,305.59h-3.3l-1.68,3.3h1.68l1.65-1.65,1.65,1.65h1.65l-1.65-3.3ZM449.07,316.84l1.32,7.53h-2.64l1.32-7.53ZM463.38,310v10.62l-5.04-10.62h-1.92v21h3.3v-10.65l5.04,10.65h1.92v-21h-3.3Z"/>
  <path class="cls-7" d="M378.81,365.27c-1.9,0-3.47-.54-4.71-1.62-.58-.5-1.07-1.16-1.47-1.99-.4-.83-.6-1.83-.6-3.01,0-.82.24-1.67.72-2.57.48-.89,1.33-1.76,2.55-2.6l.12-.06c-1.08-1.42-1.62-2.93-1.62-4.53v-.51c0-.86.19-1.62.57-2.3.38-.67.92-1.2,1.62-1.6.84-.48,1.78-.72,2.82-.72s1.98.24,2.82.72c.7.4,1.24.94,1.62,1.6.38.67.57,1.44.57,2.3v.51c0,.94-.19,1.83-.57,2.65-.38.83-.94,1.56-1.68,2.17-.16.16-.33.3-.51.42l.6.45c.74.58,1.47,1.3,2.19,2.16l.66-1.11,2.88,1.68c-.48.84-.97,1.65-1.47,2.43,1,1.88,1.5,3.63,1.5,5.25h-3.36c0-.66-.12-1.35-.36-2.07l-.21.24c-.64.68-1.36,1.2-2.18,1.56-.81.36-1.65.54-2.5.54h0ZM377.82,355.85l-.66.42c-1.2.84-1.8,1.63-1.8,2.37,0,1.12.31,1.95.93,2.49.6.54,1.44.81,2.52.81.82,0,1.57-.36,2.25-1.08.22-.22.52-.6.9-1.14-.74-.98-1.53-1.81-2.37-2.49l-.6-.48-1.17-.9ZM378.81,347.09c-.44,0-.82.1-1.14.3-.16.1-.29.22-.38.38-.09.15-.14.36-.14.61v.51c0,1,.42,1.99,1.26,2.97.4-.2.74-.43,1.02-.69.7-.66,1.05-1.42,1.05-2.28v-.51c0-.26-.05-.47-.14-.61-.09-.15-.23-.27-.4-.38-.32-.2-.7-.3-1.14-.3h0ZM401.4,355.64l-5.04-11.64h-1.89v21h3.3v-10.47l2.67,7.17h1.92l2.67-7.17v10.47h3.3v-21h-1.89l-5.04,11.64ZM421.62,365l-4.2-21h-3.3l-4.2,21h3.36l.6-3.33h3.78l.6,3.33h3.36ZM415.77,350.84l1.32,7.53h-2.64l1.32-7.53ZM415.08,342.89l1.65-3.3h3.3l-3.3,3.3h-1.65ZM423.24,365v-21h3.3v21h-3.3Z"/>
  <text class="cls-4" transform="translate(315.6 316.59)"><tspan x="0" y="0">5</tspan></text>
  <path class="cls-7" d="M114.02,257.5v3.3h-3.36v17.7h-3.3v-17.7h-3.36v-3.3h10.02ZM122.15,257.5h3.3v21h-3.3v-9.12h-3.36v9.12h-3.3v-21h3.3v8.58h3.36v-8.58ZM131.15,278.5v-21h-3.3v21h3.3ZM142.91,278.74c1.44,0,2.6-.41,3.48-1.23,1-.96,1.5-2.27,1.5-3.93v-2.7h-3.3v2.7c0,.74-.14,1.24-.42,1.5-.26.24-.68.36-1.26.36s-.97-.12-1.23-.36c-.3-.28-.45-.78-.45-1.5v-11.16c0-.72.15-1.22.45-1.5.26-.24.67-.36,1.23-.36s1,.12,1.26.36c.28.26.42.76.42,1.5v1.86h3.3v-1.86c0-1.66-.5-2.97-1.5-3.93-.88-.82-2.04-1.23-3.48-1.23s-2.56.41-3.48,1.23c-1,1-1.5,2.31-1.5,3.93v11.16c0,1.62.5,2.93,1.5,3.93.92.82,2.08,1.23,3.48,1.23h0ZM154.67,278.74c1.44,0,2.6-.41,3.48-1.23,1-.96,1.5-2.27,1.5-3.93v-11.16c0-1.66-.5-2.97-1.5-3.93-.88-.82-2.04-1.23-3.48-1.23s-2.6.41-3.48,1.23c-1,.96-1.5,2.27-1.5,3.93v11.16c0,1.66.5,2.97,1.5,3.93.88.82,2.04,1.23,3.48,1.23h0ZM151.37,256.39l1.65-3.3h3.3l1.68,3.3h-1.68l-1.65-1.65-1.65,1.65h-1.65ZM154.67,260.56c.58,0,.99.12,1.23.36.3.26.45.76.45,1.5v11.16c0,.74-.15,1.24-.45,1.5-.24.24-.65.36-1.23.36s-.97-.12-1.23-.36c-.3-.28-.45-.78-.45-1.5v-11.16c0-.72.15-1.22.45-1.5.26-.24.67-.36,1.23-.36h0ZM171.92,257.5v21h-1.92l-5.04-10.65v10.65h-3.3v-21h1.92l5.04,10.62v-10.62h3.3ZM178.91,278.74c1.44,0,2.6-.41,3.48-1.23,1-.96,1.5-2.27,1.5-3.93v-7.23h-4.95v3.3h1.65v3.93c0,.74-.14,1.24-.42,1.5-.26.24-.68.36-1.26.36s-.97-.12-1.23-.36c-.3-.28-.45-.78-.45-1.5v-11.16c0-.72.15-1.22.45-1.5.26-.24.67-.36,1.23-.36s1,.12,1.26.36c.28.26.42.76.42,1.5v1.86h3.3v-1.86c0-1.66-.5-2.97-1.5-3.93-.88-.82-2.04-1.23-3.48-1.23s-2.56.41-3.48,1.23c-1,1-1.5,2.31-1.5,3.93v11.16c0,1.62.5,2.93,1.5,3.93.92.82,2.08,1.23,3.48,1.23h0ZM194,270.1h1.68c1.44,0,2.6-.41,3.48-1.23,1-.92,1.5-2.23,1.5-3.93v-2.28c0-1.68-.5-2.98-1.5-3.9-.9-.84-2.06-1.26-3.48-1.26h-4.98v21h3.3v-8.4ZM194,260.8h1.68c.56,0,.97.12,1.23.36.3.3.45.8.45,1.5v2.28c0,.72-.15,1.22-.45,1.5-.26.24-.67.36-1.23.36h-1.68v-6ZM209.12,257.5h3.3v21h-3.3v-9.12h-3.36v9.12h-3.3v-21h3.3v8.58h3.36v-8.58ZM217.37,278.5h-3.36l4.2-21h3.3l4.2,21h-3.36l-.6-3.33h-3.78l-.6,3.33ZM216.56,256.39l1.65-3.3h3.3l1.68,3.3h-1.68l-1.65-1.65-1.65,1.65h-1.65ZM221.18,271.87l-1.32-7.53-1.32,7.53h2.64ZM222.56,253.39h1.65l-1.65-3.3h-3.3l3.3,3.3ZM237.47,257.5v21h-1.92l-5.04-10.65v10.65h-3.3v-21h1.92l5.04,10.62v-10.62h3.3Z"/>
  <path class="cls-7" d="M115.04,291.5v21h-1.92l-5.04-10.65v10.65h-3.3v-21h1.92l5.04,10.62v-10.62h3.3ZM122.03,312.74c1.44,0,2.6-.41,3.48-1.23,1-.96,1.5-2.27,1.5-3.93v-7.23h-4.95v3.3h1.65v3.93c0,.74-.14,1.24-.42,1.5-.26.24-.68.36-1.26.36s-.97-.12-1.23-.36c-.3-.28-.45-.78-.45-1.5v-11.16c0-.72.15-1.22.45-1.5.26-.24.67-.36,1.23-.36s1,.12,1.26.36c.28.26.42.76.42,1.5v1.86h3.3v-1.86c0-1.66-.5-2.97-1.5-3.93-.88-.82-2.04-1.23-3.48-1.23s-2.56.41-3.48,1.23c-1,1-1.5,2.31-1.5,3.93v11.16c0,1.62.5,2.93,1.5,3.93.92.82,2.08,1.23,3.48,1.23h0ZM131.69,312.5h-3.36l4.2-21h3.3l4.2,21h-3.36l-.6-3.33h-3.78l-.6,3.33ZM130.88,290.39l1.65-3.3h3.3l1.68,3.3h-1.68l-1.65-1.65-1.65,1.65h-1.65ZM135.5,305.87l-1.32-7.53-1.32,7.53h2.64ZM136.88,287.39h1.65l-1.65-3.3h-3.3l3.3,3.3ZM153.62,291.5h1.89v21h-3.3v-10.47l-2.67,7.17h-1.92l-2.67-7.17v10.47h-3.3v-21h1.89l5.04,11.64,5.04-11.64ZM159.44,309.14c.46,0,.86.16,1.18.49.33.33.5.73.5,1.18s-.16.96-.48,1.56c-.22.42-.52.92-.91,1.51-.39.59-.66.98-.79,1.15h-.96c.04-.12.12-.36.26-.7.13-.35.27-.72.43-1.1.06-.12.09-.27.09-.45,0-.2-.08-.38-.24-.54-.5-.4-.75-.88-.75-1.44,0-.46.16-.86.49-1.18.33-.33.72-.49,1.18-.49h0ZM174.68,291.5h3.3v21h-3.3v-9.12h-3.36v9.12h-3.3v-21h3.3v8.58h3.36v-8.58ZM187.91,312.5l-.6-3.33h-3.78l-.6,3.33h-3.36l4.2-21h3.3l4.2,21h-3.36ZM183.95,315.2c0,.4.14.74.43,1.03.29.29.63.44,1.04.44s.74-.15,1.03-.44c.29-.29.44-.64.44-1.03,0-.42-.15-.78-.44-1.07-.29-.29-.64-.43-1.03-.43s-.75.14-1.04.43c-.29.29-.43.64-.43,1.07h0ZM184.1,305.87h2.64l-1.32-7.53-1.32,7.53ZM206.66,291.5v3.3h-3.36v17.7h-3.3v-17.7h-3.36v-3.3h10.02ZM209.48,312.5h-3.36l4.2-21h3.3l4.2,21h-3.36l-.6-3.33h-3.78l-.6,3.33ZM208.67,290.39l1.65-3.3h3.3l1.68,3.3h-1.68l-1.65-1.65-1.65,1.65h-1.65ZM213.29,305.87l-1.32-7.53-1.32,7.53h2.64ZM214.67,287.39h1.65l-1.65-3.3h-3.3l3.3,3.3ZM229.58,291.5v21h-1.92l-5.04-10.65v10.65h-3.3v-21h1.92l5.04,10.62v-10.62h3.3ZM236.57,312.74c1.44,0,2.6-.41,3.48-1.23,1-.96,1.5-2.27,1.5-3.93v-7.23h-4.95v3.3h1.65v3.93c0,.74-.14,1.24-.42,1.5-.26.24-.68.36-1.26.36s-.97-.12-1.23-.36c-.3-.28-.45-.78-.45-1.5v-11.16c0-.72.15-1.22.45-1.5.26-.24.67-.36,1.23-.36s1,.12,1.26.36c.28.26.42.76.42,1.5v1.86h3.3v-1.86c0-1.66-.5-2.97-1.5-3.93-.88-.82-2.04-1.23-3.48-1.23s-2.56.41-3.48,1.23c-1,1-1.5,2.31-1.5,3.93v11.16c0,1.62.5,2.93,1.5,3.93.92.82,2.08,1.23,3.48,1.23h0Z"/>
  <text class="cls-4" transform="translate(52.2 316.96)"><tspan x="0" y="0">4</tspan></text>
  <rect class="cls-1" x="65.06" y="104.62" width="9.55" height="12.28"/>
  <rect class="cls-1" x="664.09" y="205.29" width="4.33" height="35.56"/>
  <rect class="cls-1" x="661.83" y="207.06" width="9.55" height="12.28"/>
  <path class="cls-7" d="M705.64,72.67l4.23,11.04h-3.54l-2.55-6.72-1.14,2.61v4.11h-3.3v-21h3.3v8.52l3.66-8.52h3.57l-4.23,9.96ZM714.76,83.71v-21h-3.3v21h3.3ZM713.92,61.6l3.3-3.3h-3.3l-1.65,3.3h1.65ZM728.47,62.71h3.3v21h-3.3v-9.12h-3.36v9.12h-3.3v-21h3.3v8.58h3.36v-8.58ZM745.99,62.05c0,.56-.21,1.05-.61,1.45s-.91.61-1.49.61h-1.14c.74.9,1.11,2.07,1.11,3.51v11.16c0,1.66-.5,2.97-1.5,3.93-.88.82-2.04,1.23-3.48,1.23s-2.6-.41-3.48-1.23c-1-.96-1.5-2.27-1.5-3.93v-11.16c0-1.66.5-2.97,1.5-3.93.88-.82,2.04-1.23,3.48-1.23h5.01c.12,0,.23-.04.32-.12.09-.08.14-.18.14-.3h1.65ZM740.56,67.63c0-.74-.15-1.24-.45-1.5-.24-.24-.65-.36-1.23-.36s-.97.12-1.23.36c-.3.28-.45.78-.45,1.5v11.16c0,.72.15,1.22.45,1.5.26.24.67.36,1.23.36s.99-.12,1.23-.36c.3-.26.45-.76.45-1.5v-11.16ZM737.41,86.41c0,.4.14.74.43,1.03s.63.43,1.03.43.74-.15,1.04-.43c.29-.29.43-.64.43-1.03,0-.42-.15-.78-.43-1.07s-.64-.43-1.04-.43-.75.14-1.03.43c-.29.29-.43.65-.43,1.07h0ZM749.89,75.31h1.68c1.44,0,2.6-.41,3.48-1.23,1-.92,1.5-2.23,1.5-3.93v-2.28c0-1.68-.5-2.98-1.5-3.9-.9-.84-2.06-1.26-3.48-1.26h-4.98v21h3.3v-8.4ZM749.89,66.01h1.68c.56,0,.97.12,1.23.36.3.3.45.8.45,1.5v2.28c0,.72-.15,1.22-.45,1.5-.26.24-.67.36-1.23.36h-1.68v-6ZM771.61,63.97c1,.92,1.5,2.22,1.5,3.9v10.8c0,.82-.12,1.55-.36,2.19-.28.68-.67,1.24-1.17,1.68-.86.78-2.01,1.17-3.45,1.17h-4.98v-8.82h-1.2v-3.3h1.2v-8.88h4.98c1.42,0,2.58.42,3.48,1.26h0ZM769.81,67.87c0-.7-.15-1.2-.45-1.5-.26-.24-.67-.36-1.23-.36h-1.68v5.58h1.5v3.3h-1.5v5.52h1.68c.6,0,1.02-.11,1.26-.33.28-.24.42-.71.42-1.41v-10.8ZM780.01,83.95c1.44,0,2.6-.41,3.48-1.23,1-.96,1.5-2.27,1.5-3.93v-11.16c0-1.66-.5-2.97-1.5-3.93-.88-.82-2.04-1.23-3.48-1.23s-2.6.41-3.48,1.23c-1,.96-1.5,2.27-1.5,3.93v11.16c0,1.66.5,2.97,1.5,3.93.88.82,2.04,1.23,3.48,1.23h0ZM776.71,61.6l1.65-3.3h3.3l1.68,3.3h-1.68l-1.65-1.65-1.65,1.65h-1.65ZM780.01,65.77c.58,0,.99.12,1.23.36.3.26.45.76.45,1.5v11.16c0,.74-.15,1.24-.45,1.5-.24.24-.65.36-1.23.36s-.97-.12-1.23-.36c-.3-.28-.45-.78-.45-1.5v-11.16c0-.72.15-1.22.45-1.5.26-.24.67-.36,1.23-.36h0ZM782.71,58.6h1.65l-1.65-3.3h-3.3l3.3,3.3ZM797.26,62.71v21h-1.92l-5.04-10.65v10.65h-3.3v-21h1.92l5.04,10.62v-10.62h3.3ZM804.25,83.95c1.44,0,2.6-.41,3.48-1.23,1-.96,1.5-2.27,1.5-3.93v-7.23h-4.95v3.3h1.65v3.93c0,.74-.14,1.24-.42,1.5-.26.24-.68.36-1.26.36s-.97-.12-1.23-.36c-.3-.28-.45-.78-.45-1.5v-11.16c0-.72.15-1.22.45-1.5.26-.24.67-.36,1.23-.36s1,.12,1.26.36c.28.26.42.76.42,1.5v1.86h3.3v-1.86c0-1.66-.5-2.97-1.5-3.93-.88-.82-2.04-1.23-3.48-1.23s-2.56.41-3.48,1.23c-1,1-1.5,2.31-1.5,3.93v11.16c0,1.62.5,2.93,1.5,3.93.92.82,2.08,1.23,3.48,1.23h0Z"/>
  <path class="cls-7" d="M708.46,96.71v3.3h-3.36v17.7h-3.3v-17.7h-3.36v-3.3h10.02ZM716.59,96.71h3.3v21h-3.3v-9.12h-3.36v9.12h-3.3v-21h3.3v8.58h3.36v-8.58ZM725.59,117.71v-21h-3.3v21h3.3ZM737.35,117.95c1.44,0,2.6-.41,3.48-1.23,1-.96,1.5-2.27,1.5-3.93v-2.7h-3.3v2.7c0,.74-.14,1.24-.42,1.5-.26.24-.68.36-1.26.36s-.97-.12-1.23-.36c-.3-.28-.45-.78-.45-1.5v-11.16c0-.72.15-1.22.45-1.5.26-.24.67-.36,1.23-.36s1,.12,1.26.36c.28.26.42.76.42,1.5v1.86h3.3v-1.86c0-1.66-.5-2.97-1.5-3.93-.88-.82-2.04-1.23-3.48-1.23s-2.56.41-3.48,1.23c-1,1-1.5,2.31-1.5,3.93v11.16c0,1.62.5,2.93,1.5,3.93.92.82,2.08,1.23,3.48,1.23h0ZM749.11,117.95c1.44,0,2.6-.41,3.48-1.23,1-.96,1.5-2.27,1.5-3.93v-11.16c0-1.66-.5-2.97-1.5-3.93-.88-.82-2.04-1.23-3.48-1.23s-2.6.41-3.48,1.23c-1,.96-1.5,2.27-1.5,3.93v11.16c0,1.66.5,2.97,1.5,3.93.88.82,2.04,1.23,3.48,1.23h0ZM745.81,95.6l1.65-3.3h3.3l1.68,3.3h-1.68l-1.65-1.65-1.65,1.65h-1.65ZM749.11,99.77c.58,0,.99.12,1.23.36.3.26.45.76.45,1.5v11.16c0,.74-.15,1.24-.45,1.5-.24.24-.65.36-1.23.36s-.97-.12-1.23-.36c-.3-.28-.45-.78-.45-1.5v-11.16c0-.72.15-1.22.45-1.5.26-.24.67-.36,1.23-.36h0ZM766.36,96.71v21h-1.92l-5.04-10.65v10.65h-3.3v-21h1.92l5.04,10.62v-10.62h3.3ZM773.35,117.95c1.44,0,2.6-.41,3.48-1.23,1-.96,1.5-2.27,1.5-3.93v-7.23h-4.95v3.3h1.65v3.93c0,.74-.14,1.24-.42,1.5-.26.24-.68.36-1.26.36s-.97-.12-1.23-.36c-.3-.28-.45-.78-.45-1.5v-11.16c0-.72.15-1.22.45-1.5.26-.24.67-.36,1.23-.36s1,.12,1.26.36c.28.26.42.76.42,1.5v1.86h3.3v-1.86c0-1.66-.5-2.97-1.5-3.93-.88-.82-2.04-1.23-3.48-1.23s-2.56.41-3.48,1.23c-1,1-1.5,2.31-1.5,3.93v11.16c0,1.62.5,2.93,1.5,3.93.92.82,2.08,1.23,3.48,1.23h0Z"/>
  <path class="cls-7" d="M993.35,62.71v3.3h-3.36v17.7h-3.3v-17.7h-3.36v-3.3h10.02ZM1001.48,62.71h3.3v21h-3.3v-9.12h-3.36v9.12h-3.3v-21h3.3v8.58h3.36v-8.58ZM1010.48,83.71v-21h-3.3v21h3.3ZM1022.24,83.95c1.44,0,2.6-.41,3.48-1.23,1-.96,1.5-2.27,1.5-3.93v-2.7h-3.3v2.7c0,.74-.14,1.24-.42,1.5-.26.24-.68.36-1.26.36s-.97-.12-1.23-.36c-.3-.28-.45-.78-.45-1.5v-11.16c0-.72.15-1.22.45-1.5.26-.24.67-.36,1.23-.36s1,.12,1.26.36c.28.26.42.76.42,1.5v1.86h3.3v-1.86c0-1.66-.5-2.97-1.5-3.93-.88-.82-2.04-1.23-3.48-1.23s-2.56.41-3.48,1.23c-1,1-1.5,2.31-1.5,3.93v11.16c0,1.62.5,2.93,1.5,3.93.92.82,2.08,1.23,3.48,1.23h0ZM1034,83.95c1.44,0,2.6-.41,3.48-1.23,1-.96,1.5-2.27,1.5-3.93v-11.16c0-1.66-.5-2.97-1.5-3.93-.88-.82-2.04-1.23-3.48-1.23s-2.6.41-3.48,1.23c-1,.96-1.5,2.27-1.5,3.93v11.16c0,1.66.5,2.97,1.5,3.93.88.82,2.04,1.23,3.48,1.23h0ZM1030.7,61.6l1.65-3.3h3.3l1.68,3.3h-1.68l-1.65-1.65-1.65,1.65h-1.65ZM1034,65.77c.58,0,.99.12,1.23.36.3.26.45.76.45,1.5v11.16c0,.74-.15,1.24-.45,1.5-.24.24-.65.36-1.23.36s-.97-.12-1.23-.36c-.3-.28-.45-.78-.45-1.5v-11.16c0-.72.15-1.22.45-1.5.26-.24.67-.36,1.23-.36h0ZM1051.25,62.71v21h-1.92l-5.04-10.65v10.65h-3.3v-21h1.92l5.04,10.62v-10.62h3.3ZM1058.24,83.95c1.44,0,2.6-.41,3.48-1.23,1-.96,1.5-2.27,1.5-3.93v-7.23h-4.95v3.3h1.65v3.93c0,.74-.14,1.24-.42,1.5-.26.24-.68.36-1.26.36s-.97-.12-1.23-.36c-.3-.28-.45-.78-.45-1.5v-11.16c0-.72.15-1.22.45-1.5.26-.24.67-.36,1.23-.36s1,.12,1.26.36c.28.26.42.76.42,1.5v1.86h3.3v-1.86c0-1.66-.5-2.97-1.5-3.93-.88-.82-2.04-1.23-3.48-1.23s-2.56.41-3.48,1.23c-1,1-1.5,2.31-1.5,3.93v11.16c0,1.62.5,2.93,1.5,3.93.92.82,2.08,1.23,3.48,1.23h0Z"/>
  <path class="cls-7" d="M988.94,117.95c-1.4,0-2.56-.41-3.48-1.23-1-1-1.5-2.31-1.5-3.93v-11.16c0-1.62.5-2.93,1.5-3.93.92-.82,2.08-1.23,3.48-1.23s2.6.41,3.48,1.23c1,.96,1.5,2.27,1.5,3.93v1.86h-3.3v-1.86c0-.74-.14-1.24-.42-1.5-.26-.24-.68-.36-1.26-.36s-.97.12-1.23.36c-.3.28-.45.78-.45,1.5v11.16c0,.72.15,1.22.45,1.5.26.24.67.36,1.23.36s1-.12,1.26-.36c.28-.26.42-.76.42-1.5v-2.7h3.3v2.7c0,1.66-.5,2.97-1.5,3.93-.88.82-2.04,1.23-3.48,1.23h0ZM1000.7,117.95c-1.44,0-2.6-.41-3.48-1.23-1-.96-1.5-2.27-1.5-3.93v-11.16c0-1.66.5-2.97,1.5-3.93.88-.82,2.04-1.23,3.48-1.23s2.6.41,3.48,1.23c1,.96,1.5,2.27,1.5,3.93v11.16c0,1.66-.5,2.97-1.5,3.93-.88.82-2.04,1.23-3.48,1.23h0ZM999.05,95.6l1.65-1.65,1.65,1.65h1.68l-1.68-3.3h-3.3l-1.65,3.3h1.65ZM1000.7,99.77c-.56,0-.97.12-1.23.36-.3.28-.45.78-.45,1.5v11.16c0,.72.15,1.22.45,1.5.26.24.67.36,1.23.36s.99-.12,1.23-.36c.3-.26.45-.76.45-1.5v-11.16c0-.74-.15-1.24-.45-1.5-.24-.24-.65-.36-1.23-.36h0ZM1014.65,96.71v10.62l-5.04-10.62h-1.92v21h3.3v-10.65l5.04,10.65h1.92v-21h-3.3ZM1024.94,117.95c-1.4,0-2.56-.41-3.48-1.23-1-1-1.5-2.31-1.5-3.93v-11.16c0-1.62.5-2.93,1.5-3.93.92-.82,2.08-1.23,3.48-1.23s2.6.41,3.48,1.23c1,.96,1.5,2.27,1.5,3.93v1.86h-3.3v-1.86c0-.74-.14-1.24-.42-1.5-.26-.24-.68-.36-1.26-.36s-.97.12-1.23.36c-.3.28-.45.78-.45,1.5v11.16c0,.72.15,1.22.45,1.5.26.24.67.36,1.23.36s1-.12,1.26-.36c.28-.26.42-.76.42-1.5v-3.93h-1.65v-3.3h4.95v7.23c0,1.66-.5,2.97-1.5,3.93-.88.82-2.04,1.23-3.48,1.23h0ZM1035.83,96.71v3.3h3.36v17.7h3.3v-17.7h3.36v-3.3h-10.02ZM1057.01,117.71l-4.2-21h-3.3l-4.2,21h3.36l.6-3.33h3.78l.6,3.33h3.36ZM1051.16,103.55l1.32,7.53h-2.64l1.32-7.53ZM1050.47,95.6l1.65-3.3h3.3l-3.3,3.3h-1.65ZM1063.19,117.95c-1.4,0-2.56-.41-3.48-1.23-1-1-1.5-2.31-1.5-3.93v-11.16c0-1.62.5-2.93,1.5-3.93.92-.82,2.08-1.23,3.48-1.23s2.6.41,3.48,1.23c1,.96,1.5,2.27,1.5,3.93v1.86h-3.3v-1.86c0-.74-.14-1.24-.42-1.5-.26-.24-.68-.36-1.26-.36s-.97.12-1.23.36c-.3.28-.45.78-.45,1.5v11.16c0,.72.15,1.22.45,1.5.26.24.67.36,1.23.36s1-.12,1.26-.36c.28-.26.42-.76.42-1.5v-2.7h3.3v2.7c0,1.66-.5,2.97-1.5,3.93-.88.82-2.04,1.23-3.48,1.23h0ZM1073.93,96.71v3.3h3.36v17.7h3.3v-17.7h3.36v-3.3h-10.02ZM1095.11,117.71l-4.2-21h-3.3l-4.2,21h3.36l.6-3.33h3.78l.6,3.33h3.36ZM1087.79,120.41c0-.42.14-.78.43-1.07.29-.29.63-.43,1.04-.43s.74.14,1.04.43.43.65.43,1.07-.15.74-.43,1.03c-.29.29-.64.43-1.04.43s-.75-.15-1.04-.43-.43-.64-.43-1.03h0ZM1089.26,103.55l1.32,7.53h-2.64l1.32-7.53ZM1103.66,108.35l-5.04-11.64h-1.89v21h3.3v-10.47l2.67,7.17h1.92l2.67-7.17v10.47h3.3v-21h-1.89l-5.04,11.64Z"/>
  <text class="cls-4" transform="translate(938.86 124.62)"><tspan x="0" y="0">3</tspan></text>
  <text class="cls-2" transform="translate(648.53 131.02)"><tspan x="0" y="0">2</tspan></text>
  <path class="cls-7" d="M709.41,259v3.3h-3.36v17.7h-3.3v-17.7h-3.36v-3.3h10.02ZM717.54,259h3.3v21h-3.3v-9.12h-3.36v9.12h-3.3v-21h3.3v8.58h3.36v-8.58ZM726.54,280v-21h-3.3v21h3.3ZM738.3,280.24c1.44,0,2.6-.41,3.48-1.23,1-.96,1.5-2.27,1.5-3.93v-2.7h-3.3v2.7c0,.74-.14,1.24-.42,1.5-.26.24-.68.36-1.26.36s-.97-.12-1.23-.36c-.3-.28-.45-.78-.45-1.5v-11.16c0-.72.15-1.22.45-1.5.26-.24.67-.36,1.23-.36s1,.12,1.26.36c.28.26.42.76.42,1.5v1.86h3.3v-1.86c0-1.66-.5-2.97-1.5-3.93-.88-.82-2.04-1.23-3.48-1.23s-2.56.41-3.48,1.23c-1,1-1.5,2.31-1.5,3.93v11.16c0,1.62.5,2.93,1.5,3.93.92.82,2.08,1.23,3.48,1.23h0ZM750.06,280.24c1.44,0,2.6-.41,3.48-1.23,1-.96,1.5-2.27,1.5-3.93v-11.16c0-1.66-.5-2.97-1.5-3.93-.88-.82-2.04-1.23-3.48-1.23s-2.6.41-3.48,1.23c-1,.96-1.5,2.27-1.5,3.93v11.16c0,1.66.5,2.97,1.5,3.93.88.82,2.04,1.23,3.48,1.23h0ZM746.76,257.89l1.65-3.3h3.3l1.68,3.3h-1.68l-1.65-1.65-1.65,1.65h-1.65ZM750.06,262.06c.58,0,.99.12,1.23.36.3.26.45.76.45,1.5v11.16c0,.74-.15,1.24-.45,1.5-.24.24-.65.36-1.23.36s-.97-.12-1.23-.36c-.3-.28-.45-.78-.45-1.5v-11.16c0-.72.15-1.22.45-1.5.26-.24.67-.36,1.23-.36h0ZM767.31,259v21h-1.92l-5.04-10.65v10.65h-3.3v-21h1.92l5.04,10.62v-10.62h3.3ZM774.3,280.24c1.44,0,2.6-.41,3.48-1.23,1-.96,1.5-2.27,1.5-3.93v-7.23h-4.95v3.3h1.65v3.93c0,.74-.14,1.24-.42,1.5-.26.24-.68.36-1.26.36s-.97-.12-1.23-.36c-.3-.28-.45-.78-.45-1.5v-11.16c0-.72.15-1.22.45-1.5.26-.24.67-.36,1.23-.36s1,.12,1.26.36c.28.26.42.76.42,1.5v1.86h3.3v-1.86c0-1.66-.5-2.97-1.5-3.93-.88-.82-2.04-1.23-3.48-1.23s-2.56.41-3.48,1.23c-1,1-1.5,2.31-1.5,3.93v11.16c0,1.62.5,2.93,1.5,3.93.92.82,2.08,1.23,3.48,1.23h0Z"/>
  <path class="cls-7" d="M706.95,293h3.3v21h-3.3v-9.12h-3.36v9.12h-3.3v-21h3.3v8.58h3.36v-8.58ZM717.36,314.24c1.44,0,2.6-.41,3.48-1.23,1-.96,1.5-2.27,1.5-3.93v-11.16c0-1.66-.5-2.97-1.5-3.93-.88-.82-2.04-1.23-3.48-1.23s-2.6.41-3.48,1.23c-1,.96-1.5,2.27-1.5,3.93v11.16c0,1.66.5,2.97,1.5,3.93.88.82,2.04,1.23,3.48,1.23h0ZM717.36,296.06c.58,0,.99.12,1.23.36.3.26.45.76.45,1.5v11.16c0,.74-.15,1.24-.45,1.5-.24.24-.65.36-1.23.36s-.97-.12-1.23-.36c-.3-.28-.45-.78-.45-1.5v-11.16c0-.72.15-1.22.45-1.5.26-.24.67-.36,1.23-.36h0ZM731.85,314l-.6-3.33h-3.78l-.6,3.33h-3.36l4.2-21h3.3l4.2,21h-3.36ZM728.7,291.89h1.65l-1.65-3.3h-3.3l3.3,3.3ZM728.04,307.37h2.64l-1.32-7.53-1.32,7.53ZM746.97,293v21h-1.92l-5.04-10.65v10.65h-3.3v-21h1.92l5.04,10.62v-10.62h3.3ZM763.02,293v3.3h-3.36v17.7h-3.3v-17.7h-3.36v-3.3h10.02ZM771.15,293h3.3v21h-3.3v-9.12h-3.36v9.12h-3.3v-21h3.3v8.58h3.36v-8.58ZM780.15,314v-21h-3.3v21h3.3ZM791.25,296.3h-5.4v5.28h3.72v3.3h-3.72v5.82h5.4v3.3h-8.7v-21h8.7v3.3ZM790.38,291.89h-1.65l-1.65-1.65-1.65,1.65h-1.68l1.68-3.3h3.3l1.65,3.3ZM785.61,316.7c0,.4.14.74.43,1.03.29.29.63.44,1.03.44s.74-.15,1.04-.44c.29-.29.43-.64.43-1.03,0-.42-.15-.78-.43-1.07s-.64-.43-1.04-.43-.75.14-1.03.43c-.29.29-.43.64-.43,1.07h0ZM803.43,293v21h-1.92l-5.04-10.65v10.65h-3.3v-21h1.92l5.04,10.62v-10.62h3.3Z"/>
  <text class="cls-4" transform="translate(648.55 317.04)"><tspan x="0" y="0">6</tspan></text>
  <path class="cls-7" d="M989.21,280.22h-4.98v-21h4.53c1.42,0,2.57.39,3.45,1.17.52.46.9,1.02,1.14,1.68.26.64.39,1.38.39,2.22v1.95c0,1.42-.4,2.5-1.2,3.24,1.1.78,1.65,2.04,1.65,3.78v1.92c0,.86-.13,1.59-.39,2.19-.24.66-.62,1.22-1.14,1.68-.86.78-2.01,1.17-3.45,1.17h0ZM987.53,268.1h1.23c.56,0,.97-.12,1.23-.36.3-.3.45-.8.45-1.5v-1.95c0-.68-.14-1.16-.42-1.44-.24-.22-.66-.33-1.26-.33h-1.23v5.58ZM987.53,276.92h1.68c.6,0,1.02-.11,1.26-.33.28-.26.42-.73.42-1.41v-1.92c0-.72-.15-1.22-.45-1.5-.26-.24-.67-.36-1.23-.36h-1.68v5.52ZM1006.94,280.22l-4.2-21h-3.3l-4.2,21h3.36l.6-3.33h3.78l.6,3.33h3.36ZM998.69,254.9c-.5,0-.95.1-1.35.3l1.35,1.35c.44,0,.81.15,1.11.45s.45.67.45,1.11h1.65c0-.88-.32-1.64-.95-2.27s-1.39-.95-2.26-.95h0ZM1001.09,266.06l1.32,7.53h-2.64l1.32-7.53ZM1013.12,280.46c-1.44,0-2.6-.41-3.48-1.23-1-.96-1.5-2.27-1.5-3.93v-11.16c0-1.66.5-2.97,1.5-3.93.88-.82,2.04-1.23,3.48-1.23s2.6.41,3.48,1.23c1,.96,1.5,2.27,1.5,3.93v11.16c0,1.66-.5,2.97-1.5,3.93-.88.82-2.04,1.23-3.48,1.23h0ZM1013.12,262.28c-.56,0-.97.12-1.23.36-.3.28-.45.78-.45,1.5v11.16c0,.72.15,1.22.45,1.5.26.24.67.36,1.23.36s.99-.12,1.23-.36c.3-.26.45-.76.45-1.5v-11.16c0-.74-.15-1.24-.45-1.5-.24-.24-.65-.36-1.23-.36h0ZM1031.54,267.8h-3.36v-8.58h-3.3v21h3.3v-9.12h3.36v9.12h3.3v-21h-3.3v8.58ZM1048.13,280.22l-4.2-21h-3.3l-4.2,21h3.36l.6-3.33h3.78l.6,3.33h3.36ZM1038.32,254.81h3.3l1.65,3.3h-1.65l-3.3-3.3ZM1042.28,266.06l1.32,7.53h-2.64l1.32-7.53ZM1056.59,259.22v10.62l-5.04-10.62h-1.92v21h3.3v-10.65l5.04,10.65h1.92v-21h-3.3ZM1068.83,267.8h-3.36v-8.58h-3.3v21h3.3v-9.12h3.36v9.12h3.3v-21h-3.3v8.58Z"/>
  <path class="cls-7" d="M988.94,314.46c-1.4,0-2.56-.41-3.48-1.23-1-1-1.5-2.31-1.5-3.93v-11.16c0-1.62.5-2.93,1.5-3.93.92-.82,2.08-1.23,3.48-1.23s2.6.41,3.48,1.23c1,.96,1.5,2.27,1.5,3.93v1.86h-3.3v-1.86c0-.74-.14-1.24-.42-1.5-.26-.24-.68-.36-1.26-.36s-.97.12-1.23.36c-.3.28-.45.78-.45,1.5v11.16c0,.72.15,1.22.45,1.5.26.24.67.36,1.23.36s1-.12,1.26-.36c.28-.26.42-.76.42-1.5v-2.7h3.3v2.7c0,1.66-.5,2.97-1.5,3.93-.88.82-2.04,1.23-3.48,1.23h0ZM1000.7,314.46c-1.44,0-2.6-.41-3.48-1.23-1-.96-1.5-2.27-1.5-3.93v-11.16c0-1.66.5-2.97,1.5-3.93.88-.82,2.04-1.23,3.48-1.23s2.6.41,3.48,1.23c1,.96,1.5,2.27,1.5,3.93v11.16c0,1.66-.5,2.97-1.5,3.93-.88.82-2.04,1.23-3.48,1.23h0ZM999.05,292.11l1.65-1.65,1.65,1.65h1.68l-1.68-3.3h-3.3l-1.65,3.3h1.65ZM1000.7,296.28c-.56,0-.97.12-1.23.36-.3.28-.45.78-.45,1.5v11.16c0,.72.15,1.22.45,1.5.26.24.67.36,1.23.36s.99-.12,1.23-.36c.3-.26.45-.76.45-1.5v-11.16c0-.74-.15-1.24-.45-1.5-.24-.24-.65-.36-1.23-.36h0ZM1014.65,293.22v10.62l-5.04-10.62h-1.92v21h3.3v-10.65l5.04,10.65h1.92v-21h-3.3ZM1024.94,314.46c-1.4,0-2.56-.41-3.48-1.23-1-1-1.5-2.31-1.5-3.93v-11.16c0-1.62.5-2.93,1.5-3.93.92-.82,2.08-1.23,3.48-1.23s2.6.41,3.48,1.23c1,.96,1.5,2.27,1.5,3.93v1.86h-3.3v-1.86c0-.74-.14-1.24-.42-1.5-.26-.24-.68-.36-1.26-.36s-.97.12-1.23.36c-.3.28-.45.78-.45,1.5v11.16c0,.72.15,1.22.45,1.5.26.24.67.36,1.23.36s1-.12,1.26-.36c.28-.26.42-.76.42-1.5v-3.93h-1.65v-3.3h4.95v7.23c0,1.66-.5,2.97-1.5,3.93-.88.82-2.04,1.23-3.48,1.23h0ZM1035.83,293.22v3.3h3.36v17.7h3.3v-17.7h3.36v-3.3h-10.02ZM1055.3,304.95c.18-.12.34-.25.48-.39,1-.92,1.5-2.23,1.5-3.93v-2.25c0-1.68-.5-2.98-1.5-3.9-.9-.84-2.06-1.26-3.48-1.26h-4.98v21h3.3v-8.43h1.5l1.71,8.43h3.36l-1.89-9.27ZM1053.98,300.63c0,.72-.15,1.22-.45,1.5-.26.24-.67.36-1.23.36h-1.68v-5.97h1.68c.56,0,.97.12,1.23.36.3.3.45.8.45,1.5v2.25ZM1056.77,288.81h3.3l1.65,3.3h-1.65l-3.3-3.3ZM1059.23,314.22v-21h3.3v21h-3.3ZM1071.77,293.22v10.62l-5.04-10.62h-1.92v21h3.3v-10.65l5.04,10.65h1.92v-21h-3.3ZM1084.01,301.8h-3.36v-8.58h-3.3v21h3.3v-9.12h3.36v9.12h3.3v-21h-3.3v8.58Z"/>
  <text class="cls-4" transform="translate(938.86 317.04)"><tspan x="0" y="0">7</tspan></text>
</svg>