<?xml version="1.0" encoding="UTF-8"?>
<svg id="Layer_1" data-name="Layer 1" xmlns="http://www.w3.org/2000/svg" viewBox="0 0 150 125.65">
  <defs>
    <style>
      .cls-1 {
        fill: #909c86;
      }
    </style>
  </defs>
  <path class="cls-1" d="M98.78,24.86c-15.78,0-28.62,12.85-28.62,28.63s12.83,28.63,28.62,28.63,28.63-12.85,28.63-28.63-12.83-28.63-28.63-28.63ZM124.19,53.5c0,14.01-11.4,25.41-25.41,25.41s-25.39-11.4-25.39-25.41,11.4-25.41,25.39-25.41,25.41,11.4,25.41,25.41Z"/>
  <path class="cls-1" d="M148.5,66.45l1.5-17.07-13.49-2.52c-.39-2.22-.97-4.4-1.73-6.48l10.42-8.92-9.83-14.04-11.98,6.77c-1.71-1.45-3.53-2.74-5.47-3.84l2.26-13.56-16.56-4.45-4.8,12.85h-.03c-2.26,0-4.5.19-6.67.58l-6.97-11.8-15.53,7.24,4.58,12.95c-1.98,1.66-3.8,3.53-5.45,5.61l2.53,2c1.24-1.58,2.6-3.01,4.06-4.35.81-.73,1.66-1.42,2.53-2.05l-1.11-3.19-3.32-9.37,10.48-4.89,5.05,8.56,1.69,2.89c1.06-.26,2.13-.45,3.21-.6,1.23-.19,2.48-.29,3.74-.32.39-.03.79-.03,1.18-.03.69,0,1.39.02,2.08.06l1.18-3.14,3.48-9.3,11.17,3-1.64,9.8-.55,3.31c.98.48,1.93,1.03,2.85,1.61,1.05.64,2.06,1.35,3.03,2.14.85.64,1.68,1.35,2.47,2.11l2.92-1.64,8.67-4.9,6.64,9.48-7.56,6.47-2.55,2.18c.44.98.82,2.02,1.16,3.05.39,1.18.71,2.37.97,3.6.23,1.05.4,2.13.52,3.22l3.31.61,9.77,1.82-1,11.53-9.95.08-3.35.03c-.31,1.05-.66,2.08-1.08,3.08-.47,1.16-.98,2.29-1.58,3.37-.5.97-1.06,1.92-1.66,2.82l2.13,2.58,6.32,7.67-8.17,8.19-7.69-6.34-2.58-2.13c-.9.61-1.84,1.16-2.81,1.68-1.08.58-2.21,1.11-3.37,1.58-1,.4-2.03.77-3.08,1.08l-.03,3.35-.1,9.93-11.53,1.02-1.81-9.77-.61-3.29c-.35-.05-2.97-1.02-3.32-1.06l.73,3.9,2.52,13.51,17.07-1.48.13-13.72c2.11-.77,4.14-1.73,6.06-2.85l10.61,8.74,12.12-12.12-8.74-10.61c1.13-1.92,2.1-3.97,2.87-6.08l13.7-.13Z"/>
  <path class="cls-1" d="M44.44,50.19c9.88,0,17.93-8.05,17.93-17.93,0-9.33-7.17-17.04-16.31-17.85V1.61c0-.89-.72-1.61-1.61-1.61s-1.61.72-1.61,1.61v12.81s0,0,0,0c-9.14.81-16.32,8.51-16.32,17.85,0,9.88,8.05,17.93,17.93,17.93ZM44.44,17.56c8.11,0,14.7,6.59,14.7,14.7s-6.59,14.7-14.7,14.7-14.7-6.61-14.7-14.7,6.61-14.7,14.7-14.7Z"/>
  <path class="cls-1" d="M44.45,82.63c-1.34,0-2.42,1.08-2.42,2.42v13.4c0,1.34,1.08,2.42,2.42,2.42s2.42-1.08,2.42-2.42v-13.4c0-1.34-1.08-2.42-2.42-2.42Z"/>
  <path class="cls-1" d="M36.24,89.96h-14.56l11.07-40.96c.23-.86-.28-1.74-1.14-1.98-.85-.23-1.74.27-1.98,1.14l-11.3,41.8H1.61c-.89,0-1.61.72-1.61,1.61s.72,1.61,1.61,1.61h15.85l-5.03,18.61c-.23.86.28,1.74,1.14,1.98.14.04.28.06.42.06.71,0,1.36-.47,1.56-1.19l5.26-19.45h15.43c.89,0,1.61-.72,1.61-1.61s-.72-1.61-1.61-1.61Z"/>
  <path class="cls-1" d="M10.1,114.67c-6.18,1.79,2.06,10.99,2.06,10.99,0,0,3.75-12.66-2.06-10.99Z"/>
  <path class="cls-1" d="M87.29,89.96h-16.73l-11.3-41.8c-.23-.86-1.13-1.37-1.98-1.14-.86.23-1.37,1.12-1.14,1.98l11.07,40.96h-14.56c-.89,0-1.61.72-1.61,1.61s.72,1.61,1.61,1.61h15.43l5.26,19.45c.2.72.85,1.19,1.56,1.19.14,0,.28-.02.42-.06.86-.23,1.37-1.12,1.14-1.98l-5.03-18.61h15.85c.89,0,1.61-.72,1.61-1.61s-.72-1.61-1.61-1.61Z"/>
  <path class="cls-1" d="M78.8,114.67c-5.8-1.68-2.06,10.99-2.06,10.99,0,0,8.24-9.2,2.06-10.99Z"/>
</svg>