<?xml version="1.0" encoding="UTF-8"?>
<svg id="Layer_1" data-name="Layer 1" xmlns="http://www.w3.org/2000/svg" viewBox="0 0 150 141.79">
  <defs>
    <style>
      .cls-1 {
        fill: #909c86;
      }
    </style>
  </defs>
  <path class="cls-1" d="M90.86,45.58c-10.53,0-19.09,8.57-19.09,19.1s8.56,19.1,19.09,19.1,19.1-8.57,19.1-19.1-8.56-19.1-19.1-19.1ZM107.8,64.67c0,9.34-7.6,16.95-16.95,16.95s-16.94-7.6-16.94-16.95,7.6-16.95,16.94-16.95,16.95,7.6,16.95,16.95Z"/>
  <path class="cls-1" d="M124.02,73.31l1-11.39-9-1.68c-.26-1.48-.65-2.94-1.15-4.32l6.95-5.95-6.56-9.37-7.99,4.52c-1.14-.97-2.35-1.83-3.65-2.56l1.51-9.04-11.04-2.97-3.2,8.57h-.02c-1.51,0-3,.13-4.45.39l-4.65-7.87-10.35,4.83,3.05,8.63c-1.32,1.11-2.54,2.35-3.63,3.74l1.69,1.33c.83-1.05,1.73-2.01,2.71-2.9.54-.48,1.11-.95,1.69-1.37l-.74-2.13-2.22-6.25,6.99-3.26,3.37,5.71,1.13,1.92c.71-.17,1.42-.3,2.14-.4.82-.13,1.66-.19,2.49-.22.26-.02.53-.02.78-.02.46,0,.92.01,1.39.04l.78-2.1,2.32-6.2,7.45,2-1.1,6.54-.37,2.2c.66.32,1.29.69,1.9,1.08.7.43,1.38.9,2.02,1.43.57.43,1.12.9,1.65,1.41l1.95-1.1,5.78-3.27,4.43,6.32-5.04,4.31-1.7,1.45c.29.66.55,1.34.77,2.03.26.78.47,1.58.65,2.4.15.7.27,1.42.34,2.15l2.2.41,6.52,1.22-.67,7.69-6.63.05-2.24.02c-.2.7-.44,1.39-.72,2.05-.31.77-.66,1.53-1.05,2.25-.33.65-.71,1.28-1.11,1.88l1.42,1.72,4.21,5.12-5.45,5.46-5.13-4.23-1.72-1.42c-.6.41-1.23.77-1.87,1.12-.72.39-1.47.74-2.25,1.05-.67.27-1.35.52-2.05.72l-.02,2.24-.06,6.62-7.69.68-1.2-6.52-.41-2.19c-.24-.03-1.98-.68-2.22-.71l.48,2.6,1.68,9.01,11.39-.99.09-9.15c1.41-.52,2.76-1.15,4.04-1.9l7.08,5.83,8.09-8.09-5.83-7.08c.75-1.28,1.4-2.65,1.91-4.05l9.14-.09Z"/>
  <path class="cls-1" d="M54.62,62.47c6.59,0,11.96-5.37,11.96-11.96,0-6.22-4.78-11.36-10.88-11.9v-8.54c0-.59-.48-1.08-1.08-1.08s-1.08.48-1.08,1.08v8.54s0,0,0,0c-6.1.54-10.88,5.68-10.88,11.9,0,6.59,5.37,11.96,11.96,11.96ZM54.62,40.71c5.41,0,9.81,4.4,9.81,9.81s-4.4,9.81-9.81,9.81-9.81-4.41-9.81-9.81,4.41-9.81,9.81-9.81Z"/>
  <path class="cls-1" d="M54.63,84.1c-.89,0-1.61.72-1.61,1.61v8.93c0,.89.72,1.61,1.61,1.61s1.61-.72,1.61-1.61v-8.93c0-.89-.72-1.61-1.61-1.61Z"/>
  <path class="cls-1" d="M49.15,88.99h-9.71l7.38-27.32c.15-.57-.18-1.16-.76-1.32-.57-.16-1.16.18-1.32.76l-7.53,27.88h-11.15c-.59,0-1.08.48-1.08,1.08s.48,1.08,1.08,1.08h10.57l-3.35,12.41c-.15.57.18,1.16.76,1.32.09.03.19.04.28.04.47,0,.91-.32,1.04-.79l3.51-12.97h10.29c.59,0,1.08-.48,1.08-1.08s-.48-1.08-1.08-1.08Z"/>
  <path class="cls-1" d="M31.71,105.47c-4.12,1.19,1.37,7.33,1.37,7.33,0,0,2.5-8.45-1.37-7.33Z"/>
  <path class="cls-1" d="M83.19,88.99h-11.15l-7.53-27.88c-.16-.57-.75-.91-1.32-.76-.57.16-.91.75-.76,1.32l7.38,27.32h-9.71c-.59,0-1.08.48-1.08,1.08s.48,1.08,1.08,1.08h10.29l3.51,12.97c.13.48.56.79,1.04.79.09,0,.19-.01.28-.04.57-.16.91-.75.76-1.32l-3.35-12.41h10.57c.59,0,1.08-.48,1.08-1.08s-.48-1.08-1.08-1.08Z"/>
  <path class="cls-1" d="M77.54,105.47c-3.87-1.12-1.37,7.33-1.37,7.33,0,0,5.5-6.14,1.37-7.33Z"/>
</svg>