<?xml version="1.0" encoding="UTF-8"?>
<svg id="Layer_1" data-name="Layer 1" xmlns="http://www.w3.org/2000/svg" viewBox="0 0 150 141.79">
  <defs>
    <style>
      .cls-1 {
        fill: #909c86;
      }
    </style>
  </defs>
  <path class="cls-1" d="M117.22,47.24h-16.76v-10.25c0-2.78-2.26-5.04-5.04-5.04h-40.86c-2.78,0-5.04,2.26-5.04,5.04v10.25h-16.76c-3,0-5.45,2.44-5.45,5.45v51.71c0,3,2.44,5.45,5.45,5.45h84.44c3,0,5.45-2.44,5.45-5.45v-51.71c0-3-2.44-5.45-5.45-5.45ZM52.13,36.99c0-1.35,1.1-2.44,2.44-2.44h40.86c1.35,0,2.44,1.1,2.44,2.44v10.25h-4.14v-6.94c0-1.43-1.16-2.59-2.59-2.59h-32.29c-1.43,0-2.59,1.16-2.59,2.59v6.94h-4.14v-10.25ZM58.86,47.24v-6.93s32.27,0,32.27,0v6.94h-32.27ZM29.93,52.68c0-1.57,1.28-2.85,2.85-2.85h84.44c1.57,0,2.85,1.28,2.85,2.85v26.12c0,1.57-1.28,2.85-2.85,2.85H32.78c-1.57,0-2.85-1.28-2.85-2.85v-26.12ZM98.99,84.25h6.89v9.58c0,1.13-.92,2.06-2.06,2.06h-2.78c-1.13,0-2.06-.92-2.06-2.06v-9.58ZM44.12,84.25h6.89v9.58c0,1.13-.92,2.06-2.06,2.06h-2.78c-1.13,0-2.06-.92-2.06-2.06v-9.58ZM117.22,107.24H32.78c-1.57,0-2.85-1.28-2.85-2.85v-20.97c.83.51,1.8.83,2.85.83h8.75v9.58c0,2.57,2.09,4.65,4.65,4.65h2.78c2.57,0,4.65-2.09,4.65-4.65v-9.58h42.78v9.58c0,2.57,2.09,4.65,4.65,4.65h2.78c2.57,0,4.65-2.09,4.65-4.65v-9.58h8.75c1.05,0,2.02-.31,2.85-.83v20.97c0,1.57-1.28,2.85-2.85,2.85Z"/>
  <path class="cls-1" d="M41.59,93.5c.72,0,1.3-.58,1.3-1.3v-1.37c0-.72-.58-1.3-1.3-1.3s-1.3.58-1.3,1.3v1.37c0,.72.58,1.3,1.3,1.3Z"/>
  <path class="cls-1" d="M96.46,93.5c.72,0,1.3-.58,1.3-1.3v-1.37c0-.72-.58-1.3-1.3-1.3s-1.3.58-1.3,1.3v1.37c0,.72.58,1.3,1.3,1.3Z"/>
  <path class="cls-1" d="M30.96,78.08h3.43c.72,0,1.3-.58,1.3-1.3s-.58-1.3-1.3-1.3h-3.43c-.46,0-.84-.38-.84-.84v-3.42c0-.72-.58-1.3-1.3-1.3s-1.3.58-1.3,1.3v3.42c0,1.89,1.54,3.43,3.43,3.43Z"/>
</svg>