<?xml version="1.0" encoding="UTF-8"?>
<svg id="Layer_1" data-name="Layer 1" xmlns="http://www.w3.org/2000/svg" viewBox="0 0 150 123.21">
  <defs>
    <style>
      .cls-1 {
        fill: #fff;
      }
    </style>
  </defs>
  <path class="cls-1" d="M41.59,93.5c.72,0,1.3-.58,1.3-1.3v-1.37c0-.72-.58-1.3-1.3-1.3s-1.3.58-1.3,1.3v1.37c0,.72.58,1.3,1.3,1.3Z"/>
  <path class="cls-1" d="M96.46,93.5c.72,0,1.3-.58,1.3-1.3v-1.37c0-.72-.58-1.3-1.3-1.3s-1.3.58-1.3,1.3v1.37c0,.72.58,1.3,1.3,1.3Z"/>
  <path class="cls-1" d="M141.43,24.55h-26.36V8.42c0-4.37-3.56-7.93-7.93-7.93H42.86c-4.37,0-7.93,3.56-7.93,7.93v16.13H8.57c-4.72,0-8.57,3.84-8.57,8.57v81.36c0,4.73,3.85,8.57,8.57,8.57h132.86c4.73,0,8.57-3.84,8.57-8.57V33.12c0-4.72-3.84-8.57-8.57-8.57ZM39.02,8.42c0-2.12,1.72-3.84,3.84-3.84h64.28c2.12,0,3.84,1.72,3.84,3.84v16.13h-6.51v-10.92c0-2.25-1.83-4.07-4.07-4.07h-50.8c-2.25,0-4.07,1.83-4.07,4.07v10.92h-6.51V8.42ZM100.39,13.63v10.92h-50.78v-10.91s50.78-.01,50.78-.01ZM145.91,114.47c0,2.47-2.01,4.48-4.48,4.48H8.57c-2.47,0-4.48-2.01-4.48-4.48v-33c1.31.81,2.84,1.3,4.48,1.3h13.76v15.07c0,4.04,3.28,7.32,7.32,7.32h4.37c4.04,0,7.32-3.28,7.32-7.32v-15.07h67.31v15.07c0,4.04,3.28,7.32,7.32,7.32h4.37c4.04,0,7.32-3.28,7.32-7.32v-15.07h13.76c1.65,0,3.18-.49,4.48-1.3v33ZM26.42,97.85v-15.07h10.84v15.07c0,1.78-1.45,3.24-3.23,3.24h-4.37c-1.78,0-3.23-1.45-3.23-3.24ZM112.74,97.85v-15.07h10.84v15.07c0,1.78-1.45,3.24-3.23,3.24h-4.37c-1.78,0-3.23-1.45-3.23-3.24ZM145.91,74.21c0,2.47-2.01,4.48-4.48,4.48H8.57c-2.47,0-4.48-2.01-4.48-4.48v-1.41c.52.16,1.05.28,1.62.28h5.39c1.13,0,2.04-.91,2.04-2.04s-.91-2.04-2.04-2.04h-5.39c-.73,0-1.32-.59-1.32-1.32v-5.38c0-.38-.13-.71-.31-1.01v-28.16c0-2.47,2.01-4.48,4.48-4.48h132.86c2.47,0,4.48,2.01,4.48,4.48v41.09Z"/>
</svg>