<?xml version="1.0" encoding="UTF-8"?>
<svg id="Layer_1" data-name="Layer 1" xmlns="http://www.w3.org/2000/svg" viewBox="0 0 150 141.79">
  <defs>
    <style>
      .cls-1 {
        fill: #909c86;
      }
    </style>
  </defs>
  <path class="cls-1" d="M133.93,35.32c-.16-.42-4.09-10.4-13.42-11.8-9.75-1.45-13.5,3.4-13.66,3.61l-.29.38v75.57l2.59-3.39c3.63-4.76,7.68-5.78,10.44-5.8h.08c3.62,0,7.29,1.71,9.39,4.37,1.31,1.66,2.07,4.04,2.09,6.56v.26c-.01,1-.13,2-.37,2.98-1.38,5.84-6.97,10.08-13.3,10.08H13.63v-62.8h36.17v-2.88H10.75v68.56h106.73c7.65,0,14.43-5.17,16.11-12.3.28-1.19.43-2.41.44-3.62,0-.1,0-.19,0-.28V35.57l-.1-.25ZM131.14,96.27c-2.64-3.21-7.11-5.26-11.48-5.26h-.1c-2.74.02-6.49.82-10.12,4.1V28.56c.92-.87,4.03-3.17,10.64-2.18,6.95,1.04,10.45,8.35,11.06,9.75v60.14Z"/>
  <path class="cls-1" d="M98.79,55.35h3.14v-2.88h-3.14v-14.23l-7.63-20.82-7.63,20.82v76.21h15.26v-59.1ZM95.9,100.26v3.47h-9.49v-48.39h9.49v42.03h-4.75v2.88h4.75ZM86.41,52.46v-11.94l4.75,3.83,4.75-3.83v11.94h-9.49ZM91.16,25.15l4.43,12.26-4.43,3.58-4.43-3.58,4.43-12.26ZM86.41,111.57v-4.95h9.49v4.95h-9.49Z"/>
  <path class="cls-1" d="M78.28,114.45V8.82L18.34,114.45h59.95ZM75.4,35.74h-4.03v2.88h4.03v3.91h-6.28v2.88h6.28v3.91h-4.03v2.88h4.03v3.19h-6.28v2.88h6.28v3.91h-4.03v2.88h4.03v4.04h-6.28v2.88h6.28v3.65h-4.03v2.88h4.03v3.65h-6.28v2.88h6.28v3.65h-4.03v2.88h4.03v3.65h-6.28v2.88h6.28v3.65h-4.03v2.88h4.03v6.9h-7.21v-3.79h-2.88v3.79h-3.75v-6.39h-2.88v6.39h-3.75v-3.79h-2.88v3.79h-3.75v-6.39h-2.88v6.39h-3.75v-3.79h-2.88v3.79h-15.48L75.4,19.75v15.99Z"/>
  <path class="cls-1" d="M65.3,57.99l-24.68,43.48h24.68v-43.48ZM62.42,98.59h-16.84l16.84-29.67v29.67Z"/>
</svg>