<svg width="51" height="70" viewBox="0 0 51 70" fill="none" xmlns="http://www.w3.org/2000/svg">
<g clip-path="url(#clip0_868_12)">
<path d="M46.9395 63.4061L36.5889 61.2547L30.6797 69.9487L25.6503 57.6567L20.3903 70.0001L14.6034 61.2174L4.22461 63.2241L11.5029 46.1347L11.9122 45.1734C12.251 45.2341 12.6462 45.2387 13.0602 45.2481C13.7895 45.2621 14.5469 45.2807 15.1821 45.6027C15.8078 45.9201 16.2548 46.5127 16.697 47.0867C17.1346 47.6607 17.5486 48.2021 18.0473 48.3607C18.5225 48.5147 19.1718 48.3187 19.8539 48.1134C20.4279 47.9407 21.016 47.7587 21.5994 47.7587C21.7359 47.7587 21.8629 47.7681 21.9993 47.7914C22.6862 47.8987 23.3026 48.3234 23.8907 48.7341C24.4882 49.1447 25.0575 49.5367 25.5844 49.5367C26.1113 49.5367 26.6806 49.1401 27.2781 48.7341C27.8709 48.3234 28.4825 47.8987 29.1694 47.7914C29.8846 47.6841 30.6091 47.8987 31.3148 48.1134C32.0017 48.3187 32.6463 48.5147 33.1215 48.3607C33.6155 48.2021 34.0295 47.6607 34.4717 47.0867C34.9093 46.5127 35.3657 45.9201 35.9914 45.6027C36.6218 45.2807 37.3793 45.2667 38.1133 45.2481C38.6073 45.2387 39.0825 45.2294 39.4682 45.1221L39.8587 46.0787L46.9442 63.4014L46.9395 63.4061Z" fill="#909C86"/>
<path d="M50.0026 27.6173C50.4919 26.9173 51 26.1986 51 25.3539C51 24.5093 50.4919 23.7859 50.0026 23.0906C49.6403 22.5726 49.3016 22.0873 49.2263 21.6346C49.1557 21.1633 49.3298 20.5846 49.5227 19.9686C49.7674 19.1706 50.0167 18.3399 49.7626 17.5606C49.5039 16.7626 48.8029 16.2353 48.1207 15.7219C47.6126 15.3439 47.1327 14.9799 46.921 14.5693C46.7045 14.1493 46.6904 13.5426 46.6763 12.9079C46.6575 12.0679 46.634 11.1953 46.1447 10.5326C45.6554 9.86059 44.8226 9.57592 44.0228 9.29592C43.4206 9.08592 42.8466 8.88992 42.5079 8.55859C42.1785 8.23192 41.9762 7.66259 41.7692 7.06059C41.4916 6.26259 41.1999 5.44125 40.5224 4.95125C39.8449 4.46592 38.9746 4.44725 38.1277 4.42859C37.4831 4.41459 36.8762 4.40525 36.4528 4.18592C36.0341 3.97592 35.6718 3.49992 35.286 2.99592C34.7732 2.31925 34.2415 1.62392 33.437 1.36259C32.6513 1.11059 31.8139 1.36259 31.0093 1.60525C30.3883 1.79192 29.8002 1.96925 29.325 1.88992C28.8734 1.82459 28.3841 1.47925 27.8618 1.11992C27.1608 0.639254 26.4316 0.135254 25.58 0.135254C24.7284 0.135254 23.9992 0.639254 23.2982 1.11992C22.7806 1.47925 22.2866 1.81992 21.835 1.88992C21.3551 1.96459 20.7717 1.78725 20.1507 1.60525C19.3461 1.36259 18.5134 1.11525 17.723 1.36259C16.9232 1.62392 16.3868 2.31925 15.874 2.99592C15.4882 3.49992 15.1259 3.97592 14.7119 4.18592C14.2885 4.40059 13.6769 4.40992 13.0323 4.42859C12.1854 4.44725 11.3103 4.46592 10.6376 4.95125C9.96007 5.44125 9.67308 6.26259 9.39549 7.06059C9.18378 7.65792 8.98147 8.22725 8.65214 8.55859C8.3181 8.88992 7.74882 9.08592 7.13719 9.29592C6.33738 9.57125 5.50463 9.86059 5.01533 10.5326C4.52603 11.1999 4.50251 12.0679 4.48839 12.9079C4.47428 13.5426 4.46487 14.1493 4.24374 14.5693C4.03203 14.9799 3.55214 15.3439 3.03931 15.7219C2.36182 16.2353 1.6561 16.7626 1.39734 17.5606C1.13858 18.3399 1.39264 19.1706 1.64199 19.9686C1.83018 20.5846 2.00426 21.1633 1.92898 21.6346C1.85841 22.0873 1.51496 22.5726 1.15269 23.0906C0.663392 23.7859 0.155273 24.5046 0.155273 25.3539C0.155273 26.2033 0.663392 26.9219 1.15269 27.6173C1.51496 28.1306 1.85371 28.6159 1.92898 29.0686C1.99955 29.5399 1.82548 30.1186 1.64199 30.7346C1.39264 31.5373 1.13858 32.3633 1.39734 33.1473C1.6561 33.9406 2.36182 34.4679 3.03931 34.9813C3.55214 35.3593 4.03203 35.7233 4.24374 36.1339C4.46016 36.5539 4.46957 37.1606 4.48839 37.7953C4.50251 38.6353 4.52603 39.5079 5.01533 40.1706C5.50463 40.8473 6.33738 41.1273 7.13719 41.4073C7.74882 41.6173 8.3181 41.8133 8.65214 42.1446C8.98147 42.4713 9.18378 43.0406 9.39549 43.6426C9.66837 44.4406 9.96007 45.2619 10.6376 45.7519C10.901 45.9433 11.1974 46.0599 11.5032 46.1346C11.9878 46.2513 12.5148 46.2606 13.0323 46.2746C13.6769 46.2886 14.2885 46.2979 14.7119 46.5173C15.1259 46.7273 15.4882 47.2033 15.874 47.7073C16.3868 48.3839 16.9232 49.0793 17.723 49.3406C18.5134 49.5973 19.3461 49.3406 20.1507 49.0979C20.7717 48.9113 21.3551 48.7339 21.835 48.8133C22.2866 48.8833 22.7759 49.2239 23.2982 49.5833C23.9992 50.0686 24.7284 50.5726 25.58 50.5726C26.4316 50.5726 27.1608 50.0686 27.8618 49.5833C28.3841 49.2239 28.8734 48.8879 29.325 48.8133C29.8049 48.7386 30.3883 48.9159 31.0093 49.0979C31.8139 49.3453 32.6513 49.5879 33.437 49.3406C34.2415 49.0793 34.7732 48.3839 35.286 47.7073C35.6718 47.2033 36.0341 46.7273 36.4528 46.5173C36.8762 46.3026 37.4831 46.2933 38.1277 46.2746C38.7158 46.2653 39.318 46.2513 39.8543 46.0786C40.0943 46.0039 40.3201 45.9013 40.5271 45.7519C41.2046 45.2619 41.4916 44.4406 41.7739 43.6426C41.9809 43.0453 42.1832 42.4759 42.5126 42.1446C42.8466 41.8133 43.4206 41.6173 44.0275 41.4073C44.8273 41.1319 45.6601 40.8473 46.1494 40.1706C46.6387 39.5033 46.6622 38.6353 46.681 37.7953C46.6904 37.1606 46.7045 36.5539 46.9257 36.1339C47.1374 35.7233 47.6173 35.3593 48.1254 34.9813C48.8076 34.4679 49.5086 33.9406 49.7674 33.1473C50.0261 32.3633 49.7721 31.5373 49.5274 30.7346C49.3345 30.1186 49.1604 29.5399 49.231 29.0686C49.3016 28.6159 49.645 28.1306 50.0073 27.6173H50.0026ZM49.1557 27.0293C48.7417 27.6173 48.3183 28.2286 48.2101 28.9099C48.0972 29.6099 48.3183 30.3333 48.53 31.0333C48.737 31.7146 48.9346 32.3539 48.7794 32.8299C48.6194 33.3199 48.0736 33.7306 47.4949 34.1599C46.9162 34.5939 46.3187 35.0466 46.0035 35.6673C45.6789 36.2973 45.6648 37.0439 45.646 37.7719C45.6318 38.4859 45.613 39.1626 45.3166 39.5686C45.0108 39.9793 44.3662 40.1986 43.6841 40.4366C42.9972 40.6793 42.282 40.9219 41.7833 41.4166C41.2799 41.9159 41.0353 42.6206 40.7953 43.3066C40.5554 43.9833 40.3342 44.6226 39.9155 44.9213C39.7885 45.0146 39.6379 45.0799 39.4591 45.1219C39.0781 45.2293 38.6029 45.2386 38.1042 45.2479C37.3702 45.2619 36.6127 45.2806 35.9823 45.6026C35.3566 45.9199 34.9049 46.5126 34.4627 47.0866C34.0251 47.6606 33.6111 48.2019 33.1124 48.3606C32.6372 48.5146 31.9926 48.3186 31.3057 48.1133C30.6047 47.8986 29.8755 47.6839 29.1603 47.7913C28.4734 47.8986 27.8618 48.3233 27.269 48.7339C26.6715 49.1446 26.1069 49.5366 25.5753 49.5366C25.0436 49.5366 24.4791 49.1399 23.8816 48.7339C23.2935 48.3233 22.6771 47.8986 21.9902 47.7913C21.8538 47.7726 21.7268 47.7586 21.5903 47.7586C21.0069 47.7586 20.4188 47.9359 19.8448 48.1133C19.1627 48.3186 18.5134 48.5146 18.0382 48.3606C17.5442 48.2019 17.1302 47.6606 16.6879 47.0866C16.2504 46.5126 15.7987 45.9199 15.173 45.6026C14.5378 45.2806 13.7804 45.2666 13.0511 45.2479C12.6371 45.2386 12.2466 45.2339 11.9032 45.1733C11.6444 45.1266 11.4186 45.0519 11.2351 44.9213C10.821 44.6226 10.5952 43.9833 10.3553 43.3066C10.1153 42.6206 9.87068 41.9113 9.36727 41.4166C8.86385 40.9266 8.15343 40.6793 7.46653 40.4366C6.78433 40.1986 6.13978 39.9793 5.83867 39.5686C5.53286 39.1579 5.52345 38.4813 5.50933 37.7719C5.49522 37.0439 5.47169 36.2973 5.15177 35.6673C4.83184 35.0466 4.23433 34.5986 3.65564 34.1599C3.07695 33.7306 2.5312 33.3199 2.37123 32.8299C2.21597 32.3539 2.41358 31.7146 2.62059 31.0333C2.8323 30.3379 3.05343 29.6146 2.94051 28.9099C2.83701 28.2286 2.40887 27.6173 1.99485 27.0293C1.57612 26.4366 1.18562 25.8766 1.18562 25.3539C1.18562 24.8313 1.57612 24.2666 1.99485 23.6739C2.40887 23.0859 2.83701 22.4793 2.94051 21.7933C3.05343 21.0933 2.8323 20.3699 2.62059 19.6699C2.41358 18.9886 2.21597 18.3493 2.37123 17.8733C2.5312 17.3879 3.07695 16.9773 3.65564 16.5433C4.23433 16.1093 4.83184 15.6566 5.15177 15.0359C5.47169 14.4059 5.49051 13.6593 5.50933 12.9313C5.52345 12.2173 5.53286 11.5406 5.83867 11.1393C6.13978 10.7239 6.78433 10.5046 7.46653 10.2666C8.15343 10.0286 8.86856 9.78592 9.36727 9.28659C9.87068 8.78725 10.1153 8.08259 10.3553 7.39659C10.5952 6.71992 10.821 6.08525 11.2351 5.78192C11.6491 5.48325 12.3266 5.46925 13.0464 5.45525C13.7757 5.44125 14.5331 5.42259 15.1683 5.10059C15.794 4.78325 16.241 4.19059 16.6832 3.61659C17.1208 3.04259 17.5348 2.50592 18.0335 2.34725C18.5134 2.18859 19.1579 2.38459 19.8401 2.59459C20.5459 2.80459 21.2704 3.01925 21.9855 2.91192C22.6724 2.80459 23.2888 2.37992 23.8769 1.97392C24.4744 1.55859 25.0436 1.17125 25.5706 1.17125C26.0975 1.17125 26.6668 1.55859 27.2643 1.97392C27.8571 2.37992 28.4687 2.80459 29.1556 2.91192C29.8708 3.01925 30.5953 2.80459 31.301 2.59459C31.9832 2.38459 32.6325 2.18859 33.1077 2.34725C33.6017 2.50592 34.0157 3.04259 34.4579 3.61659C34.8955 4.19059 35.3519 4.78325 35.9776 5.10059C36.608 5.42259 37.3655 5.43659 38.0995 5.45525C38.8193 5.46925 39.4921 5.48792 39.9061 5.78192C40.3248 6.08525 40.546 6.71992 40.7859 7.39659C41.0258 8.08259 41.2705 8.79192 41.7739 9.28659C42.2773 9.78592 42.9877 10.0286 43.6746 10.2666C44.3568 10.5046 45.0014 10.7239 45.3072 11.1393C45.6083 11.5453 45.6224 12.2219 45.6365 12.9313C45.6507 13.6593 45.6695 14.4059 45.9941 15.0359C46.3093 15.6566 46.9068 16.1046 47.4855 16.5433C48.0642 16.9773 48.61 17.3879 48.7699 17.8733C48.9252 18.3493 48.7276 18.9886 48.5206 19.6699C48.3089 20.3653 48.0877 21.0886 48.2007 21.7933C48.3089 22.4793 48.7323 23.0859 49.1463 23.6739C49.565 24.2666 49.9555 24.8266 49.9555 25.3539C49.9555 25.8813 49.565 26.4366 49.1463 27.0293H49.1557Z" fill="#909C86"/>
<path d="M25.5802 8.12939C16.006 8.12939 8.21484 15.8574 8.21484 25.3541C8.21484 34.8507 16.0107 42.5741 25.5802 42.5741C35.1498 42.5741 42.9457 34.8461 42.9457 25.3541C42.9457 15.8621 35.1545 8.12939 25.5802 8.12939ZM25.5802 41.5521C16.5753 41.5521 9.24519 34.2861 9.24519 25.3541C9.24519 16.4221 16.5753 9.15139 25.5802 9.15139C34.5852 9.15139 41.9153 16.4174 41.9153 25.3541C41.9153 34.2907 34.5899 41.5521 25.5802 41.5521Z" fill="#909C86"/>
<path d="M36.1095 18.5828L23.7641 33.9034L22.4467 35.5414L20.7671 34.1461L15.0508 29.3861L18.7629 25.7088L21.9574 29.4794L31.3247 15.1621L36.1095 18.5828Z" fill="#909C86"/>
</g>
<defs>
<clipPath id="clip0_868_12">
<rect width="51" height="70" fill="white"/>
</clipPath>
</defs>
</svg>
