<svg width="56" height="41" viewBox="0 0 56 41" fill="none" xmlns="http://www.w3.org/2000/svg">
<g clip-path="url(#clip0_868_17)">
<path d="M12.5216 15.3302C15.7286 15.3154 18.9355 15.7578 21.2278 16.5392C23.5536 17.3059 24.9835 18.397 25.0357 19.5249C25.1179 20.6492 23.8448 21.7918 21.5152 22.6102C19.1894 23.4285 15.8779 23.9113 12.5216 23.915C9.16535 23.915 5.85388 23.4285 3.52802 22.6102C1.19095 21.7918 -0.0783817 20.6492 0.00375165 19.5249C0.0560183 18.397 1.48589 17.3059 3.81549 16.5392C6.10775 15.7615 9.31469 15.3154 12.5216 15.3302ZM12.5216 15.9458C9.31469 15.9494 6.15628 16.3733 3.93122 17.0921C2.41548 17.5824 1.41122 18.2643 0.922152 18.7472C0.634685 19.031 0.556285 19.4696 0.754152 19.8198C1.19468 20.5976 2.43042 21.3237 4.21869 21.8656C6.40642 22.5475 9.46402 22.9345 12.5216 22.9235C15.5792 22.9345 18.6331 22.5475 20.8246 21.8656C23.0459 21.1947 24.0725 20.24 24.1285 19.2522C24.1285 18.5776 23.3408 17.8109 21.112 17.0921C18.8907 16.3733 15.7323 15.9494 12.5216 15.9458Z" fill="#909C86"/>
<path d="M24.4236 20.0154V23.9558C24.3042 24.4645 23.8487 24.9621 23.102 25.4081V21.5488H22.4375V25.7619C21.9671 25.9831 21.4295 26.1895 20.821 26.3701C20.7612 26.3886 20.694 26.4033 20.6343 26.4218V22.5551H19.8391V26.6392C19.0028 26.8456 18.0844 27.0152 17.1063 27.1405V23.038H16.1767V27.2437C15.165 27.347 14.1084 27.4022 13.0482 27.417V23.5245H11.9879V27.417C10.9239 27.4059 9.87111 27.347 8.85937 27.2437V23.038H7.92977V27.1368C6.95537 27.0078 6.03324 26.842 5.19697 26.6355V22.5514H4.40177V26.4181C4.34204 26.3996 4.27484 26.3849 4.21884 26.3665C3.61031 26.1822 3.07271 25.9757 2.60231 25.7546V21.5451H1.93777V25.4007C1.18737 24.9473 0.728173 24.446 0.616173 23.9337V20.0117L0.00390625 19.492V24.0295C0.00390625 24.0295 0.00390625 24.0332 0.00390625 24.0369V24.1327L0.0113729 24.1401C0.0151062 25.2275 1.26577 26.3222 3.52817 27.1147C5.85404 27.933 9.16551 28.4196 12.5218 28.4196C15.878 28.4159 19.1895 27.933 21.5154 27.1147C23.7703 26.3222 25.0247 25.2275 25.0284 24.1401L25.0359 24.1327V19.4883L24.4236 20.0117V20.0154Z" fill="#909C86"/>
<path d="M24.4236 24.2063V28.1467C24.3042 28.6554 23.8487 29.153 23.102 29.599V25.7397H22.4375V29.9529C21.9671 30.174 21.4295 30.3805 20.821 30.5611C20.7612 30.5795 20.694 30.5942 20.6343 30.6127V26.746H19.8391V30.8301C19.0028 31.0366 18.0844 31.2061 17.1063 31.3315V27.2289H16.1767V31.4347C15.165 31.5379 14.1084 31.5932 13.0482 31.6079V27.7154H11.9879V31.6079C10.9239 31.5968 9.87111 31.5379 8.85937 31.4347V27.2289H7.92977V31.3278C6.95537 31.1988 6.03324 31.0329 5.19697 30.8265V26.7423H4.40177V30.609C4.34204 30.5906 4.27484 30.5758 4.21884 30.5574C3.61031 30.3731 3.07271 30.1667 2.60231 29.9455V25.736H1.93777V29.5916C1.18737 29.1382 0.728173 28.6369 0.616173 28.1246V24.2026L0.00390625 23.6829V28.2204C0.00390625 28.2204 0.00390625 28.2241 0.00390625 28.2278V28.3236L0.0113729 28.331C0.0151062 29.4184 1.26577 30.5131 3.52817 31.3056C5.85404 32.124 9.16551 32.6105 12.5218 32.6105C15.878 32.6068 19.1895 32.124 21.5154 31.3056C23.7703 30.5131 25.0247 29.4184 25.0284 28.331L25.0359 28.3236V23.6792L24.4236 24.2026V24.2063Z" fill="#909C86"/>
<path d="M24.4236 28.4011V32.3415C24.3042 32.8502 23.8487 33.3478 23.102 33.7938V29.9345H22.4375V34.1477C21.9671 34.3689 21.4295 34.5753 20.821 34.7559C20.7612 34.7743 20.694 34.7891 20.6343 34.8075V30.9408H19.8391V35.025C19.0028 35.2314 18.0844 35.4009 17.1063 35.5263V31.4237H16.1767V35.6295C15.165 35.7327 14.1084 35.788 13.0482 35.8027V31.9103H11.9879V35.8027C10.9239 35.7917 9.87111 35.7327 8.85937 35.6295V31.4237H7.92977V35.5226C6.95537 35.3936 6.03324 35.2277 5.19697 35.0213V30.9371H4.40177V34.8038C4.34204 34.7854 4.27484 34.7706 4.21884 34.7522C3.61031 34.5679 3.07271 34.3615 2.60231 34.1403V29.9308H1.93777V33.7865C1.18737 33.3331 0.728173 32.8318 0.616173 32.3194V28.3974L0.00390625 27.8777V32.4152C0.00390625 32.4152 0.00390625 32.4189 0.00390625 32.4226V32.5185L0.0113729 32.5258C0.0151062 33.6132 1.26577 34.708 3.52817 35.5005C5.85404 36.3188 9.16551 36.8053 12.5218 36.8053C15.878 36.8016 19.1895 36.3188 21.5154 35.5005C23.7703 34.708 25.0247 33.6132 25.0284 32.5258L25.0359 32.5185V27.874L24.4236 28.3974V28.4011Z" fill="#909C86"/>
<path d="M24.4236 32.592V36.5324C24.3042 37.0411 23.8487 37.5387 23.102 37.9847V34.1254H22.4375V38.3386C21.9671 38.5598 21.4295 38.7662 20.821 38.9468C20.7612 38.9652 20.694 38.98 20.6343 38.9984V35.1317H19.8391V39.2159C19.0028 39.4223 18.0844 39.5919 17.1063 39.7172V35.6146H16.1767V39.8204C15.165 39.9236 14.1084 39.9789 13.0482 39.9936V36.1012H11.9879V39.9936C10.9239 39.9826 9.87111 39.9236 8.85937 39.8204V35.6146H7.92977V39.7135C6.95537 39.5845 6.03324 39.4186 5.19697 39.2122V35.1281H4.40177V38.9947C4.34204 38.9763 4.27484 38.9616 4.21884 38.9431C3.61031 38.7588 3.07271 38.5524 2.60231 38.3312V34.1218H1.93777V37.9774C1.18737 37.524 0.728173 37.0227 0.616173 36.5103V32.5884L0.00390625 32.0686V36.6062C0.00390625 36.6062 0.00390625 36.6098 0.00390625 36.6135V36.7094L0.0113729 36.7167C0.0151062 37.8041 1.26577 38.8989 3.52817 39.6914C5.85404 40.5097 9.16551 40.9963 12.5218 40.9963C15.878 40.9926 19.1895 40.5097 21.5154 39.6914C23.7703 38.8989 25.0247 37.8041 25.0284 36.7167L25.0359 36.7094V32.0649L24.4236 32.5884V32.592Z" fill="#909C86"/>
<path d="M40.7871 -2.68394e-05C44.6474 -0.0184571 48.5076 0.516021 51.2703 1.45597C54.0703 2.37748 55.7951 3.6934 55.8548 5.04987C55.9556 6.40265 54.4212 7.77755 51.6138 8.76541C48.8138 9.74959 44.8266 10.332 40.7871 10.3394C36.7476 10.3394 32.7604 9.75328 29.9567 8.76541C27.1455 7.78124 25.6148 6.40634 25.7156 5.04987C25.7791 3.6934 27.5002 2.37748 30.3039 1.45597C33.0628 0.516021 36.9231 -0.0184571 40.7871 -2.68394e-05ZM40.7871 0.707696C36.9231 0.711382 33.1226 1.43753 30.4458 2.30007C28.8778 2.80506 27.7615 3.43169 27.1082 3.92931C26.4996 4.39375 26.4324 5.27841 26.9439 5.84237C27.6383 6.60907 28.9823 7.31679 30.793 7.86233C33.4287 8.68432 37.106 9.14876 40.7871 9.13402C44.4682 9.14876 48.1455 8.68432 50.7812 7.86233C52.7636 7.26519 54.1786 6.48006 54.8058 5.62858C55.2015 5.0941 55.0783 4.34583 54.5519 3.93668C53.9098 3.43538 52.7636 2.82349 51.1247 2.29639C48.4479 1.43385 44.6474 0.707696 40.7834 0.70401L40.7871 0.707696Z" fill="#909C86"/>
<path d="M55.1156 10.6894V15.4334C54.9738 16.0489 54.4212 16.6424 53.5252 17.1843V12.5361H52.7263V17.6081C52.1588 17.8735 51.513 18.1205 50.7812 18.3417C50.7103 18.3638 50.6282 18.3822 50.5572 18.4043V13.7488H49.5978V18.666C48.5935 18.913 47.4847 19.1194 46.3087 19.2706V14.3349H45.1887V19.3996C43.9679 19.5212 42.7023 19.5912 41.4218 19.606V14.9173H40.145V19.606C38.8644 19.5912 37.5988 19.5212 36.378 19.3996V14.3349H35.258V19.2706C34.082 19.1157 32.9732 18.913 31.969 18.666V13.7488H31.0095V18.4043C30.9386 18.3822 30.8602 18.3638 30.7892 18.3417C30.0575 18.1205 29.4079 17.8699 28.8404 17.6045V12.5361H28.0415V17.1806C27.138 16.635 26.5855 16.0342 26.4511 15.4113V10.6894L25.7119 10.0591V15.5218V15.5292V15.6472L25.7194 15.6545C25.7231 16.9668 27.2314 18.2827 29.9492 19.2337C32.7492 20.2179 36.7364 20.804 40.7796 20.8076C44.8191 20.8003 48.8063 20.2216 51.6063 19.2337C54.3204 18.279 55.8287 16.9631 55.8362 15.6545L55.8474 15.6472V10.0554L55.1082 10.6857L55.1156 10.6894Z" fill="#909C86"/>
<path d="M55.1156 5.64328V10.3872C54.9738 11.0028 54.4212 11.5963 53.5252 12.1381V7.48999H52.7263V12.562C52.1588 12.8274 51.513 13.0744 50.7812 13.2955C50.7103 13.3176 50.6282 13.3361 50.5572 13.3582V8.70271H49.5978V13.6199C48.5935 13.8669 47.4847 14.0733 46.3087 14.2244V9.28879H45.1887V14.3534C43.9679 14.4751 42.7023 14.5451 41.4218 14.5598V9.87119H40.145V14.5598C38.8644 14.5451 37.5988 14.4751 36.378 14.3534V9.28879H35.258V14.2244C34.082 14.0696 32.9732 13.8669 31.969 13.6199V8.70271H31.0095V13.3582C30.9386 13.3361 30.8602 13.3176 30.7892 13.2955C30.0575 13.0744 29.4079 12.8237 28.8404 12.5583V7.48999H28.0415V12.1344C27.138 11.5889 26.5855 10.9881 26.4511 10.3651V5.64328L25.7119 5.01296V10.4757V10.4831V10.601L25.7194 10.6084C25.7231 11.9206 27.2314 13.2366 29.9492 14.1876C32.7492 15.1717 36.7364 15.7578 40.7796 15.7615C44.8191 15.7541 48.8063 15.1754 51.6063 14.1876C54.3204 13.2329 55.8287 11.9169 55.8362 10.6084L55.8474 10.601V5.00928L55.1082 5.63959L55.1156 5.64328Z" fill="#909C86"/>
<path d="M55.1156 15.7358V20.4798C54.9738 21.0953 54.4212 21.6888 53.5252 22.2306V17.5825H52.7263V22.6545C52.1588 22.9199 51.513 23.1669 50.7812 23.3881C50.7103 23.4102 50.6282 23.4286 50.5572 23.4507V18.7952H49.5978V23.7124C48.5935 23.9594 47.4847 24.1658 46.3087 24.3169V19.3813H45.1887V24.446C43.9679 24.5676 42.7023 24.6376 41.4218 24.6524V19.9637H40.145V24.6524C38.8644 24.6376 37.5988 24.5676 36.378 24.446V19.3813H35.258V24.3169C34.082 24.1621 32.9732 23.9594 31.969 23.7124V18.7952H31.0095V23.4507C30.9386 23.4286 30.8602 23.4102 30.7892 23.3881C30.0575 23.1669 29.4079 22.9162 28.8404 22.6508V17.5825H28.0415V22.227C27.138 21.6814 26.5855 21.0806 26.4511 20.4576V15.7358L25.7119 15.1055V20.5682V20.5756V20.6936L25.7194 20.7009C25.7231 22.0132 27.2314 23.3291 29.9492 24.2801C32.7492 25.2643 36.7364 25.8503 40.7796 25.854C44.8191 25.8467 48.8063 25.2679 51.6063 24.2801C54.3204 23.3254 55.8287 22.0095 55.8362 20.7009L55.8474 20.6936V15.1018L55.1082 15.7321L55.1156 15.7358Z" fill="#909C86"/>
<path d="M55.1156 20.7856V25.5296C54.9738 26.1451 54.4212 26.7386 53.5252 27.2804V22.6323H52.7263V27.7043C52.1588 27.9697 51.513 28.2167 50.7812 28.4379C50.7103 28.46 50.6282 28.4784 50.5572 28.5005V23.845H49.5978V28.7622C48.5935 29.0092 47.4847 29.2156 46.3087 29.3668V24.4311H45.1887V29.4958C43.9679 29.6174 42.7023 29.6874 41.4218 29.7022V25.0135H40.145V29.7022C38.8644 29.6874 37.5988 29.6174 36.378 29.4958V24.4311H35.258V29.3668C34.082 29.2119 32.9732 29.0092 31.969 28.7622V23.845H31.0095V28.5005C30.9386 28.4784 30.8602 28.46 30.7892 28.4379C30.0575 28.2167 29.4079 27.9661 28.8404 27.7007V22.6323H28.0415V27.2768C27.138 26.7312 26.5855 26.1304 26.4511 25.5075V20.7856L25.7119 20.1553V25.618V25.6254V25.7434L25.7194 25.7507C25.7231 27.063 27.2314 28.3789 29.9492 29.3299C32.7492 30.3141 36.7364 30.9001 40.7796 30.9038C44.8191 30.8965 48.8063 30.3178 51.6063 29.3299C54.3204 28.3752 55.8287 27.0593 55.8362 25.7507L55.8474 25.7434V20.1516L55.1082 20.7819L55.1156 20.7856Z" fill="#909C86"/>
<path d="M55.1156 25.8318V30.5757C54.9738 31.1913 54.4212 31.7847 53.5252 32.3266V27.6785H52.7263V32.7505C52.1588 33.0159 51.513 33.2628 50.7812 33.484C50.7103 33.5061 50.6282 33.5246 50.5572 33.5467V28.8912H49.5978V33.8084C48.5935 34.0553 47.4847 34.2618 46.3087 34.4129V29.4773H45.1887V34.5419C43.9679 34.6635 42.7023 34.7336 41.4218 34.7483V30.0597H40.145V34.7483C38.8644 34.7336 37.5988 34.6635 36.378 34.5419V29.4773H35.258V34.4129C34.082 34.2581 32.9732 34.0553 31.969 33.8084V28.8912H31.0095V33.5467C30.9386 33.5246 30.8602 33.5061 30.7892 33.484C30.0575 33.2628 29.4079 33.0122 28.8404 32.7468V27.6785H28.0415V32.3229C27.138 31.7774 26.5855 31.1765 26.4511 30.5536V25.8318L25.7119 25.2014V30.6642V30.6715V30.7895L25.7194 30.7969C25.7231 32.1091 27.2314 33.425 29.9492 34.376C32.7492 35.3602 36.7364 35.9463 40.7796 35.95C44.8191 35.9426 48.8063 35.3639 51.6063 34.376C54.3204 33.4213 55.8287 32.1054 55.8362 30.7969L55.8474 30.7895V25.1978L55.1082 25.8281L55.1156 25.8318Z" fill="#909C86"/>
<path d="M55.1156 30.8781V35.6221C54.9738 36.2377 54.4212 36.8311 53.5252 37.373V32.7249H52.7263V37.7969C52.1588 38.0623 51.513 38.3092 50.7812 38.5304C50.7103 38.5525 50.6282 38.5709 50.5572 38.5931V33.9376H49.5978V38.8548C48.5935 39.1017 47.4847 39.3082 46.3087 39.4593V34.5237H45.1887V39.5883C43.9679 39.7099 42.7023 39.78 41.4218 39.7947V35.106H40.145V39.7947C38.8644 39.78 37.5988 39.7099 36.378 39.5883V34.5237H35.258V39.4593C34.082 39.3045 32.9732 39.1017 31.969 38.8548V33.9376H31.0095V38.5931C30.9386 38.5709 30.8602 38.5525 30.7892 38.5304C30.0575 38.3092 29.4079 38.0586 28.8404 37.7932V32.7249H28.0415V37.3693C27.138 36.8237 26.5855 36.2229 26.4511 35.6V30.8781L25.7119 30.2478V35.7106V35.7179V35.8359L25.7194 35.8433C25.7231 37.1555 27.2314 38.4714 29.9492 39.4224C32.7492 40.4066 36.7364 40.9927 40.7796 40.9964C44.8191 40.989 48.8063 40.4103 51.6063 39.4224C54.3204 38.4677 55.8287 37.1518 55.8362 35.8433L55.8474 35.8359V30.2441L55.1082 30.8745L55.1156 30.8781Z" fill="#909C86"/>
</g>
<defs>
<clipPath id="clip0_868_17">
<rect width="56" height="41" fill="white"/>
</clipPath>
</defs>
</svg>
