<?xml version="1.0" encoding="UTF-8"?>
<svg id="Layer_1" data-name="Layer 1" xmlns="http://www.w3.org/2000/svg" xmlns:xlink="http://www.w3.org/1999/xlink" viewBox="0 0 1190.55 460.8">
  <defs>
    <style>
      .cls-1, .cls-2, .cls-3 {
        fill: none;
      }

      .cls-2 {
        stroke: #a3aaa3;
        stroke-width: 3px;
      }

      .cls-4 {
        fill: #11763c;
      }

      .cls-5 {
        clip-path: url(#clippath-3);
      }

      .cls-6 {
        clip-path: url(#clippath-4);
      }

      .cls-7 {
        clip-path: url(#clippath-2);
      }

      .cls-8 {
        fill: #009542;
        font-family: Bison-Bold, Bison;
        font-size: 90px;
        font-weight: 700;
      }

      .cls-3 {
        stroke: #11763c;
        stroke-width: 4px;
      }

      .cls-9, .cls-10 {
        fill: #a3aaa3;
      }

      .cls-11 {
        fill: #5e5d5c;
      }

      .cls-12 {
        clip-path: url(#clippath);
      }

      .cls-10 {
        font-family: Roboto-Light, Roboto;
        font-size: 10px;
        font-weight: 300;
      }

      .cls-13 {
        fill: #1e1f1e;
      }
    </style>
    <clipPath id="clippath">
      <polyline class="cls-1" points="0 593.96 0 -247.93 1190.55 -247.93 1190.55 593.96"/>
    </clipPath>
    <clipPath id="clippath-2">
      <polyline class="cls-1" points="1190.55 593.96 1190.55 -247.93 0 -247.93 0 593.96"/>
    </clipPath>
    <clipPath id="clippath-3">
      <polyline class="cls-1" points="1190.55 593.96 1190.55 -247.93 0 -247.93 0 593.96"/>
    </clipPath>
    <clipPath id="clippath-4">
      <polyline class="cls-1" points="1190.55 593.96 1190.55 -247.93 0 -247.93 0 593.96"/>
    </clipPath>
  </defs>
  <g class="cls-12">
    <text class="cls-8" transform="translate(50.61 144.91)"><tspan x="0" y="0">1</tspan></text>
    <path class="cls-13" d="M95.79,104.24c-1.4,0-2.56-.41-3.48-1.23-1-1-1.5-2.31-1.5-3.93v-11.16c0-1.62.5-2.93,1.5-3.93.92-.82,2.08-1.23,3.48-1.23s2.6.41,3.48,1.23c1,.96,1.5,2.27,1.5,3.93v1.86h-3.3v-1.86c0-.74-.14-1.24-.42-1.5-.26-.24-.68-.36-1.26-.36s-.97.12-1.23.36c-.3.28-.45.78-.45,1.5v11.16c0,.72.15,1.22.45,1.5.26.24.67.36,1.23.36s1-.12,1.26-.36c.28-.26.42-.76.42-1.5v-2.7h3.3v2.7c0,1.66-.5,2.97-1.5,3.93-.88.82-2.04,1.23-3.48,1.23h0ZM109.44,91.58h-3.36v-8.58h-3.3v21h3.3v-9.12h3.36v9.12h3.3v-21h-3.3v8.58ZM119.97,104.24c-1.44,0-2.6-.41-3.48-1.23-1-.96-1.5-2.27-1.5-3.93v-16.08h3.3v16.08c0,.74.14,1.24.42,1.5.26.24.68.36,1.26.36s.97-.12,1.23-.36c.3-.28.45-.78.45-1.5v-16.08h3.3v16.08c0,1.62-.5,2.93-1.5,3.93-.92.82-2.08,1.23-3.48,1.23h0ZM130.23,100.67h3.78l.6,3.33h3.36l-4.2-21h-3.3l-4.2,21h3.36l.6-3.33ZM130.47,81.89l1.65-1.65,1.65,1.65h1.68l-1.68-3.3h-3.3l-1.65,3.3h1.65ZM130.8,97.37l1.32-7.53,1.32,7.53h-2.64ZM133.26,75.68c-.5,0-.95.1-1.35.3l1.35,1.35c.44,0,.81.15,1.11.45.3.3.45.67.45,1.11h1.65c0-.88-.32-1.64-.94-2.27-.63-.63-1.39-.95-2.26-.95h0ZM146.43,83v10.62l-5.04-10.62h-1.92v21h3.3v-10.65l5.04,10.65h1.92v-21h-3.3ZM161.64,104h-4.98v-21h4.53c1.42,0,2.57.39,3.45,1.17.52.46.9,1.02,1.14,1.68.26.64.39,1.38.39,2.22v1.95c0,1.42-.4,2.5-1.2,3.24,1.1.78,1.65,2.04,1.65,3.78v1.92c0,.86-.13,1.59-.39,2.19-.24.66-.62,1.22-1.14,1.68-.86.78-2.01,1.17-3.45,1.17h0ZM159.96,91.88h1.23c.56,0,.97-.12,1.23-.36.3-.3.45-.8.45-1.5v-1.95c0-.68-.14-1.16-.42-1.44-.24-.22-.66-.33-1.26-.33h-1.23v5.58ZM159.96,100.7h1.68c.6,0,1.02-.11,1.26-.33.28-.26.42-.73.42-1.41v-1.92c0-.72-.15-1.22-.45-1.5-.26-.24-.67-.36-1.23-.36h-1.68v5.52ZM168.6,104v-21h3.3v21h-3.3ZM168.78,106.7c0-.42.14-.78.43-1.07.29-.29.63-.43,1.04-.43s.74.14,1.03.43c.29.29.44.65.44,1.07s-.15.74-.44,1.03c-.29.29-.64.43-1.03.43s-.75-.15-1.04-.43c-.29-.29-.43-.64-.43-1.03h0Z"/>
    <path class="cls-13" d="M100.2,123v3.3h-3.36v17.7h-3.3v-17.7h-3.36v-3.3h10.02ZM108.33,123h3.3v21h-3.3v-9.12h-3.36v9.12h-3.3v-21h3.3v8.58h3.36v-8.58ZM118.74,144.24c1.44,0,2.6-.41,3.48-1.23,1-.96,1.5-2.27,1.5-3.93v-11.16c0-1.66-.5-2.97-1.5-3.93-.88-.82-2.04-1.23-3.48-1.23s-2.6.41-3.48,1.23c-1,.96-1.5,2.27-1.5,3.93v11.16c0,1.66.5,2.97,1.5,3.93.88.82,2.04,1.23,3.48,1.23h0ZM115.44,121.89l1.65-3.3h3.3l1.68,3.3h-1.68l-1.65-1.65-1.65,1.65h-1.65ZM118.74,126.06c.58,0,.99.12,1.23.36.3.26.45.76.45,1.5v11.16c0,.74-.15,1.24-.45,1.5-.24.24-.65.36-1.23.36s-.97-.12-1.23-.36c-.3-.28-.45-.78-.45-1.5v-11.16c0-.72.15-1.22.45-1.5.26-.24.67-.36,1.23-.36h0ZM135.99,123v21h-1.92l-5.04-10.65v10.65h-3.3v-21h1.92l5.04,10.62v-10.62h3.3ZM142.98,144.24c1.44,0,2.6-.41,3.48-1.23,1-.96,1.5-2.27,1.5-3.93v-7.23h-4.95v3.3h1.65v3.93c0,.74-.14,1.24-.42,1.5-.26.24-.68.36-1.26.36s-.97-.12-1.23-.36c-.3-.28-.45-.78-.45-1.5v-11.16c0-.72.15-1.22.45-1.5.26-.24.67-.36,1.23-.36s1,.12,1.26.36c.28.26.42.76.42,1.5v1.86h3.3v-1.86c0-1.66-.5-2.97-1.5-3.93-.88-.82-2.04-1.23-3.48-1.23s-2.56.41-3.48,1.23c-1,1-1.5,2.31-1.5,3.93v11.16c0,1.62.5,2.93,1.5,3.93.92.82,2.08,1.23,3.48,1.23h0ZM163.89,123v3.3h-3.36v17.7h-3.3v-17.7h-3.36v-3.3h10.02ZM168.66,144v-21h-3.3v21h3.3ZM181.2,123v21h-1.92l-5.04-10.65v10.65h-3.3v-21h1.92l5.04,10.62v-10.62h3.3Z"/>
    <path class="cls-13" d="M176.35,263.42c1,.92,1.5,2.22,1.5,3.9v10.8c0,.82-.12,1.55-.36,2.19-.28.68-.67,1.24-1.17,1.68-.86.78-2.01,1.17-3.45,1.17h-4.98v-8.82h-1.2v-3.3h1.2v-8.88h4.98c1.42,0,2.58.42,3.48,1.26h0ZM174.54,267.32c0-.7-.15-1.2-.45-1.5-.26-.24-.67-.36-1.23-.36h-1.68v5.58h1.5v3.3h-1.5v5.52h1.68c.6,0,1.02-.11,1.26-.33.28-.24.42-.71.42-1.41v-10.8ZM183.28,283.16v-21h-3.3v21h3.3ZM180.16,285.86c0,.4.14.74.43,1.03.29.29.63.44,1.04.44s.74-.15,1.03-.44c.29-.29.44-.64.44-1.03,0-.42-.15-.78-.44-1.07-.29-.29-.64-.43-1.03-.43s-.75.14-1.04.43c-.29.29-.43.64-.43,1.07h0ZM195.82,262.16v21h-1.92l-5.04-10.65v10.65h-3.3v-21h1.92l5.04,10.62v-10.62h3.3ZM204.76,262.16h3.3v21h-3.3v-9.12h-3.36v9.12h-3.3v-21h3.3v8.58h3.36v-8.58ZM221.77,262.16h3.3v21h-3.3v-9.12h-3.36v9.12h-3.3v-21h3.3v8.58h3.36v-8.58ZM240.61,261.74c0,.56-.2,1.05-.6,1.46-.4.41-.89.61-1.47.61h-1.26v14.43c0,1.62-.5,2.93-1.5,3.93-.92.82-2.08,1.23-3.48,1.23s-2.6-.41-3.48-1.23c-1-.96-1.5-2.27-1.5-3.93v-16.08h3.3v16.08c0,.74.14,1.24.42,1.5.26.24.68.36,1.26.36s.97-.12,1.23-.36c.3-.28.45-.78.45-1.5v-16.08h4.56c.12,0,.22-.04.3-.12.08-.08.12-.18.12-.3h1.65ZM253.03,261.5c0,.56-.21,1.05-.62,1.46-.41.41-.91.61-1.49.61h-1.14c.74.9,1.11,2.07,1.11,3.51v11.16c0,1.66-.5,2.97-1.5,3.93-.88.82-2.04,1.23-3.48,1.23s-2.6-.41-3.48-1.23c-1-.96-1.5-2.27-1.5-3.93v-11.16c0-1.66.5-2.97,1.5-3.93.88-.82,2.04-1.23,3.48-1.23h5.01c.12,0,.23-.04.32-.12.09-.08.13-.18.13-.3h1.65ZM247.6,267.08c0-.74-.15-1.24-.45-1.5-.24-.24-.65-.36-1.23-.36s-.97.12-1.23.36c-.3.28-.45.78-.45,1.5v11.16c0,.72.15,1.22.45,1.5.26.24.67.36,1.23.36s.99-.12,1.23-.36c.3-.26.45-.76.45-1.5v-11.16ZM246.73,261.05l3.3-3.3h-3.3l-1.65,3.3h1.65ZM263.77,262.16v21h-1.92l-5.04-10.65v10.65h-3.3v-21h1.92l5.04,10.62v-10.62h3.3ZM270.76,283.4c1.44,0,2.6-.41,3.48-1.23,1-.96,1.5-2.27,1.5-3.93v-7.23h-4.95v3.3h1.65v3.93c0,.74-.14,1.24-.42,1.5-.26.24-.68.36-1.26.36s-.97-.12-1.23-.36c-.3-.28-.45-.78-.45-1.5v-11.16c0-.72.15-1.22.45-1.5.26-.24.67-.36,1.23-.36s1,.12,1.26.36c.28.26.42.76.42,1.5v1.86h3.3v-1.86c0-1.66-.5-2.97-1.5-3.93-.88-.82-2.04-1.23-3.48-1.23s-2.56.41-3.48,1.23c-1,1-1.5,2.31-1.5,3.93v11.16c0,1.62.5,2.93,1.5,3.93.92.82,2.08,1.23,3.48,1.23h0Z"/>
    <path class="cls-13" d="M176.86,296.16v3.3h-3.36v17.7h-3.3v-17.7h-3.36v-3.3h10.02ZM184.98,296.16h3.3v21h-3.3v-9.12h-3.36v9.12h-3.3v-21h3.3v8.58h3.36v-8.58ZM193.98,317.16v-21h-3.3v21h3.3ZM205.09,299.46h-5.4v5.28h3.72v3.3h-3.72v5.82h5.4v3.3h-8.7v-21h8.7v3.3ZM204.22,295.05h-1.65l-1.65-1.65-1.65,1.65h-1.68l1.68-3.3h3.3l1.65,3.3ZM205.24,292.05l3.3-3.3h-3.3l-1.65,3.3h1.65ZM216.25,296.16v3.3h-3.36v17.7h-3.3v-17.7h-3.36v-3.3h10.02ZM228.66,306.12l4.23,11.04h-3.54l-2.55-6.72-1.14,2.61v4.11h-3.3v-21h3.3v8.52l3.66-8.52h3.57l-4.23,9.96ZM243.19,299.46h-5.4v5.28h3.72v3.3h-3.72v5.82h5.4v3.3h-8.7v-21h8.7v3.3ZM242.32,295.05h-1.65l-1.65-1.65-1.65,1.65h-1.68l1.68-3.3h3.3l1.65,3.3ZM243.34,292.05l3.3-3.3h-3.3l-1.65,3.3h1.65Z"/>
    <path class="cls-13" d="M350.96,92.96l4.23,11.04h-3.54l-2.55-6.72-1.14,2.61v4.11h-3.3v-21h3.3v8.52l3.66-8.52h3.57l-4.23,9.96ZM367.35,83l-4.08,13.62v7.38h-3.33v-7.38l-4.05-13.62h3.48l2.22,7.53,2.28-7.53h3.48ZM362.43,81.89l3.3-3.3h-3.3l-1.65,3.3h1.65ZM379.65,92.96l4.23,11.04h-3.54l-2.55-6.72-1.14,2.61v4.11h-3.3v-21h3.3v8.52l3.66-8.52h3.57l-4.23,9.96ZM394.17,86.3h-5.4v5.28h3.72v3.3h-3.72v5.82h5.4v3.3h-8.7v-21h8.7v3.3ZM393.3,81.89h-1.65l-1.65-1.65-1.65,1.65h-1.68l1.68-3.3h3.3l1.65,3.3ZM394.32,78.89l3.3-3.3h-3.3l-1.65,3.3h1.65ZM405.33,83v3.3h-3.36v17.7h-3.3v-17.7h-3.36v-3.3h10.02Z"/>
    <path class="cls-13" d="M351.32,117h3.3v21h-3.3v-9.12h-3.36v9.12h-3.3v-21h3.3v8.58h3.36v-8.58ZM368.85,116.34c0,.56-.21,1.05-.61,1.45-.41.41-.91.61-1.48.61h-1.14c.74.9,1.11,2.07,1.11,3.51v11.16c0,1.66-.5,2.97-1.5,3.93-.88.82-2.04,1.23-3.48,1.23s-2.6-.41-3.48-1.23c-1-.96-1.5-2.27-1.5-3.93v-11.16c0-1.66.5-2.97,1.5-3.93.88-.82,2.04-1.23,3.48-1.23h5.01c.12,0,.22-.04.31-.12.09-.08.14-.18.14-.3h1.65ZM363.42,121.92c0-.74-.15-1.24-.45-1.5-.24-.24-.65-.36-1.23-.36s-.97.12-1.23.36c-.3.28-.45.78-.45,1.5v11.16c0,.72.15,1.22.45,1.5.26.24.67.36,1.23.36s.99-.12,1.23-.36c.3-.26.45-.76.45-1.5v-11.16ZM360.27,140.7c0,.4.14.74.43,1.03s.63.43,1.04.43.74-.15,1.04-.43c.29-.29.43-.64.43-1.03,0-.42-.15-.78-.43-1.07s-.64-.43-1.04-.43-.75.14-1.04.43c-.29.29-.43.65-.43,1.07h0ZM372.75,129.6h1.68c1.44,0,2.6-.41,3.48-1.23,1-.92,1.5-2.23,1.5-3.93v-2.28c0-1.68-.5-2.98-1.5-3.9-.9-.84-2.06-1.26-3.48-1.26h-4.98v21h3.3v-8.4ZM372.75,120.3h1.68c.56,0,.97.12,1.23.36.3.3.45.8.45,1.5v2.28c0,.72-.15,1.22-.45,1.5-.26.24-.67.36-1.23.36h-1.68v-6ZM394.47,118.26c1,.92,1.5,2.22,1.5,3.9v10.8c0,.82-.12,1.55-.36,2.19-.28.68-.67,1.24-1.17,1.68-.86.78-2.01,1.17-3.45,1.17h-4.98v-8.82h-1.2v-3.3h1.2v-8.88h4.98c1.42,0,2.58.42,3.48,1.26h0ZM392.67,122.16c0-.7-.15-1.2-.45-1.5-.26-.24-.67-.36-1.23-.36h-1.68v5.58h1.5v3.3h-1.5v5.52h1.68c.6,0,1.02-.11,1.26-.33.28-.24.42-.71.42-1.41v-10.8ZM402.87,138.24c1.44,0,2.6-.41,3.48-1.23,1-.96,1.5-2.27,1.5-3.93v-11.16c0-1.66-.5-2.97-1.5-3.93-.88-.82-2.04-1.23-3.48-1.23s-2.6.41-3.48,1.23c-1,.96-1.5,2.27-1.5,3.93v11.16c0,1.66.5,2.97,1.5,3.93.88.82,2.04,1.23,3.48,1.23h0ZM399.57,115.89l1.65-3.3h3.3l1.68,3.3h-1.68l-1.65-1.65-1.65,1.65h-1.65ZM402.87,120.06c.58,0,.99.12,1.23.36.3.26.45.76.45,1.5v11.16c0,.74-.15,1.24-.45,1.5-.24.24-.65.36-1.23.36s-.97-.12-1.23-.36c-.3-.28-.45-.78-.45-1.5v-11.16c0-.72.15-1.22.45-1.5.26-.24.67-.36,1.23-.36h0ZM405.57,112.89h1.65l-1.65-3.3h-3.3l3.3,3.3ZM420.12,117v21h-1.92l-5.04-10.65v10.65h-3.3v-21h1.92l5.04,10.62v-10.62h3.3ZM427.11,138.24c1.44,0,2.6-.41,3.48-1.23,1-.96,1.5-2.27,1.5-3.93v-7.23h-4.95v3.3h1.65v3.93c0,.74-.14,1.24-.42,1.5-.26.24-.68.36-1.26.36s-.97-.12-1.23-.36c-.3-.28-.45-.78-.45-1.5v-11.16c0-.72.15-1.22.45-1.5.26-.24.67-.36,1.23-.36s1,.12,1.26.36c.28.26.42.76.42,1.5v1.86h3.3v-1.86c0-1.66-.5-2.97-1.5-3.93-.88-.82-2.04-1.23-3.48-1.23s-2.56.41-3.48,1.23c-1,1-1.5,2.31-1.5,3.93v11.16c0,1.62.5,2.93,1.5,3.93.92.82,2.08,1.23,3.48,1.23h0Z"/>
    <path class="cls-13" d="M434.93,262.16v3.3h-3.36v17.7h-3.3v-17.7h-3.36v-3.3h10.02ZM443.06,262.16h3.3v21h-3.3v-9.12h-3.36v9.12h-3.3v-21h3.3v8.58h3.36v-8.58ZM452.06,283.16v-21h-3.3v21h3.3ZM463.16,265.46h-5.4v5.28h3.72v3.3h-3.72v5.82h5.4v3.3h-8.7v-21h8.7v3.3ZM462.29,261.05h-1.65l-1.65-1.65-1.65,1.65h-1.68l1.68-3.3h3.3l1.65,3.3ZM463.31,258.05l3.3-3.3h-3.3l-1.65,3.3h1.65ZM474.32,262.16v3.3h-3.36v17.7h-3.3v-17.7h-3.36v-3.3h10.02ZM486.74,272.12l4.23,11.04h-3.54l-2.55-6.72-1.14,2.61v4.11h-3.3v-21h3.3v8.52l3.66-8.52h3.57l-4.23,9.96ZM501.26,265.46h-5.4v5.28h3.72v3.3h-3.72v5.82h5.4v3.3h-8.7v-21h8.7v3.3ZM500.39,261.05h-1.65l-1.65-1.65-1.65,1.65h-1.68l1.68-3.3h3.3l1.65,3.3ZM501.41,258.05l3.3-3.3h-3.3l-1.65,3.3h1.65Z"/>
    <path class="cls-13" d="M436.22,296.16l-4.08,13.62v7.38h-3.33v-7.38l-4.05-13.62h3.48l2.22,7.53,2.28-7.53h3.48ZM431.3,295.05l3.3-3.3h-3.3l-1.65,3.3h1.65ZM451.34,296.16v3.3h-3.36v17.7h-3.3v-17.7h-3.36v-3.3h10.02ZM465.95,295.74c0,.56-.2,1.05-.6,1.46-.4.41-.89.61-1.47.61h-1.26v14.43c0,1.62-.5,2.93-1.5,3.93-.92.82-2.08,1.23-3.48,1.23s-2.6-.41-3.48-1.23c-1-.96-1.5-2.27-1.5-3.93v-16.08h3.3v16.08c0,.74.14,1.24.42,1.5.26.24.68.36,1.26.36s.97-.12,1.23-.36c.3-.28.45-.78.45-1.5v-16.08h4.56c.12,0,.22-.04.3-.12.08-.08.12-.18.12-.3h1.65ZM478.37,295.5c0,.56-.21,1.05-.61,1.46s-.91.61-1.48.61h-1.14c.74.9,1.11,2.07,1.11,3.51v11.16c0,1.66-.5,2.97-1.5,3.93-.88.82-2.04,1.23-3.48,1.23s-2.6-.41-3.48-1.23c-1-.96-1.5-2.27-1.5-3.93v-11.16c0-1.66.5-2.97,1.5-3.93.88-.82,2.04-1.23,3.48-1.23h5.01c.12,0,.22-.04.31-.12.09-.08.14-.18.14-.3h1.65ZM468.89,291.84c.88,0,1.63.32,2.26.95s.95,1.39.95,2.27h-1.65c0-.44-.15-.81-.45-1.11-.3-.3-.67-.45-1.11-.45l-1.35-1.35c.4-.2.85-.3,1.35-.3h0ZM472.94,301.08c0-.74-.15-1.24-.45-1.5-.24-.24-.65-.36-1.23-.36s-.97.12-1.23.36c-.3.28-.45.78-.45,1.5v11.16c0,.72.15,1.22.45,1.5.26.24.67.36,1.23.36s.99-.12,1.23-.36c.3-.26.45-.76.45-1.5v-11.16ZM489.11,296.16v21h-1.92l-5.04-10.65v10.65h-3.3v-21h1.92l5.04,10.62v-10.62h3.3ZM496.1,317.4c1.44,0,2.6-.41,3.48-1.23,1-.96,1.5-2.27,1.5-3.93v-7.23h-4.95v3.3h1.65v3.93c0,.74-.14,1.24-.42,1.5-.26.24-.68.36-1.26.36s-.97-.12-1.23-.36c-.3-.28-.45-.78-.45-1.5v-11.16c0-.72.15-1.22.45-1.5.26-.24.67-.36,1.23-.36s1,.12,1.26.36c.28.26.42.76.42,1.5v1.86h3.3v-1.86c0-1.66-.5-2.97-1.5-3.93-.88-.82-2.04-1.23-3.48-1.23s-2.56.41-3.48,1.23c-1,1-1.5,2.31-1.5,3.93v11.16c0,1.62.5,2.93,1.5,3.93.92.82,2.08,1.23,3.48,1.23h0Z"/>
    <text class="cls-8" transform="translate(297.64 140.61)"><tspan x="0" y="0">3</tspan></text>
    <text class="cls-8" transform="translate(368.62 317.04)"><tspan x="0" y="0">4</tspan></text>
    <text class="cls-8" transform="translate(116.93 318.55)"><tspan x="0" y="0">2</tspan></text>
    <g class="cls-7">
      <path class="cls-2" d="M67.32,160.84v114.97s0,12,12,12h27.8"/>
      <rect class="cls-9" x="60.57" y="159.34" width="13.5" height="3"/>
      <polygon class="cls-9" points="115.51 287.82 101.62 282.76 107.12 287.82 101.62 292.87 115.51 287.82"/>
      <path class="cls-9" d="M642.95,270.81h-107.32v-3h107.32c10.32,0,10.5-10.08,10.5-10.5v-89.58h3v89.58c0,4.67-2.82,13.5-13.5,13.5Z"/>
      <polygon class="cls-9" points="654.95 159.34 660 173.23 654.95 167.73 649.89 173.23 654.95 159.34"/>
      <polygon class="cls-9" points="527.24 269.31 541.13 264.25 541.13 274.36 527.24 269.31"/>
      <path class="cls-9" d="M306.07,287.62h-12.6v-3h12.6c10.32,0,10.5-10.08,10.5-10.5v-106.39h3v106.39c0,4.67-2.82,13.5-13.5,13.5Z"/>
      <polygon class="cls-9" points="318.07 159.34 323.12 173.23 318.07 167.73 313.01 173.23 318.07 159.34"/>
      <rect class="cls-9" x="291.97" y="279.37" width="3" height="13.5"/>
      <path class="cls-9" d="M498.18,233.81h-3v-119.4c0-.42-.18-10.5-10.5-10.5h-33.58v-3h33.58c10.68,0,13.5,8.83,13.5,13.5v119.4Z"/>
      <polygon class="cls-9" points="496.68 242.2 501.73 228.31 496.68 233.81 491.62 228.31 496.68 242.2"/>
      <rect class="cls-9" x="449.6" y="95.66" width="3" height="13.5"/>
    </g>
    <path class="cls-13" d="M698.79,83v3.3h-3.36v17.7h-3.3v-17.7h-3.36v-3.3h10.02ZM706.91,83h3.3v21h-3.3v-9.12h-3.36v9.12h-3.3v-21h3.3v8.58h3.36v-8.58ZM717.45,104.24c1.4,0,2.56-.41,3.48-1.23,1-1,1.5-2.31,1.5-3.93v-16.08h-3.3v16.08c0,.72-.15,1.22-.45,1.5-.26.24-.67.36-1.23.36s-1-.12-1.26-.36c-.28-.26-.42-.76-.42-1.5v-16.08h-3.3v16.08c0,1.66.5,2.97,1.5,3.93.88.82,2.04,1.23,3.48,1.23h0ZM735.08,83l-4.08,13.62v7.38h-3.33v-7.38l-4.05-13.62h3.48l2.22,7.53,2.28-7.53h3.48ZM745.13,86.3h-5.4v5.28h3.72v3.3h-3.72v5.82h5.4v3.3h-8.7v-21h8.7v3.3ZM744.26,81.89h-1.65l-1.65-1.65-1.65,1.65h-1.68l1.68-3.3h3.3l1.65,3.3ZM745.28,78.89l3.3-3.3h-3.3l-1.65,3.3h1.65ZM756.29,83v3.3h-3.36v17.7h-3.3v-17.7h-3.36v-3.3h10.02Z"/>
    <path class="cls-13" d="M701.64,117h1.89v21h-3.3v-10.47l-2.67,7.17h-1.92l-2.67-7.17v10.47h-3.3v-21h1.89l5.04,11.64,5.04-11.64ZM709.23,138v-21h-3.3v21h3.3ZM721.77,117v21h-1.92l-5.04-10.65v10.65h-3.3v-21h1.92l5.04,10.62v-10.62h3.3ZM730.71,117h3.3v21h-3.3v-9.12h-3.36v9.12h-3.3v-21h3.3v8.58h3.36v-8.58Z"/>
    <path class="cls-13" d="M642.2,297.58l2.82,7.36h-2.36l-1.7-4.48-.76,1.74v2.74h-2.2v-14h2.2v5.68l2.44-5.68h2.38l-2.82,6.64ZM648.28,304.94v-14h-2.2v14h2.2ZM647.72,290.2l2.2-2.2h-2.2l-1.1,2.2h1.1ZM657.42,290.94h2.2v14h-2.2v-6.08h-2.24v6.08h-2.2v-14h2.2v5.72h2.24v-5.72ZM669.1,290.5c0,.37-.14.7-.41.97s-.6.41-.99.41h-.76c.49.6.74,1.38.74,2.34v7.44c0,1.11-.33,1.98-1,2.62-.59.55-1.36.82-2.32.82s-1.73-.27-2.32-.82c-.67-.64-1-1.51-1-2.62v-7.44c0-1.11.33-1.98,1-2.62.59-.55,1.36-.82,2.32-.82h3.34c.08,0,.15-.03.21-.08.06-.05.09-.12.09-.2h1.1ZM665.48,294.22c0-.49-.1-.83-.3-1-.16-.16-.43-.24-.82-.24s-.65.08-.82.24c-.2.19-.3.52-.3,1v7.44c0,.48.1.81.3,1,.17.16.45.24.82.24s.66-.08.82-.24c.2-.17.3-.51.3-1v-7.44ZM663.38,306.74c0,.27.1.5.29.69.19.19.42.29.69.29s.5-.1.69-.29c.19-.19.29-.42.29-.69,0-.28-.1-.52-.29-.71s-.42-.29-.69-.29-.5.1-.69.29c-.19.19-.29.43-.29.71h0ZM671.7,299.34h1.12c.96,0,1.73-.27,2.32-.82.67-.61,1-1.49,1-2.62v-1.52c0-1.12-.33-1.99-1-2.6-.6-.56-1.37-.84-2.32-.84h-3.32v14h2.2v-5.6ZM671.7,293.14h1.12c.37,0,.65.08.82.24.2.2.3.53.3,1v1.52c0,.48-.1.81-.3,1-.17.16-.45.24-.82.24h-1.12v-4ZM686.18,291.78c.67.61,1,1.48,1,2.6v7.2c0,.55-.08,1.03-.24,1.46-.19.45-.45.83-.78,1.12-.57.52-1.34.78-2.3.78h-3.32v-5.88h-.8v-2.2h.8v-5.92h3.32c.95,0,1.72.28,2.32.84h0ZM684.98,294.38c0-.47-.1-.8-.3-1-.17-.16-.45-.24-.82-.24h-1.12v3.72h1v2.2h-1v3.68h1.12c.4,0,.68-.07.84-.22.19-.16.28-.47.28-.94v-7.2ZM691.77,305.1c.96,0,1.73-.27,2.32-.82.67-.64,1-1.51,1-2.62v-7.44c0-1.11-.33-1.98-1-2.62-.59-.55-1.36-.82-2.32-.82s-1.73.27-2.32.82c-.67.64-1,1.51-1,2.62v7.44c0,1.11.33,1.98,1,2.62.59.55,1.36.82,2.32.82h0ZM689.57,290.2l1.1-2.2h2.2l1.12,2.2h-1.12l-1.1-1.1-1.1,1.1h-1.1ZM691.77,292.98c.39,0,.66.08.82.24.2.17.3.51.3,1v7.44c0,.49-.1.83-.3,1-.16.16-.43.24-.82.24s-.65-.08-.82-.24c-.2-.19-.3-.52-.3-1v-7.44c0-.48.1-.81.3-1,.17-.16.45-.24.82-.24h0ZM693.57,288.2h1.1l-1.1-2.2h-2.2l2.2,2.2ZM703.27,290.94v14h-1.28l-3.36-7.1v7.1h-2.2v-14h1.28l3.36,7.08v-7.08h2.2ZM707.93,305.1c.96,0,1.73-.27,2.32-.82.67-.64,1-1.51,1-2.62v-4.82h-3.3v2.2h1.1v2.62c0,.49-.09.83-.28,1-.17.16-.45.24-.84.24s-.65-.08-.82-.24c-.2-.19-.3-.52-.3-1v-7.44c0-.48.1-.81.3-1,.17-.16.45-.24.82-.24s.67.08.84.24c.19.17.28.51.28,1v1.24h2.2v-1.24c0-1.11-.33-1.98-1-2.62-.59-.55-1.36-.82-2.32-.82s-1.71.27-2.32.82c-.67.67-1,1.54-1,2.62v7.44c0,1.08.33,1.95,1,2.62.61.55,1.39.82,2.32.82h0ZM717.99,299.34h1.12c.96,0,1.73-.27,2.32-.82.67-.61,1-1.49,1-2.62v-1.52c0-1.12-.33-1.99-1-2.6-.6-.56-1.37-.84-2.32-.84h-3.32v14h2.2v-5.6ZM717.99,293.14h1.12c.37,0,.65.08.82.24.2.2.3.53.3,1v1.52c0,.48-.1.81-.3,1-.17.16-.45.24-.82.24h-1.12v-4ZM728.07,290.94h2.2v14h-2.2v-6.08h-2.24v6.08h-2.2v-14h2.2v5.72h2.24v-5.72ZM736.89,304.94l-.4-2.22h-2.52l-.4,2.22h-2.24l2.8-14h2.2l2.8,14h-2.24ZM734.35,300.52h1.76l-.88-5.02-.88,5.02ZM735.87,290.2l2.2-2.2h-2.2l-1.1,2.2h1.1ZM745.49,290.94v2.2h-2.24v11.8h-2.2v-11.8h-2.24v-2.2h6.68ZM752.57,305.1c.96,0,1.73-.27,2.32-.82.67-.64,1-1.51,1-2.62v-.88c0-1.28-.49-2.36-1.48-3.24-.27-.24-.75-.55-1.44-.92-.39-.21-.65-.37-.78-.48-.49-.44-.74-.97-.74-1.58v-.34c0-.48.1-.81.3-1,.17-.16.45-.24.82-.24s.66.08.82.24c.2.17.3.51.3,1v1.22h2.2v-1.22c0-1.11-.33-1.98-1-2.62-.59-.55-1.36-.82-2.32-.82s-1.73.27-2.32.82c-.67.64-1,1.51-1,2.62v.34c0,.63.13,1.21.38,1.76.25.55.62,1.03,1.1,1.46.29.25.75.55,1.38.88.45.25.73.43.84.52.49.45.74.99.74,1.6v.88c0,.49-.1.83-.3,1-.16.16-.43.24-.82.24s-.65-.08-.82-.24c-.2-.19-.3-.52-.3-1v-1.82h-2.2v1.82c0,1.11.33,1.98,1,2.62.59.55,1.36.82,2.32.82h0ZM759.37,304.94v-14h-2.2v14h2.2ZM767.73,290.94v14h-1.28l-3.36-7.1v7.1h-2.2v-14h1.28l3.36,7.08v-7.08h2.2ZM773.69,290.94h2.2v14h-2.2v-6.08h-2.24v6.08h-2.2v-14h2.2v5.72h2.24v-5.72Z"/>
    <path class="cls-13" d="M848.9,262.16v3.3h-3.36v17.7h-3.3v-17.7h-3.36v-3.3h10.02ZM857.03,262.16h3.3v21h-3.3v-9.12h-3.36v9.12h-3.3v-21h3.3v8.58h3.36v-8.58ZM866.03,283.16v-21h-3.3v21h3.3ZM877.13,265.46h-5.4v5.28h3.72v3.3h-3.72v5.82h5.4v3.3h-8.7v-21h8.7v3.3ZM876.26,261.05h-1.65l-1.65-1.65-1.65,1.65h-1.68l1.68-3.3h3.3l1.65,3.3ZM877.28,258.05l3.3-3.3h-3.3l-1.65,3.3h1.65ZM888.29,262.16v3.3h-3.36v17.7h-3.3v-17.7h-3.36v-3.3h10.02ZM900.71,272.12l4.23,11.04h-3.54l-2.55-6.72-1.14,2.61v4.11h-3.3v-21h3.3v8.52l3.66-8.52h3.57l-4.23,9.96ZM915.23,265.46h-5.4v5.28h3.72v3.3h-3.72v5.82h5.4v3.3h-8.7v-21h8.7v3.3ZM914.36,261.05h-1.65l-1.65-1.65-1.65,1.65h-1.68l1.68-3.3h3.3l1.65,3.3ZM915.38,258.05l3.3-3.3h-3.3l-1.65,3.3h1.65Z"/>
    <path class="cls-13" d="M846.08,306.12l4.23,11.04h-3.54l-2.55-6.72-1.14,2.61v4.11h-3.3v-21h3.3v8.52l3.66-8.52h3.57l-4.23,9.96ZM862.46,296.16l-4.08,13.62v7.38h-3.33v-7.38l-4.05-13.62h3.48l2.22,7.53,2.28-7.53h3.48ZM854.09,295.05c.42-.58.8-.9,1.14-.96.3-.08.69.03,1.17.33.62.42,1.22.63,1.8.63.52,0,.98-.15,1.4-.47.41-.31.79-.71,1.16-1.21l-1.35-.96c-.4.54-.75.86-1.05.96-.28.06-.63-.05-1.05-.33-.66-.42-1.28-.63-1.86-.63-.14,0-.33.02-.57.06-.72.18-1.42.71-2.1,1.59l1.32.99h0ZM877.58,296.16v3.3h-3.36v17.7h-3.3v-17.7h-3.36v-3.3h10.02ZM885.71,296.16h3.3v21h-3.3v-9.12h-3.36v9.12h-3.3v-21h3.3v8.58h3.36v-8.58ZM896.24,317.4c1.4,0,2.56-.41,3.48-1.23,1-1,1.5-2.31,1.5-3.93v-16.08h-3.3v16.08c0,.72-.15,1.22-.45,1.5-.26.24-.67.36-1.23.36s-1-.12-1.26-.36c-.28-.26-.42-.76-.42-1.5v-16.08h-3.3v16.08c0,1.66.5,2.97,1.5,3.93.88.82,2.04,1.23,3.48,1.23h0ZM910.88,317.16l-.6-3.33h-3.78l-.6,3.33h-3.36l4.2-21h3.3l4.2,21h-3.36ZM911.69,295.05h-1.65l-1.65-1.65-1.65,1.65h-1.68l1.68-3.3h3.3l1.65,3.3ZM906.92,319.86c0,.4.14.74.43,1.03.29.29.63.44,1.03.44s.74-.15,1.04-.44c.29-.29.43-.64.43-1.03,0-.42-.15-.78-.43-1.07s-.64-.43-1.04-.43-.75.14-1.03.43c-.29.29-.43.64-.43,1.07h0ZM907.07,310.53h2.64l-1.32-7.53-1.32,7.53ZM923.78,296.16v3.3h-3.36v17.7h-3.3v-17.7h-3.36v-3.3h10.02Z"/>
    <path class="cls-13" d="M848.9,330.16v3.3h-3.36v17.7h-3.3v-17.7h-3.36v-3.3h10.02ZM857.03,330.16h3.3v21h-3.3v-9.12h-3.36v9.12h-3.3v-21h3.3v8.58h3.36v-8.58ZM866.03,351.16v-21h-3.3v21h3.3ZM877.79,351.4c1.44,0,2.6-.41,3.48-1.23,1-.96,1.5-2.27,1.5-3.93v-2.7h-3.3v2.7c0,.74-.14,1.24-.42,1.5-.26.24-.68.36-1.26.36s-.97-.12-1.23-.36c-.3-.28-.45-.78-.45-1.5v-11.16c0-.72.15-1.22.45-1.5.26-.24.67-.36,1.23-.36s1,.12,1.26.36c.28.26.42.76.42,1.5v1.86h3.3v-1.86c0-1.66-.5-2.97-1.5-3.93-.88-.82-2.04-1.23-3.48-1.23s-2.56.41-3.48,1.23c-1,1-1.5,2.31-1.5,3.93v11.16c0,1.62.5,2.93,1.5,3.93.92.82,2.08,1.23,3.48,1.23h0ZM889.55,351.4c1.44,0,2.6-.41,3.48-1.23,1-.96,1.5-2.27,1.5-3.93v-11.16c0-1.66-.5-2.97-1.5-3.93-.88-.82-2.04-1.23-3.48-1.23s-2.6.41-3.48,1.23c-1,.96-1.5,2.27-1.5,3.93v11.16c0,1.66.5,2.97,1.5,3.93.88.82,2.04,1.23,3.48,1.23h0ZM886.25,329.05l1.65-3.3h3.3l1.68,3.3h-1.68l-1.65-1.65-1.65,1.65h-1.65ZM889.55,333.22c.58,0,.99.12,1.23.36.3.26.45.76.45,1.5v11.16c0,.74-.15,1.24-.45,1.5-.24.24-.65.36-1.23.36s-.97-.12-1.23-.36c-.3-.28-.45-.78-.45-1.5v-11.16c0-.72.15-1.22.45-1.5.26-.24.67-.36,1.23-.36h0ZM906.8,330.16v21h-1.92l-5.04-10.65v10.65h-3.3v-21h1.92l5.04,10.62v-10.62h3.3ZM913.79,351.4c1.44,0,2.6-.41,3.48-1.23,1-.96,1.5-2.27,1.5-3.93v-7.23h-4.95v3.3h1.65v3.93c0,.74-.14,1.24-.42,1.5-.26.24-.68.36-1.26.36s-.97-.12-1.23-.36c-.3-.28-.45-.78-.45-1.5v-11.16c0-.72.15-1.22.45-1.5.26-.24.67-.36,1.23-.36s1,.12,1.26.36c.28.26.42.76.42,1.5v1.86h3.3v-1.86c0-1.66-.5-2.97-1.5-3.93-.88-.82-2.04-1.23-3.48-1.23s-2.56.41-3.48,1.23c-1,1-1.5,2.31-1.5,3.93v11.16c0,1.62.5,2.93,1.5,3.93.92.82,2.08,1.23,3.48,1.23h0Z"/>
    <path class="cls-13" d="M1005.39,104h-4.98v-21h4.53c1.42,0,2.57.39,3.45,1.17.52.46.9,1.02,1.14,1.68.26.64.39,1.38.39,2.22v1.95c0,1.42-.4,2.5-1.2,3.24,1.1.78,1.65,2.04,1.65,3.78v1.92c0,.86-.13,1.59-.39,2.19-.24.66-.62,1.22-1.14,1.68-.86.78-2.01,1.17-3.45,1.17h0ZM1003.71,91.88h1.23c.56,0,.97-.12,1.23-.36.3-.3.45-.8.45-1.5v-1.95c0-.68-.14-1.16-.42-1.44-.24-.22-.66-.33-1.26-.33h-1.23v5.58ZM1003.71,100.7h1.68c.6,0,1.02-.11,1.26-.33.28-.26.42-.73.42-1.41v-1.92c0-.72-.15-1.22-.45-1.5-.26-.24-.67-.36-1.23-.36h-1.68v5.52ZM1023.12,104l-4.2-21h-3.3l-4.2,21h3.36l.6-3.33h3.78l.6,3.33h3.36ZM1013.31,78.59h3.3l1.65,3.3h-1.65l-3.3-3.3ZM1017.27,89.84l1.32,7.53h-2.64l1.32-7.53ZM1031.58,83v10.62l-5.04-10.62h-1.92v21h3.3v-10.65l5.04,10.65h1.92v-21h-3.3ZM1046.52,104.24c-1.4,0-2.56-.41-3.48-1.23-1-1-1.5-2.31-1.5-3.93v-11.16c0-1.62.5-2.93,1.5-3.93.92-.82,2.08-1.23,3.48-1.23s2.6.41,3.48,1.23c1,.96,1.5,2.27,1.5,3.93v1.86h-3.3v-1.86c0-.74-.14-1.24-.42-1.5-.26-.24-.68-.36-1.26-.36s-.97.12-1.23.36c-.3.28-.45.78-.45,1.5v11.16c0,.72.15,1.22.45,1.5.26.24.67.36,1.23.36s1-.12,1.26-.36c.28-.26.42-.76.42-1.5v-3.93h-1.65v-3.3h4.95v7.23c0,1.66-.5,2.97-1.5,3.93-.88.82-2.04,1.23-3.48,1.23h0ZM1053.66,104v-21h3.3v21h-3.3ZM1070.25,104l-4.2-21h-3.3l-4.2,21h3.36l.6-3.33h3.78l.6,3.33h3.36ZM1064.4,89.84l1.32,7.53h-2.64l1.32-7.53ZM1076.43,104.24c-1.44,0-2.6-.41-3.48-1.23-1-.96-1.5-2.27-1.5-3.93v-11.16c0-1.66.5-2.97,1.5-3.93.88-.82,2.04-1.23,3.48-1.23s2.6.41,3.48,1.23c1,.96,1.5,2.27,1.5,3.93v11.16c0,1.66-.5,2.97-1.5,3.93-.88.82-2.04,1.23-3.48,1.23h0ZM1076.43,86.06c-.56,0-.97.12-1.23.36-.3.28-.45.78-.45,1.5v11.16c0,.72.15,1.22.45,1.5.26.24.67.36,1.23.36s.99-.12,1.23-.36c.3-.26.45-.76.45-1.5v-11.16c0-.74-.15-1.24-.45-1.5-.24-.24-.65-.36-1.23-.36h0Z"/>
    <path class="cls-13" d="M1007.07,117h3.3v21h-3.3v-9.12h-3.36v9.12h-3.3v-21h3.3v8.58h3.36v-8.58ZM1017.48,138.24c1.44,0,2.6-.41,3.48-1.23,1-.96,1.5-2.27,1.5-3.93v-11.16c0-1.66-.5-2.97-1.5-3.93-.88-.82-2.04-1.23-3.48-1.23s-2.6.41-3.48,1.23c-1,.96-1.5,2.27-1.5,3.93v11.16c0,1.66.5,2.97,1.5,3.93.88.82,2.04,1.23,3.48,1.23h0ZM1014.18,115.89l1.65-3.3h3.3l1.68,3.3h-1.68l-1.65-1.65-1.65,1.65h-1.65ZM1017.48,120.06c.58,0,.99.12,1.23.36.3.26.45.76.45,1.5v11.16c0,.74-.15,1.24-.45,1.5-.24.24-.65.36-1.23.36s-.97-.12-1.23-.36c-.3-.28-.45-.78-.45-1.5v-11.16c0-.72.15-1.22.45-1.5.26-.24.67-.36,1.23-.36h0ZM1020.18,112.89h1.65l-1.65-3.3h-3.3l3.3,3.3ZM1033.74,138.24c1.44,0,2.6-.41,3.48-1.23,1-.96,1.5-2.27,1.5-3.93v-1.32c0-1.92-.74-3.54-2.22-4.86-.4-.36-1.12-.82-2.16-1.38-.58-.32-.97-.56-1.17-.72-.74-.66-1.11-1.45-1.11-2.37v-.51c0-.72.15-1.22.45-1.5.26-.24.67-.36,1.23-.36s.99.12,1.23.36c.3.26.45.76.45,1.5v1.83h3.3v-1.83c0-1.66-.5-2.97-1.5-3.93-.88-.82-2.04-1.23-3.48-1.23s-2.6.41-3.48,1.23c-1,.96-1.5,2.27-1.5,3.93v.51c0,.94.19,1.82.57,2.64.38.82.93,1.55,1.65,2.19.44.38,1.13.82,2.07,1.32.68.38,1.1.64,1.26.78.74.68,1.11,1.48,1.11,2.4v1.32c0,.74-.15,1.24-.45,1.5-.24.24-.65.36-1.23.36s-.97-.12-1.23-.36c-.3-.28-.45-.78-.45-1.5v-2.73h-3.3v2.73c0,1.66.5,2.97,1.5,3.93.88.82,2.04,1.23,3.48,1.23h0ZM1052.52,116.34c0,.56-.21,1.05-.61,1.45s-.91.61-1.48.61h-1.14c.74.9,1.11,2.07,1.11,3.51v11.16c0,1.66-.5,2.97-1.5,3.93-.88.82-2.04,1.23-3.48,1.23s-2.6-.41-3.48-1.23c-1-.96-1.5-2.27-1.5-3.93v-11.16c0-1.66.5-2.97,1.5-3.93.88-.82,2.04-1.23,3.48-1.23h5.01c.12,0,.22-.04.31-.12.09-.08.14-.18.14-.3h1.65ZM1047.09,121.92c0-.74-.15-1.24-.45-1.5-.24-.24-.65-.36-1.23-.36s-.97.12-1.23.36c-.3.28-.45.78-.45,1.5v11.16c0,.72.15,1.22.45,1.5.26.24.67.36,1.23.36s.99-.12,1.23-.36c.3-.26.45-.76.45-1.5v-11.16Z"/>
    <path class="cls-13" d="M1055.16,361.01l4.23,11.04h-3.54l-2.55-6.72-1.14,2.61v4.11h-3.3v-21h3.3v8.52l3.66-8.52h3.57l-4.23,9.96ZM1069.68,354.35h-5.4v5.28h3.72v3.3h-3.72v5.82h5.4v3.3h-8.7v-21h8.7v3.3ZM1068.81,349.94h-1.65l-1.65-1.65-1.65,1.65h-1.68l1.68-3.3h3.3l1.65,3.3ZM1069.83,346.94l3.3-3.3h-3.3l-1.65,3.3h1.65ZM1080.84,351.05v3.3h-3.36v17.7h-3.3v-17.7h-3.36v-3.3h10.02ZM1096.08,351.05v3.3h-3.36v17.7h-3.3v-17.7h-3.36v-3.3h10.02ZM1104.21,351.05h3.3v21h-3.3v-9.12h-3.36v9.12h-3.3v-21h3.3v8.58h3.36v-8.58ZM1114.74,372.29c1.4,0,2.56-.41,3.48-1.23,1-1,1.5-2.31,1.5-3.93v-16.08h-3.3v16.08c0,.72-.15,1.22-.45,1.5-.26.24-.67.36-1.23.36s-1-.12-1.26-.36c-.28-.26-.42-.76-.42-1.5v-16.08h-3.3v16.08c0,1.66.5,2.97,1.5,3.93.88.82,2.04,1.23,3.48,1.23h0ZM1115.55,349.94l3.3-3.3h-3.3l-1.65,3.3h1.65ZM1126.68,372.29c1.44,0,2.6-.41,3.48-1.23,1-.96,1.5-2.27,1.5-3.93v-2.7h-3.3v2.7c0,.74-.14,1.24-.42,1.5-.26.24-.68.36-1.26.36s-.97-.12-1.23-.36c-.3-.28-.45-.78-.45-1.5v-11.16c0-.72.15-1.22.45-1.5.26-.24.67-.36,1.23-.36s1,.12,1.26.36c.28.26.42.76.42,1.5v1.86h3.3v-1.86c0-1.66-.5-2.97-1.5-3.93-.88-.82-2.04-1.23-3.48-1.23s-2.56.41-3.48,1.23c-1,1-1.5,2.31-1.5,3.93v11.16c0,1.62.5,2.93,1.5,3.93.92.82,2.08,1.23,3.48,1.23h0Z"/>
    <path class="cls-13" d="M1057.98,386.05v3.3h-3.36v17.7h-3.3v-17.7h-3.36v-3.3h10.02ZM1066.11,386.05h3.3v21h-3.3v-9.12h-3.36v9.12h-3.3v-21h3.3v8.58h3.36v-8.58ZM1075.11,407.05v-21h-3.3v21h3.3ZM1086.21,389.35h-5.4v5.28h3.72v3.3h-3.72v5.82h5.4v3.3h-8.7v-21h8.7v3.3ZM1085.34,384.94h-1.65l-1.65-1.65-1.65,1.65h-1.68l1.68-3.3h3.3l1.65,3.3ZM1086.36,381.94l3.3-3.3h-3.3l-1.65,3.3h1.65ZM1097.37,386.05v3.3h-3.36v17.7h-3.3v-17.7h-3.36v-3.3h10.02ZM1109.79,396.01l4.23,11.04h-3.54l-2.55-6.72-1.14,2.61v4.11h-3.3v-21h3.3v8.52l3.66-8.52h3.57l-4.23,9.96ZM1124.31,389.35h-5.4v5.28h3.72v3.3h-3.72v5.82h5.4v3.3h-8.7v-21h8.7v3.3ZM1123.44,384.94h-1.65l-1.65-1.65-1.65,1.65h-1.68l1.68-3.3h3.3l1.65,3.3ZM1124.46,381.94l3.3-3.3h-3.3l-1.65,3.3h1.65Z"/>
    <text class="cls-8" transform="translate(791.58 324.93)"><tspan x="0" y="0">6</tspan></text>
    <text class="cls-8" transform="translate(641.73 139.24)"><tspan x="0" y="0">5</tspan></text>
    <text class="cls-8" transform="translate(955.04 142.1)"><tspan x="0" y="0">7</tspan></text>
    <text class="cls-8" transform="translate(1047.66 324.93)"><tspan x="0" y="0">8</tspan></text>
    <path class="cls-11" d="M672.83,275.64h-2.11l-1.03,5.92h-1.43l1.03-5.92h-2.08l.21-1.19h5.62l-.21,1.19ZM674.66,276.87c.41-.46.89-.69,1.43-.68.52.01.91.2,1.15.56.25.36.34.86.28,1.49l-.56,3.33h-1.38l.56-3.35c.02-.13.02-.24,0-.35-.03-.35-.24-.53-.62-.54-.37-.01-.7.15-.98.48l-.66,3.76h-1.38l1.3-7.5h1.38l-.55,2.8ZM681.1,281.57c-.04-.13-.06-.29-.05-.48-.4.4-.85.59-1.35.58-.46,0-.85-.16-1.15-.45-.3-.29-.45-.66-.43-1.09.02-.58.26-1.02.73-1.33.46-.31,1.08-.46,1.85-.46h.64s.07-.31.07-.31c.02-.11.02-.21.01-.31-.02-.15-.07-.27-.17-.36-.1-.09-.23-.13-.39-.13-.21,0-.4.05-.55.16-.15.11-.25.27-.29.49h-1.38c.02-.5.25-.91.7-1.22.44-.31.99-.47,1.63-.46.6.01,1.07.19,1.41.53.34.34.48.79.42,1.33l-.41,2.53-.02.31c0,.23.02.43.08.59v.09h-1.36ZM680.04,280.59c.4.01.74-.16,1.04-.52l.17-.91h-.48c-.51,0-.87.16-1.1.46-.08.11-.13.24-.15.4-.03.18.01.31.11.42.1.1.24.16.41.16ZM685.46,279.55l1.51-3.27h1.53l-3.09,6.08c-.22.47-.48.81-.78,1.03-.3.22-.64.33-1.03.33-.15,0-.37-.03-.66-.1l.1-1.07h.19c.45.02.78-.14.99-.48l.3-.56-.86-5.21h1.43l.38,3.27ZM696.8,275.62h-.75l-1.03,5.95h-1.23l.08-.57c-.39.46-.85.68-1.37.66-.49,0-.89-.19-1.18-.56s-.46-.87-.48-1.5c0-.19,0-.42.02-.71.07-.54.21-1.03.44-1.46.23-.43.5-.75.83-.95s.7-.3,1.11-.29c.49.01.88.21,1.19.59l.25-1.15h-1.2l.16-.89h1.19l.12-.66h1.39l-.12.66h.75l-.16.89ZM692.19,279.49c0,.32.05.58.17.76.12.18.3.28.53.29.39.01.73-.17,1.02-.56l.38-2.1c-.13-.35-.38-.53-.77-.54-.41-.01-.73.18-.96.56-.23.39-.35.92-.37,1.59ZM699.79,276.18c.47,0,.87.13,1.2.36.34.23.58.55.74.96.16.41.21.86.17,1.36-.07.84-.37,1.52-.88,2.04-.51.52-1.14.77-1.89.76-.46,0-.86-.12-1.19-.35-.34-.23-.58-.55-.74-.95-.16-.41-.22-.86-.17-1.35.08-.87.38-1.57.89-2.08.51-.51,1.13-.76,1.87-.74ZM701.64,275.6h-.89s-.63-.64-.63-.64l-.87.65h-1.12s1.52-1.12,1.52-1.12h.83l1.16,1.11ZM698.4,279.51c0,.31.08.56.22.74.14.18.34.27.59.28.42.01.76-.18,1-.58.24-.4.35-.93.34-1.58-.01-.31-.09-.56-.23-.75-.14-.19-.34-.28-.59-.29-.41-.01-.74.18-.98.58-.25.4-.36.93-.34,1.61ZM701.33,274.99v-.57s.21-.01.21-.01c.26-.03.41-.12.44-.27.03-.15-.07-.23-.31-.25h-.21s.06-.57.06-.57c.42.01.74.09.96.22.22.14.33.32.33.56,0,.33-.22.53-.65.62l-.04.28h-.79ZM703.75,281.57h-1.39l.92-5.28h1.39l-.92,5.28ZM703.44,274.94c0-.22.07-.4.21-.54.15-.14.33-.21.54-.21.21,0,.39.06.54.19.15.13.23.31.24.52,0,.2-.06.38-.2.53-.14.15-.33.23-.55.23-.21,0-.39-.06-.54-.19-.15-.13-.24-.31-.24-.53ZM709.63,279.55l1.51-3.27h1.53l-3.09,6.08c-.22.47-.48.81-.78,1.03-.3.22-.64.33-1.03.33-.15,0-.37-.03-.66-.1l.1-1.07h.19c.45.02.78-.14.99-.48l.3-.56-.86-5.21h1.43l.38,3.27ZM714.75,281.66c-.46,0-.87-.12-1.23-.34-.36-.22-.62-.53-.8-.92-.18-.39-.24-.82-.21-1.29v-.2c.06-.51.21-.99.46-1.42.25-.43.57-.76.97-.99.39-.23.83-.34,1.31-.33.68.01,1.2.26,1.55.75.35.49.48,1.1.4,1.85l-.08.6h-3.24c-.01.34.07.62.25.82.18.21.42.31.73.32.5.01.94-.18,1.32-.59l.63.78c-.2.3-.49.53-.86.7-.37.17-.78.25-1.21.24ZM717.13,275.41v.1l-1.05-.02-.6-.7-.85.7-1.12.02v-.11l1.57-1.33h.79s1.27,1.35,1.27,1.35ZM715.18,277.32c-.25,0-.48.07-.68.24-.2.17-.37.45-.53.86h1.89l.03-.13c.02-.13.02-.25,0-.37-.03-.19-.11-.34-.24-.44-.13-.11-.29-.16-.48-.16ZM720.8,281.02c-.39.44-.88.65-1.46.64-.51,0-.89-.19-1.15-.55-.26-.36-.36-.83-.3-1.42l.57-3.42h1.38l-.58,3.44c-.01.11-.01.21,0,.3.03.33.21.49.54.5.43.01.78-.15,1.06-.49l.66-3.75h1.39l-.92,5.28h-1.28l.1-.55ZM727.06,279.66c.03.57.28.86.73.87.25,0,.47-.06.63-.21.17-.14.28-.34.33-.58h1.29c-.02.37-.14.7-.35,1-.21.3-.49.53-.84.69-.35.17-.72.24-1.11.23-.64,0-1.15-.23-1.52-.66-.37-.43-.56-1.01-.54-1.73v-.27s.02-.05.02-.05c.09-.86.38-1.54.87-2.04.49-.5,1.1-.74,1.82-.73.6.01,1.07.21,1.42.58.35.38.52.87.52,1.49h-1.28c0-.28-.06-.51-.19-.67-.12-.16-.31-.25-.56-.26-.66-.02-1.06.46-1.2,1.44-.05.35-.07.65-.05.9h0ZM733.64,281.57c-.04-.13-.06-.29-.05-.48-.4.4-.85.59-1.35.58-.46,0-.85-.16-1.15-.45-.3-.29-.45-.66-.43-1.09.02-.58.26-1.02.73-1.33.46-.31,1.08-.46,1.85-.46h.64s.07-.31.07-.31c.02-.11.02-.21.01-.31-.02-.15-.07-.27-.17-.36-.1-.09-.23-.13-.39-.13-.21,0-.4.05-.55.16-.15.11-.25.27-.29.49h-1.38c.02-.5.25-.91.7-1.22.44-.31.99-.47,1.63-.46.6.01,1.07.19,1.41.53.34.34.48.79.42,1.33l-.41,2.53-.02.31c0,.23.02.43.08.59v.09h-1.36ZM732.4,274.92h-.69s-.87-1.31-.87-1.31h1.03s.54,1.31.54,1.31ZM735.41,275.57l-.92.02-.6-.62-.83.62h-1.16s1.55-1.12,1.55-1.12h.77l1.19,1.11ZM732.58,280.59c.4.01.74-.16,1.04-.52l.17-.91h-.48c-.51,0-.87.16-1.1.46-.08.11-.13.24-.15.4-.03.18.01.31.11.42.1.1.24.16.41.16ZM739.11,281.02c-.39.44-.88.65-1.46.64-.51,0-.89-.19-1.15-.55-.26-.36-.36-.83-.3-1.42l.57-3.42h1.38l-.58,3.44c-.01.11-.01.21,0,.3.03.33.21.49.54.5.43.01.78-.15,1.06-.49l.66-3.75h1.39l-.92,5.28h-1.28l.1-.55ZM746.58,274.98l-.23,1.3h.88l-.18,1.04h-.88l-.45,2.65c-.02.17,0,.29.04.38.05.09.16.14.33.14.05,0,.19,0,.42-.02l-.1,1.08c-.24.08-.51.12-.79.11-.45,0-.79-.15-1.01-.42-.22-.28-.31-.65-.27-1.12l.45-2.79h-.75l.18-1.04h.75l.22-1.3h1.38ZM749.21,276.87c.41-.46.89-.69,1.43-.68.52.01.91.2,1.15.56.25.36.34.86.28,1.49l-.56,3.33h-1.38l.56-3.35c.02-.13.02-.24,0-.35-.03-.35-.24-.53-.62-.54-.37-.01-.7.15-.98.48l-.66,3.76h-1.38l1.3-7.5h1.38l-.55,2.8ZM754.05,281.57h-1.39l.92-5.28h1.39l-.92,5.28ZM753.74,274.94c0-.22.07-.4.21-.54.15-.14.33-.21.54-.21.21,0,.39.06.54.19.15.13.23.31.24.52,0,.2-.06.38-.2.53-.14.15-.33.23-.55.23-.21,0-.39-.06-.54-.19-.15-.13-.24-.31-.24-.53ZM757.73,281.66c-.46,0-.87-.12-1.23-.34-.36-.22-.62-.53-.8-.92-.18-.39-.24-.82-.21-1.29v-.2c.06-.51.21-.99.46-1.42.25-.43.57-.76.97-.99.39-.23.83-.34,1.31-.33.68.01,1.2.26,1.55.75.35.49.48,1.1.4,1.85l-.08.6h-3.24c-.01.34.07.62.25.82.18.21.42.31.73.32.5.01.94-.18,1.32-.59l.63.78c-.2.3-.49.53-.86.7-.37.17-.78.25-1.21.24ZM757.98,274.46h.78l1.19,1.11-.93.02-.6-.62-.82.61h-1.16s1.54-1.12,1.54-1.12ZM758.16,277.32c-.25,0-.48.07-.68.24-.2.17-.37.45-.53.86h1.89l.03-.13c.02-.13.02-.25,0-.37-.03-.19-.11-.34-.24-.44-.13-.11-.29-.16-.48-.16ZM760.7,273.6h1.2s-1.31,1.33-1.31,1.33h-.9s1.01-1.33,1.01-1.33ZM763.3,274.98l-.23,1.3h.88l-.18,1.04h-.88l-.45,2.65c-.02.17,0,.29.04.38.05.09.16.14.33.14.05,0,.19,0,.42-.02l-.1,1.08c-.24.08-.51.12-.79.11-.45,0-.79-.15-1.01-.42-.22-.28-.31-.65-.27-1.12l.45-2.79h-.75l.18-1.04h.75l.22-1.3h1.38ZM768.59,279.46l-.64.56-.27,1.55h-1.38l1.3-7.5h1.38l-.71,4.07.27-.29,1.57-1.57h1.77l-2.31,2.27,1.47,3.01h-1.51l-.94-2.1ZM773.92,281.66c-.46,0-.87-.12-1.23-.34-.36-.22-.62-.53-.8-.92-.18-.39-.24-.82-.21-1.29v-.2c.06-.51.21-.99.46-1.42.25-.43.57-.76.97-.99.39-.23.83-.34,1.31-.33.68.01,1.2.26,1.55.75.35.49.48,1.1.4,1.85l-.08.6h-3.24c-.01.34.07.62.25.82.18.21.42.31.73.32.5.01.94-.18,1.32-.59l.63.78c-.2.3-.49.53-.86.7-.37.17-.78.25-1.21.24ZM774.18,274.46h.78l1.19,1.11-.93.02-.6-.62-.82.61h-1.16s1.54-1.12,1.54-1.12ZM774.36,277.32c-.25,0-.48.07-.68.24-.2.17-.37.45-.53.86h1.89l.03-.13c.02-.13.02-.25,0-.37-.03-.19-.11-.34-.24-.44-.13-.11-.29-.16-.48-.16ZM776.9,273.6h1.2s-1.31,1.33-1.31,1.33h-.9s1.01-1.33,1.01-1.33Z"/>
    <text class="cls-10" transform="translate(1121.77 180.84)"><tspan x="0" y="0"> </tspan></text>
    <g class="cls-5">
      <path class="cls-9" d="M960.12,309.7h-27.44v-3h27.44c10.32,0,10.5-10.08,10.5-10.5v-128.47h3v128.47c0,4.67-2.82,13.5-13.5,13.5Z"/>
      <polygon class="cls-9" points="972.12 159.34 977.17 173.23 972.12 167.73 967.06 173.23 972.12 159.34"/>
      <rect class="cls-9" x="931.18" y="301.45" width="3" height="13.5"/>
      <path class="cls-9" d="M848.27,233.81h-3v-119.4c0-.42-.18-10.5-10.5-10.5h-47.44v-3h47.44c10.68,0,13.5,8.83,13.5,13.5v119.4Z"/>
      <polygon class="cls-9" points="846.77 242.2 851.82 228.31 846.77 233.81 841.71 228.31 846.77 242.2"/>
      <rect class="cls-9" x="785.82" y="95.66" width="3" height="13.5"/>
      <path class="cls-9" d="M1127.43,306.96h-20.55v-3h20.55c.42,0,10.5-.18,10.5-10.5V103.73c0-.42-.18-10.5-10.5-10.5h-27.44v-3h27.44c10.68,0,13.5,8.83,13.5,13.5v189.72c0,10.68-8.83,13.5-13.5,13.5Z"/>
      <polygon class="cls-9" points="1098.5 305.46 1112.39 310.51 1106.89 305.46 1112.39 300.4 1098.5 305.46"/>
      <rect class="cls-9" x="1098.5" y="84.98" width="3" height="13.5"/>
    </g>
    <line class="cls-3" x1="537.09" y1="314.95" x2="772.69" y2="314.95"/>
    <g class="cls-6">
      <path class="cls-4" d="M527.24,314.95l16.77,6.1s-6.92-6.1,0-12.21l-16.77,6.1"/>
      <path class="cls-4" d="M772.69,318.95c2.21,0,4-1.79,4-4s-1.79-4-4-4-4,1.79-4,4,1.79,4,4,4"/>
    </g>
  </g>
</svg>