<?xml version="1.0" encoding="UTF-8"?>
<svg id="Layer_1" data-name="Layer 1" xmlns="http://www.w3.org/2000/svg" viewBox="0 0 150 94.27">
  <defs>
    <style>
      .cls-1 {
        fill: #909c86;
      }
    </style>
  </defs>
  <path class="cls-1" d="M62.83,16.7c.61-.49,1.13-1.41,2.14-2.05,2.75-1.74,11.51-3.38,14.9-3.56,6.97-.38,13.96,5.26,20.13,4.67,5.05-.48,1.78-2.59,4.59-4.8,2.81-2.21,12.53-8.49,15.65-9.86,2.52-1.1,3.87-.73,5.62,1.31l23.19,33.52c1.47,2.92,1.29,4.99-1.18,7.16-2.59,2.27-10.93,7.66-14.06,9.09-3.35,1.54-3.82-.19-6.81-.79l-9.68,6.46-.33.69c0,.86,1.73,1.65,2.36,2.35,3.41,3.8,2.15,10.17-2.56,12.2-1.63.7-4.6.52-5.18.87-.63.38-1.27,4.47-3.91,6.15-2.78,1.76-6.84.51-7.61,1.03-.46.31-1,2.6-1.44,3.35-.79,1.38-2.39,2.61-3.91,3.14-1.4.49-4.46.45-4.96.75-.61.36-1.55,2.84-2.34,3.7-2.77,3.01-6.52,2.63-9.73.63-1.05-.66-3.01-2.84-3.9-2.82-.62.02-2.49,2.04-3.2,2.49-3.53,2.23-6.58,1.71-9.22-1.48-.53-.64-1.31-2.46-1.74-2.71-1.36-.8-3.7-.12-6.12-1.85-1.51-1.09-2.85-4.01-3.39-4.33-1.07-.64-4.26,0-6.7-1.7-1.89-1.31-2.71-4.26-3.58-4.81-1.71-1.08-4.08-.48-6.36-2.7-1.3-1.25-2.06-3.95-2.84-4.54-.9-.68-3.32-.65-4.7-1.34-3.56-1.77-4.83-6.7-2.63-10,1.07-1.6,4.07-2.9.94-4.73-2.95-1.73-4.13,1.78-7.94.21-2.61-1.07-11.76-7.17-14.04-9.12-3.9-3.35-2.15-6.1.09-9.62C9.17,22.97,17.3,13.05,24.16,2.41c2.12-2.48,2.98-1.99,5.8-.56,4.88,2.47,9.67,6.07,14.28,9.28.94.65,1.61,1.6,2.06,2.65.88,2.07,3.31,2.1,5.82,2.57,1.97.37,9.4,1.41,10.71.34ZM27.23,3.45c-.51.1-.92.4-1.21.83C19.35,15.2,10.31,25.47,3.74,36.34c-1.15,1.9-1.6,3.23.25,4.93s10.47,7.14,12.82,8.32c2.89,1.45,3.39-.97,5.09-2.85l21-31.47c.5-.75.31-1.76-.43-2.28-3.76-2.6-14.23-9.75-15.22-9.55ZM121.62,3.45l-14.67,9.18c-.45.36-.98.89-.87,1.52l23.69,35c.64,1,1.7.99,2.78.77l13.5-8.65c1-.79,1.4-1.84,1.11-3.11L124.01,4.28c-.55-.8-1.46-1.03-2.39-.83ZM79.66,13.88c-2.73.2-11.38,1.61-13.38,3.07-4.87,6.06-10.39,11.75-14.69,18.19-.57,2.14.66,4.3,2.86,4.7,3.58.66,6.34-1.6,8.83-3.77,3.85-3.35,7.07-7.66,11.32-10.5.85-.2,1.74-.09,2.43.45l36.31,29.8c.73.3,1.6.33,2.33,0,1.72-2.03,8.61-4.93,9.78-6.67.35-.52.47-.93.14-1.52l-20.33-29.67c-1.5-1.16-3.21.26-4.89.45-6.89.79-13.32-5.08-20.69-4.56ZM60.24,19.82c-2.81-.38-5.66-.29-8.47-.77-1.77-.3-5.95-2.16-7.18-1.26l-20.64,30.7c0,.78,3.12,2.73,3.93,2.76.93.03,2.18-1.29,3.38-1.51,2.26-.42,4.62-.02,6.3,1.6.72.69,1.65,2.87,2.27,3.13,1.58.66,4.32-1,7.21.49,2.75,1.41,3.52,5.63,4.13,5.95.74.38,1.61-.21,2.47-.17,1.68.08,3.83,1.2,4.91,2.51.85,1.03,1.44,3.33,2.22,3.81.85.53,2.88.43,4.16.88,1.76.62,3.39,2.23,4.11,3.95.51,1.22.5,3.88.76,4.27.39.6,4.4.9,6.08,3.99,1.86,3.43-.39,6.18.32,7.72.59,1.27,4.35,3.52,5.81,3.63,2.33.18,5.57-2.55,4.9-4.89s-9.34-7.56-11.22-9.94c-.92-1.22.28-2.69,1.68-2.02,4.62,3.46,8.7,7.95,13.7,10.82,4.18.86,8.3-4.51,4.93-7.94l-11.91-9.9c-.92-1.48-.02-2.83,1.7-2.03,4.4,3.34,8.56,7.6,12.95,10.88,1.43,1.07,3.08,2.42,4.98,2.34,3.76-.17,6.56-5.08,3.75-8.04l-14.81-12.37c-1.18-.94-.11-2.65,1.17-2.2.43.15,2,1.45,2.53,1.86,4.39,3.38,10,9.44,14.39,12.12,5.54,3.38,10.71-3.46,6.16-7.99l-41.11-33.58c-.67-.16-1.11.27-1.6.61-4.99,3.58-10.58,12.61-17.17,13.37-5.43.63-9.21-3.3-8.04-8.7,3.14-4.66,7.4-8.61,10.77-13.05.25-.33.66-.42.5-1.01ZM31.93,52.07c-1.7.22-6.94,6.67-7.15,8.3-.41,3.09,4.43,6.1,6.77,4.4.4-.29,3.81-4.69,4.31-5.42,1.2-1.74,2.07-2.51.94-4.56-.88-1.6-3.01-2.96-4.86-2.71ZM42.35,56.77c-.5.1-1.13.5-1.57.79-.83.56-6.82,7.98-7.01,8.76-.92,3.92,4.33,7.96,7.46,5.1.86-.79,5.62-6.79,6.24-7.85,2.09-3.55-1.28-7.58-5.13-6.8ZM52.09,63.48c-.93.19-1.78.94-2.43,1.59-.73.73-6.32,7.79-6.47,8.29-1.05,3.6,3.54,7.27,6.65,4.96,1.05-.78,6.09-6.98,6.86-8.24,2.17-3.59-.56-7.43-4.6-6.6ZM53.98,83.39c1.62,1.74,4.57,2.57,6.44.8.7-.66,6.22-7.51,6.38-8.04,1.26-4.21-3.44-7.69-6.88-5.53-1.12.7-6.18,6.84-6.66,8.1-.68,1.77-.6,3.26.72,4.68ZM68.54,79.22c-1.09.25-6.04,6.16-6.23,7.21-.54,2.92,3.03,5,5.76,4.37,1.31-.3,5.61-4.71,5.88-5.86.76-3.3-1.94-6.52-5.4-5.72Z"/>
  <path class="cls-1" d="M133.72,33.3c6.85-1,8.22,9.63,1.22,10.3-6.59.63-7.79-9.34-1.22-10.3ZM133.71,35.97c-3.14.68-1.98,6.05,1.79,4.81,2.2-.72,1.97-5.62-1.79-4.81Z"/>
  <path class="cls-1" d="M19.15,42.16c-4.2,4.18-11.63-1.27-8.09-6.57,4.17-6.24,13.39,1.3,8.09,6.57ZM14.46,35.97c-2.84.85-1.72,5.93,1.79,4.82,3.23-1.02,1.51-5.81-1.79-4.82Z"/>
</svg>