<?xml version="1.0" encoding="UTF-8"?>
<svg id="Layer_1" data-name="Layer 1" xmlns="http://www.w3.org/2000/svg" viewBox="0 0 80.63 80.75">
  <defs>
    <style>
      .cls-1 {
        fill: #fff3de;
      }
    </style>
  </defs>
  <path class="cls-1" d="M40.5,33.22c-3.94,0-7.15,3.21-7.15,7.15s3.21,7.15,7.15,7.15,7.15-3.21,7.15-7.15-3.21-7.15-7.15-7.15Z"/>
  <path class="cls-1" d="M49.36,21.97h-18.1c-5.16,0-9.35,4.19-9.35,9.35v18.1c0,5.16,4.19,9.35,9.35,9.35h18.1c5.16,0,9.35-4.2,9.35-9.35v-18.1c0-5.16-4.2-9.35-9.35-9.35ZM40.5,51.54c-6.16,0-11.16-5.01-11.16-11.16s5.01-11.16,11.16-11.16,11.16,5.01,11.16,11.16-5.01,11.16-11.16,11.16ZM52.32,31.12c-1.47,0-2.66-1.19-2.66-2.66s1.19-2.66,2.66-2.66,2.66,1.19,2.66,2.66-1.19,2.66-2.66,2.66Z"/>
  <path class="cls-1" d="M40.31,2.98C19.66,2.98,2.91,19.72,2.91,40.38s16.74,37.4,37.4,37.4,37.4-16.74,37.4-37.4S60.97,2.98,40.31,2.98ZM62.98,49.43c0,7.51-6.11,13.62-13.62,13.62h-18.1c-7.51,0-13.62-6.11-13.62-13.62v-18.1c0-7.51,6.11-13.62,13.62-13.62h18.1c7.51,0,13.62,6.11,13.62,13.62v18.1Z"/>
</svg>