<?xml version="1.0" encoding="UTF-8"?>
<svg id="Layer_1" data-name="Layer 1" xmlns="http://www.w3.org/2000/svg" viewBox="0 0 150 141.79">
  <defs>
    <style>
      .cls-1 {
        fill: #909c86;
      }
    </style>
  </defs>
  <path class="cls-1" d="M16.73,121.08h-6.03v-46.82h6.03c4.77,0,8.65,3.88,8.65,8.65v29.52c0,4.77-3.88,8.65-8.65,8.65ZM13.39,118.39h3.33c3.28,0,5.95-2.67,5.95-5.95v-29.52c0-3.28-2.67-5.95-5.95-5.95h-3.33v41.43Z"/>
  <path class="cls-1" d="M92.15,109.22c-.42,0-.81-.03-1.16-.07-1.02-.13-20.19-6.2-28.39-8.8l.82-2.57c10.62,3.37,26.82,8.48,27.96,8.7.98.12,3.83.08,4.65-1.66,1.03-2.16.2-5.19-.61-5.88-2.12-1.42-36.46-15.44-45.6-17.26-9.09-1.82-25.28,2.48-25.44,2.53l-.7-2.6c.69-.19,16.97-4.51,26.67-2.57,9.66,1.93,45.12,16.4,46.83,17.86,1.84,1.58,2.81,5.89,1.29,9.08-1.22,2.56-4.16,3.24-6.31,3.24Z"/>
  <path class="cls-1" d="M87.44,128.68c-6.09,0-19.76-5.18-34.47-10.98-3.87-1.52-7.2-2.84-9.09-3.47-7.32-2.46-19.51-.48-19.64-.47l-.44-2.66c.52-.09,12.98-2.1,20.94.57,1.95.66,5.16,1.92,9.22,3.52,11.16,4.4,29.82,11.76,34.43,10.71,6.81-1.56,49.3-21.9,51.63-24.15,1.05-1.55,1.71-4.86.87-6.38-.9-1.61-4.18-3.44-5.41-3-2.02.72-35.82,10.32-37.25,10.72l-.74-2.59c12.15-3.45,35.54-10.12,37.08-10.67,2.85-1.02,7.35,1.87,8.67,4.22,1.43,2.56.59,6.88-1.08,9.31-1.95,2.84-47.57,23.87-53.17,25.15-.44.1-.96.15-1.54.15Z"/>
  <path class="cls-1" d="M93.72,71.18c-.46,0-.91-.02-1.36-.06-5.1-.35-9.76-2.72-13.08-6.67-2.84-3.38-4.41-7.69-4.41-12.11,0-.72.03-1.37.1-1.98.52-5.03,3.12-9.72,7.14-12.86,3.33-2.62,7.34-4,11.61-4,5.15,0,9.96,2.04,13.55,5.76,3.41,3.53,5.28,8.18,5.28,13.09,0,.23,0,.48-.02.71-.17,5.1-2.37,9.84-6.21,13.29-3.45,3.12-7.93,4.85-12.61,4.85ZM93.72,36.18c-3.65,0-7.09,1.19-9.94,3.43-3.45,2.69-5.68,6.71-6.12,11.03-.06.53-.09,1.08-.09,1.7,0,3.8,1.34,7.48,3.78,10.38,2.84,3.39,6.83,5.42,11.24,5.72.4.04.76.05,1.13.05,4.01,0,7.84-1.47,10.8-4.15,3.29-2.96,5.18-7.02,5.32-11.43.01-.22.01-.4.01-.57,0-4.21-1.61-8.19-4.53-11.22-3.08-3.18-7.2-4.94-11.61-4.94Z"/>
  <path class="cls-1" d="M93.72,71.18c-.46,0-.91-.02-1.36-.06-5.1-.35-9.76-2.72-13.08-6.67-2.84-3.38-4.41-7.69-4.41-12.11,0-.72.03-1.37.1-1.98.52-5.03,3.12-9.72,7.14-12.86,3.33-2.62,7.34-4,11.61-4,5.15,0,9.96,2.04,13.55,5.76,3.41,3.53,5.28,8.18,5.28,13.09,0,.23,0,.48-.02.71-.17,5.1-2.37,9.84-6.21,13.29-3.45,3.12-7.93,4.85-12.61,4.85ZM93.72,36.18c-3.65,0-7.09,1.19-9.94,3.43-3.45,2.69-5.68,6.71-6.12,11.03-.06.53-.09,1.08-.09,1.7,0,3.8,1.34,7.48,3.78,10.38,2.84,3.39,6.83,5.42,11.24,5.72.4.04.76.05,1.13.05,4.01,0,7.84-1.47,10.8-4.15,3.29-2.96,5.18-7.02,5.32-11.43.01-.22.01-.4.01-.57,0-4.21-1.61-8.19-4.53-11.22-3.08-3.18-7.2-4.94-11.61-4.94Z"/>
  <path class="cls-1" d="M96.12,86.13c-.05,0-.11,0-.16,0l-9.7-.67c-1.07-.08-1.86-.99-1.82-2.06l.47-6.57c-2.24-.81-4.34-1.91-6.25-3.28l-4.92,4.13c-.44.35-.95.5-1.48.45-.51-.06-.98-.31-1.3-.72l-6.23-7.43c-.32-.36-.5-.87-.46-1.4.04-.53.29-1.02.7-1.36l5.03-4.22c-.97-2.15-1.65-4.42-2-6.76l-6.39-.67c-1.04-.08-1.84-1.04-1.75-2.12l1.03-9.71c.04-.48.29-.97.7-1.31.41-.34.95-.49,1.48-.43l6.5.68c.88-2.19,2.04-4.25,3.48-6.13l-3.96-5.08c-.3-.36-.46-.87-.41-1.39.05-.53.32-1.02.74-1.35l7.67-5.99c.36-.31.9-.47,1.42-.41.53.06,1.02.34,1.34.77l4.03,5.15c2.18-.9,4.47-1.49,6.83-1.76l.89-6.37c.17-1.07,1.13-1.8,2.19-1.68l9.66,1.37c.48.06.95.31,1.27.72.33.41.47.93.41,1.46l-.92,6.53c2.17.96,4.18,2.19,6,3.69l5.21-3.78c.41-.31.92-.44,1.45-.36.52.08.98.36,1.29.8l5.72,7.86c.31.44.43.99.34,1.51-.1.52-.39.96-.83,1.25l-5.26,3.83c.4,1.09.73,2.19.97,3.31l6.43.22c.52.02,1,.24,1.35.62.36.39.55.89.53,1.41l-.35,9.72c0,1.02-.89,1.89-1.98,1.89l-6.6-.23c-.72,2.25-1.74,4.38-3.05,6.35l4.31,4.78c.36.4.54.93.5,1.46-.04.52-.28,1-.67,1.33l-7.2,6.49c-.81.72-2.05.65-2.77-.15l-4.38-4.87c-2.13,1.05-4.38,1.8-6.7,2.23l-.45,6.41c-.02.48-.26.98-.65,1.33-.36.32-.82.49-1.29.49ZM95.38,84.12s0,.03,0,.05v-.05ZM96.15,83.44h.02-.02ZM87.19,82.81l8.24.57.55-7.83,1.08-.15c2.73-.39,5.36-1.26,7.81-2.6l.93-.51,5.3,5.89,6.13-5.53-5.26-5.84.64-.88c1.63-2.24,2.83-4.73,3.56-7.4l.28-1.03,7.93.28.3-8.26-7.85-.27-.19-1.08c-.29-1.63-.76-3.25-1.41-4.81l-.41-.98,6.41-4.67-4.85-6.67-6.36,4.61-.81-.73c-2.05-1.84-4.41-3.3-7-4.31l-.99-.39,1.11-7.85-8.19-1.16-1.09,7.78-1.09.08c-2.77.2-5.45.89-7.97,2.05l-.97.45-4.89-6.25-6.5,5.08,4.82,6.19-.69.83c-1.77,2.14-3.14,4.55-4.06,7.16l-.35,1-7.89-.83-.87,8.2,7.93.83v1.21c.29,2.63,1.08,5.28,2.32,7.74l.48.95-6.08,5.1,5.31,6.33,6.01-5.05.86.67c2.17,1.7,4.63,2.99,7.29,3.83l1.01.32-.56,7.9ZM73.03,75.68l.02.02-.02-.02ZM117.79,72.17s-.02.02-.03.02l.03-.02ZM66.77,68.21l.03.04s-.02-.02-.03-.04ZM124.36,58.51s0,.04,0,.06v-.06ZM61.86,52.89h.03s-.02,0-.03,0ZM124.71,48.79h0s0,0,0,0ZM62.75,44.68s.01,0,.02,0h-.02ZM63.56,43.99v.04s0-.03,0-.04ZM121.83,37.3s-.02.02-.03.02l.03-.02ZM117.01,30.61h-.02s.01,0,.02,0ZM115.96,30.46h0s0,0,0,0ZM71.17,29.79l.04.05s-.02-.03-.04-.05ZM78.78,24.84l-.04.03s.03-.02.04-.03ZM77.7,24.75s.01.01.02.02l-.02-.02ZM103.06,22.49s.02,0,.04,0h-.04ZM93.72,71.18c-.46,0-.91-.02-1.36-.06-5.1-.35-9.76-2.72-13.08-6.67-2.84-3.38-4.41-7.69-4.41-12.11,0-.72.03-1.37.1-1.98.52-5.03,3.12-9.72,7.14-12.86,3.33-2.62,7.34-4,11.61-4,5.15,0,9.96,2.04,13.55,5.76,3.41,3.53,5.28,8.18,5.28,13.09,0,.22,0,.46-.01.68-.17,5.14-2.38,9.87-6.21,13.32-3.45,3.12-7.93,4.85-12.61,4.85ZM93.72,36.18c-3.65,0-7.09,1.19-9.94,3.43-3.45,2.69-5.68,6.71-6.12,11.03-.06.53-.09,1.08-.09,1.7,0,3.8,1.34,7.48,3.78,10.38,2.84,3.39,6.83,5.42,11.24,5.72.4.04.76.05,1.13.05,4.01,0,7.84-1.47,10.8-4.15,3.29-2.96,5.18-7.02,5.32-11.43v-.04c.01-.17.01-.36.01-.53,0-4.21-1.61-8.19-4.53-11.22-3.08-3.18-7.2-4.94-11.61-4.94Z"/>
  <path class="cls-1" d="M93.71,39.89c-.74,0-1.35-.6-1.35-1.35v-3.71c0-.74.6-1.35,1.35-1.35s1.35.6,1.35,1.35v3.71c0,.74-.6,1.35-1.35,1.35Z"/>
  <path class="cls-1" d="M103.63,44.1c-.35,0-.71-.14-.97-.41-.52-.53-.5-1.39.03-1.9l2.67-2.58c.53-.52,1.39-.5,1.9.03s.5,1.39-.03,1.9l-2.67,2.58c-.26.25-.6.38-.94.38Z"/>
  <path class="cls-1" d="M111.2,54.29s-.03,0-.05,0l-3.71-.13c-.74-.02-1.32-.65-1.3-1.39.02-.73.62-1.3,1.34-1.3.02,0,.03,0,.05,0l3.71.13c.74.02,1.32.65,1.3,1.39-.02.73-.62,1.3-1.34,1.3Z"/>
  <path class="cls-1" d="M105.42,66.68c-.37,0-.74-.15-1-.45l-2.48-2.76c-.5-.55-.45-1.4.1-1.9.55-.5,1.4-.46,1.9.1l2.48,2.76c.5.55.45,1.4-.1,1.9-.26.23-.58.35-.9.35Z"/>
  <path class="cls-1" d="M92.49,71.13s-.06,0-.09,0c-.74-.05-1.3-.7-1.25-1.44l.26-3.7c.05-.74.7-1.29,1.44-1.25.74.05,1.3.7,1.25,1.44l-.26,3.7c-.05.71-.64,1.25-1.34,1.25Z"/>
  <path class="cls-1" d="M80.31,64.93c-.39,0-.77-.16-1.03-.48-.48-.57-.4-1.42.17-1.9l2.84-2.38c.57-.48,1.42-.4,1.9.17.48.57.4,1.42-.17,1.9l-2.84,2.38c-.25.21-.56.32-.86.32Z"/>
  <path class="cls-1" d="M80,52.24s-.09,0-.14,0l-3.69-.39c-.74-.08-1.28-.74-1.2-1.48.08-.74.75-1.28,1.48-1.2l3.69.39c.74.08,1.28.74,1.2,1.48-.07.69-.66,1.21-1.34,1.21Z"/>
  <path class="cls-1" d="M85.22,42.81c-.4,0-.8-.18-1.06-.52l-2.28-2.92c-.46-.59-.35-1.43.23-1.89.59-.46,1.43-.35,1.89.23l2.28,2.92c.46.59.35,1.43-.23,1.89-.25.19-.54.29-.83.29Z"/>
  <path class="cls-1" d="M99.95,60.6c-.37,0-.73-.15-1-.44l-6.24-6.92c-.22-.25-.35-.57-.35-.9v-7.98c0-.74.6-1.35,1.35-1.35s1.35.6,1.35,1.35v7.46l5.89,6.53c.5.55.46,1.4-.1,1.9-.26.23-.58.35-.9.35Z"/>
</svg>