<?xml version="1.0" encoding="UTF-8"?>
<svg id="Layer_1" data-name="Layer 1" xmlns="http://www.w3.org/2000/svg" viewBox="0 0 80.63 80.75">
  <defs>
    <style>
      .cls-1 {
        fill: #fff3de;
      }
    </style>
  </defs>
  <path class="cls-1" d="M40.31,2.98C19.66,2.98,2.91,19.72,2.91,40.38s16.74,37.4,37.4,37.4,37.4-16.74,37.4-37.4S60.97,2.98,40.31,2.98ZM61.84,35.7h0c-.4.04-.8.06-1.21.06-4.41,0-8.53-2.22-10.95-5.92v20.14c0,8.22-6.67,14.89-14.89,14.89s-14.89-6.67-14.89-14.89,6.67-14.89,14.89-14.89c.31,0,.61.03.92.05v7.34c-.31-.04-.61-.09-.92-.09-4.2,0-7.6,3.4-7.6,7.6s3.4,7.6,7.6,7.6,7.9-3.31,7.9-7.5l.07-34.21h7.02c.66,6.29,5.74,11.21,12.05,11.67v8.15Z"/>
</svg>