<?xml version="1.0" encoding="UTF-8"?>
<svg id="Layer_1" data-name="Layer 1" xmlns="http://www.w3.org/2000/svg" viewBox="0 0 150 141.79">
  <defs>
    <style>
      .cls-1 {
        fill: #909c86;
      }
    </style>
  </defs>
  <path class="cls-1" d="M19.97,138.52c.41.41.95.62,1.5.62s1.08-.21,1.5-.62c.83-.83.83-2.17,0-2.99l-4.87-4.87,4.87-4.87c.83-.83.83-2.17,0-2.99s-2.17-.83-2.99,0l-4.87,4.87-4.87-4.87c-.83-.83-2.17-.83-2.99,0s-.83,2.17,0,2.99l4.87,4.87-4.87,4.87c-.83.83-.83,2.17,0,2.99.41.41.95.62,1.5.62s1.08-.21,1.5-.62l4.87-4.87,4.87,4.87Z"/>
  <path class="cls-1" d="M104.54,5.06c-.79-.79-2.2-.79-2.99,0l-23.47,23.47s-.02.03-.03.04c-.16.17-.28.36-.38.57-.03.06-.05.11-.07.17-.02.04-.04.08-.05.12l-4.42,14.98c-.22.74-.01,1.55.53,2.1l1.1,1.1-21.39,5.03c-3.29.77-5.92,3.14-7.05,6.32l-19.49,55.26c-.27.77-.08,1.62.5,2.2l6.35,6.35c.4.4.94.62,1.5.62.24,0,.47-.04.7-.12l55.26-19.49c3.19-1.12,5.55-3.76,6.32-7.05l5.03-21.39.62.62c.4.4.94.62,1.5.62.2,0,.4-.03.6-.09l14.98-4.42c.54-.16.99-.53,1.25-1.01l23.05-23.05c.83-.83.83-2.17,0-2.99L104.54,5.06ZM93.34,95.75c-.44,1.88-1.79,3.38-3.61,4.02l-54,19.04-.74-.74,28.08-28.08c.77.35,1.61.55,2.49.55,1.61,0,3.13-.63,4.26-1.77,2.35-2.35,2.35-6.18,0-8.53-2.28-2.28-6.26-2.28-8.53,0-1.82,1.82-2.22,4.53-1.21,6.75l-28.09,28.08-.74-.74,19.04-54c.64-1.82,2.15-3.17,4.02-3.61l23.94-5.63,20.69,20.69-5.63,23.94ZM64.29,83.25c.34-.34.79-.53,1.27-.53s.93.19,1.27.53c.7.7.7,1.85,0,2.55-.68.68-1.87.68-2.55,0-.7-.7-.7-1.85,0-2.55ZM105.21,72.06l-27.66-27.66,3.06-10.36,17.48,17.48,17.48,17.48-10.36,3.06ZM119.52,66.98l-36.95-36.95,4.62-4.62,12.55,12.55c.41.41.95.62,1.5.62s1.08-.21,1.5-.62c.83-.83.83-2.17,0-2.99l-12.55-12.55,12.86-12.86,36.95,36.95-20.47,20.48Z"/>
</svg>