<?xml version="1.0" encoding="UTF-8"?>
<svg id="Layer_1" data-name="Layer 1" xmlns="http://www.w3.org/2000/svg" viewBox="0 0 80.63 80.75">
  <defs>
    <style>
      .cls-1 {
        fill: #fff3de;
      }
    </style>
  </defs>
  <path class="cls-1" d="M62.62,64.02c0,5.95-11.51,9.14-22.3,9.14s-22.3-3.19-22.3-9.14c0-3.16,3.26-5.56,7.93-7.07.53.76,1.09,1.48,1.68,2.2-3.78,1.05-5.89,2.47-5.89,3.62,0,1.74,4.8,4.05,12.96,4.8,1.71.16,3.62.26,5.62.26s3.88-.1,5.59-.26c8.16-.76,12.96-3.06,12.96-4.8,0-1.15-2.1-2.56-5.85-3.62.56-.72,1.12-1.48,1.68-2.24,4.67,1.55,7.93,3.95,7.93,7.1Z"/>
  <path class="cls-1" d="M40.31,5.91c-13.29,0-24.07,10.78-24.07,24.07,0,9.7,12.82,26.13,19.75,34.29,2.26,2.66,6.38,2.66,8.64,0,6.93-8.16,19.75-24.59,19.75-34.29,0-13.29-10.78-24.07-24.07-24.07ZM40.31,34.57c-3.17,0-5.75-2.58-5.75-5.75s2.58-5.75,5.75-5.75,5.75,2.58,5.75,5.75-2.58,5.75-5.75,5.75Z"/>
</svg>