<?xml version="1.0" encoding="UTF-8"?>
<svg id="Layer_1" data-name="Layer 1" xmlns="http://www.w3.org/2000/svg" viewBox="0 0 183.95 73.07">
  <defs>
    <style>
      .cls-1 {
        fill: #fff;
      }

      .cls-2 {
        opacity: .5;
      }
    </style>
  </defs>
  <g>
    <path class="cls-1" d="M75.35,20.54l-.44-.31L43.33,1.32s-.07-.04-.11-.06c-1.94-1.08-4.36-1.01-6.13.16L4.91,20.64c-.22.13-.41.29-.61.44C1.15,23.41.43,26.64.43,30.13v35.77c0,3.67,2.9,6.66,6.46,6.66h9.84c4.11,0,7.71-3.62,7.71-7.73v-26.97c0-4.65,2.75-5.34,4.39-5.34,0,0,1.74,0,2.07,0v17.34c0,1.9-.76,2.75-2.45,2.75h-1.14v8h1.14c6.16,0,10.45-4.42,10.45-10.75v-21.12c0-1.61-.87-3.16-2.34-3.83-.58-.26-1.18-.37-1.78-.36l-5.95-.04c-5.97,0-12.39,4.17-12.39,13.34v25.99c0,.39-.32.7-.7.7h-7.31s0-34.43,0-34.43c.05-1.24.2-1.59.56-2.23.21-.37.51-.68.87-.9l29.83-17.81c.37-.22.84-.22,1.21,0l29.62,17.74c1.22.78,1.87,2.26,1.84,3.38v34.27l-5.51-.02v2.41c0,3.41-1.51,4.76-2.49,5.27-.15.08-.09.31.08.31l8.38.03c4.09,0,7.54-3.55,7.54-7.75V30.31c0-4.33-1.49-7.21-5.01-9.77Z"/>
    <path class="cls-1" d="M64.38,55.11c0-2.21-1.79-4-4-4,0,0-7.77,0-7.78,0v4.44c0,2.13,1.31,3.53,2.55,3.55h1.51v4.73c0,.39-.32.71-.71.71h-5.11c-.38,0-.69-.31-.69-.7v-31.23h3.72c1.22,0,2.49.24,2.49,2.83v5.54h0c.04,1.37,1.47,3.55,3.6,3.55h4.4s0-9.09,0-9.09c0-6.47-4.22-10.81-10.51-10.81-2.54,0-4.99-.04-6.4-.06-1.86-.03-2.95-.05-4.18,1.21-.72.74-1.12,1.74-1.12,2.78v35.15c0,6.06,4.35,8.83,8.39,8.83h7.1c4.16,0,6.74-2.53,6.74-6.6v-10.83Z"/>
  </g>
  <g class="cls-2">
    <g>
      <path class="cls-1" d="M95.54,38.28l-.42-1.37s-.04-.06-.07-.06h-3.44s-.05.02-.07.06l-.41,1.37c-.03.09-.09.14-.18.14h-1.78c-.06,0-.1-.02-.13-.05-.03-.03-.03-.08-.01-.15l3.02-9.46c.03-.09.09-.14.18-.14h2.2c.09,0,.15.05.18.14l3.02,9.46s.01.04.01.07c0,.08-.05.13-.15.13h-1.78c-.09,0-.15-.05-.18-.14ZM92.1,35.33h2.46c.06,0,.08-.03.06-.08l-1.26-4.16s-.02-.05-.04-.05c-.02,0-.03.02-.04.05l-1.23,4.16c0,.06,0,.08.06.08Z"/>
      <path class="cls-1" d="M103.81,38.3l-1.75-3.88s-.05-.06-.08-.06h-1.3s-.07.02-.07.07v3.82s-.02.09-.05.12c-.03.03-.07.05-.12.05h-1.64s-.09-.02-.12-.05c-.03-.03-.05-.07-.05-.12v-9.46s.02-.09.05-.12c.03-.03.07-.05.12-.05h4c.6,0,1.12.12,1.57.36.45.24.8.59,1.05,1.04.25.45.37.97.37,1.55,0,.63-.16,1.18-.48,1.63s-.76.77-1.33.96c-.05.02-.06.05-.04.1l1.9,3.96s.03.07.03.08c0,.07-.05.11-.15.11h-1.72c-.09,0-.16-.04-.2-.13ZM100.61,30.39v2.39s.02.07.07.07h1.83c.39,0,.71-.12.96-.35.25-.23.37-.54.37-.91s-.12-.68-.37-.92c-.25-.24-.57-.36-.96-.36h-1.83s-.07.02-.07.07Z"/>
      <path class="cls-1" d="M108.5,38.11c-.55-.28-.98-.68-1.27-1.2-.3-.51-.45-1.11-.45-1.78v-3.23c0-.67.15-1.26.45-1.78.3-.51.72-.91,1.27-1.19.55-.28,1.19-.42,1.92-.42s1.35.13,1.9.4c.55.27.97.64,1.27,1.13.3.49.46,1.06.46,1.7,0,.08-.06.14-.17.15l-1.64.1h-.03c-.09,0-.14-.05-.14-.15,0-.49-.15-.89-.46-1.19-.3-.3-.7-.45-1.2-.45s-.91.15-1.21.45c-.3.3-.46.7-.46,1.19v3.37c0,.49.15.88.46,1.18s.71.45,1.21.45.89-.15,1.2-.45c.3-.3.46-.69.46-1.18,0-.1.06-.15.17-.15l1.64.07s.09.01.12.04c.03.03.05.06.05.1,0,.64-.15,1.21-.46,1.71-.3.49-.73.88-1.27,1.15-.55.27-1.18.41-1.9.41s-1.37-.14-1.92-.43Z"/>
      <path class="cls-1" d="M120.49,28.67s.07-.05.12-.05h1.64s.09.02.12.05c.03.03.05.07.05.12v9.46s-.02.09-.05.12c-.03.03-.07.05-.12.05h-1.64s-.09-.02-.12-.05c-.03-.03-.05-.07-.05-.12v-3.86s-.02-.07-.07-.07h-3.09s-.07.02-.07.07v3.86s-.02.09-.05.12c-.03.03-.07.05-.12.05h-1.64s-.09-.02-.12-.05c-.03-.03-.05-.07-.05-.12v-9.46s.02-.09.05-.12c.03-.03.07-.05.12-.05h1.64s.09.02.12.05c.03.03.05.07.05.12v3.77s.02.07.07.07h3.09s.07-.02.07-.07v-3.77s.02-.09.05-.12Z"/>
      <path class="cls-1" d="M123.83,38.38s-.05-.07-.05-.12v-9.46s.02-.09.05-.12c.03-.03.07-.05.12-.05h1.64s.09.02.12.05c.03.03.05.07.05.12v9.46s-.02.09-.05.12c-.03.03-.07.05-.12.05h-1.64s-.09-.02-.12-.05Z"/>
      <path class="cls-1" d="M134.09,28.67s.05.07.05.12v1.37s-.02.09-.05.12c-.03.03-.07.05-.12.05h-2.51s-.07.02-.07.07v7.85s-.02.09-.05.12c-.03.03-.07.05-.12.05h-1.64s-.09-.02-.12-.05c-.03-.03-.05-.07-.05-.12v-7.85s-.02-.07-.07-.07h-2.44s-.09-.02-.12-.05c-.03-.03-.05-.07-.05-.12v-1.37s.02-.09.05-.12c.03-.03.07-.05.12-.05h7.06s.09.02.12.05Z"/>
      <path class="cls-1" d="M141.9,30.27s-.07.05-.12.05h-4.59s-.07.02-.07.07v2.17s.02.07.07.07h3.01s.09.02.12.05c.03.03.05.07.05.12v1.36s-.02.09-.05.12c-.03.03-.07.05-.12.05h-3.01s-.07.02-.07.07v2.27s.02.07.07.07h4.59s.09.02.12.05c.03.03.05.07.05.12v1.36s-.02.09-.05.12c-.03.03-.07.05-.12.05h-6.47s-.09-.02-.12-.05c-.03-.03-.05-.07-.05-.12v-9.46s.02-.09.05-.12c.03-.03.07-.05.12-.05h6.47s.09.02.12.05c.03.03.05.07.05.12v1.36s-.02.09-.05.12Z"/>
      <path class="cls-1" d="M144.59,38.11c-.55-.28-.98-.68-1.27-1.2-.3-.51-.45-1.11-.45-1.78v-3.23c0-.67.15-1.26.45-1.78.3-.51.72-.91,1.27-1.19.55-.28,1.19-.42,1.92-.42s1.35.13,1.9.4c.55.27.97.64,1.27,1.13.3.49.46,1.06.46,1.7,0,.08-.06.14-.17.15l-1.64.1h-.03c-.09,0-.14-.05-.14-.15,0-.49-.15-.89-.46-1.19-.3-.3-.7-.45-1.2-.45s-.91.15-1.21.45c-.3.3-.46.7-.46,1.19v3.37c0,.49.15.88.46,1.18s.71.45,1.21.45.89-.15,1.2-.45c.3-.3.46-.69.46-1.18,0-.1.06-.15.17-.15l1.64.07s.09.01.12.04c.03.03.05.06.05.1,0,.64-.15,1.21-.46,1.71-.3.49-.73.88-1.27,1.15-.55.27-1.18.41-1.9.41s-1.37-.14-1.92-.43Z"/>
      <path class="cls-1" d="M158.1,28.67s.05.07.05.12v1.37s-.02.09-.05.12c-.03.03-.07.05-.12.05h-2.51s-.07.02-.07.07v7.85s-.02.09-.05.12c-.03.03-.07.05-.12.05h-1.64s-.09-.02-.12-.05c-.03-.03-.05-.07-.05-.12v-7.85s-.02-.07-.07-.07h-2.44s-.09-.02-.12-.05c-.03-.03-.05-.07-.05-.12v-1.37s.02-.09.05-.12c.03-.03.07-.05.12-.05h7.06s.09.02.12.05Z"/>
      <path class="cls-1" d="M160.81,38.12c-.55-.28-.97-.67-1.27-1.18-.3-.51-.46-1.09-.46-1.76v-6.38s.02-.09.05-.12c.03-.03.07-.05.12-.05h1.64s.09.02.12.05c.03.03.05.07.05.12v6.4c0,.49.15.89.46,1.2.3.3.7.46,1.2.46s.89-.15,1.2-.46c.3-.3.45-.7.45-1.2v-6.4s.02-.09.05-.12c.03-.03.07-.05.12-.05h1.64s.09.02.12.05c.03.03.05.07.05.12v6.38c0,.66-.15,1.25-.46,1.76-.3.51-.73.9-1.27,1.18-.55.28-1.18.42-1.9.42s-1.35-.14-1.9-.42Z"/>
      <path class="cls-1" d="M172.89,38.3l-1.75-3.88s-.05-.06-.08-.06h-1.3s-.07.02-.07.07v3.82s-.02.09-.05.12c-.03.03-.07.05-.12.05h-1.64s-.09-.02-.12-.05c-.03-.03-.05-.07-.05-.12v-9.46s.02-.09.05-.12c.03-.03.07-.05.12-.05h4c.6,0,1.12.12,1.57.36.45.24.8.59,1.05,1.04.25.45.37.97.37,1.55,0,.63-.16,1.18-.48,1.63s-.76.77-1.33.96c-.05.02-.06.05-.04.1l1.9,3.96s.03.07.03.08c0,.07-.05.11-.15.11h-1.72c-.09,0-.16-.04-.2-.13ZM169.68,30.39v2.39s.02.07.07.07h1.83c.39,0,.71-.12.96-.35.25-.23.37-.54.37-.91s-.12-.68-.37-.92c-.25-.24-.57-.36-.96-.36h-1.83s-.07.02-.07.07Z"/>
      <path class="cls-1" d="M182.8,30.27s-.07.05-.12.05h-4.59s-.07.02-.07.07v2.17s.02.07.07.07h3.01s.09.02.12.05c.03.03.05.07.05.12v1.36s-.02.09-.05.12c-.03.03-.07.05-.12.05h-3.01s-.07.02-.07.07v2.27s.02.07.07.07h4.59s.09.02.12.05c.03.03.05.07.05.12v1.36s-.02.09-.05.12c-.03.03-.07.05-.12.05h-6.47s-.09-.02-.12-.05c-.03-.03-.05-.07-.05-.12v-9.46s.02-.09.05-.12c.03-.03.07-.05.12-.05h6.47s.09.02.12.05c.03.03.05.07.05.12v1.36s-.02.09-.05.12Z"/>
      <path class="cls-1" d="M91.02,55.11c-.55-.28-.98-.68-1.27-1.2-.3-.51-.45-1.11-.45-1.78v-3.23c0-.67.15-1.26.45-1.78.3-.51.72-.91,1.27-1.19.55-.28,1.19-.42,1.92-.42s1.35.13,1.9.4c.55.27.97.64,1.27,1.13.3.49.46,1.06.46,1.7,0,.08-.06.14-.17.15l-1.64.1h-.03c-.09,0-.14-.05-.14-.15,0-.49-.15-.89-.46-1.19-.3-.3-.7-.45-1.2-.45s-.91.15-1.21.45c-.3.3-.46.7-.46,1.19v3.37c0,.49.15.88.46,1.18s.71.45,1.21.45.89-.15,1.2-.45c.3-.3.46-.69.46-1.18,0-.1.06-.15.17-.15l1.64.07s.09.01.12.04c.03.03.05.06.05.1,0,.64-.15,1.21-.46,1.71-.3.49-.73.88-1.27,1.15-.55.27-1.18.41-1.9.41s-1.37-.14-1.92-.43Z"/>
      <path class="cls-1" d="M99.31,55.13c-.56-.3-.99-.72-1.29-1.25-.31-.54-.46-1.16-.46-1.85v-3c0-.69.15-1.3.46-1.83.31-.53.74-.94,1.29-1.24.55-.29,1.2-.44,1.92-.44s1.38.15,1.94.44c.55.29.99.71,1.29,1.24.31.53.46,1.14.46,1.83v3c0,.7-.15,1.32-.46,1.86-.31.54-.74.96-1.29,1.25-.56.29-1.2.44-1.94.44s-1.37-.15-1.92-.45ZM102.48,53.4c.32-.33.48-.76.48-1.3v-3.08c0-.54-.16-.98-.47-1.31-.31-.33-.73-.5-1.25-.5s-.93.17-1.24.5c-.31.33-.47.77-.47,1.31v3.08c0,.54.16.98.47,1.3.31.33.73.49,1.24.49s.93-.16,1.25-.49Z"/>
      <path class="cls-1" d="M111.87,45.67s.07-.05.12-.05h1.64s.09.02.12.05c.03.03.05.07.05.12v9.46s-.02.09-.05.12c-.03.03-.07.05-.12.05h-1.58c-.09,0-.16-.04-.2-.11l-3.63-5.99s-.04-.04-.06-.04c-.02,0-.03.03-.03.06l.03,5.91s-.02.09-.05.12c-.03.03-.07.05-.12.05h-1.64s-.09-.02-.12-.05c-.03-.03-.05-.07-.05-.12v-9.46s.02-.09.05-.12c.03-.03.07-.05.12-.05h1.58c.09,0,.16.04.2.11l3.61,5.96s.04.04.06.04c.02,0,.03-.03.03-.06v-5.88s0-.09.04-.12Z"/>
      <path class="cls-1" d="M116.65,55.18c-.56-.24-.99-.58-1.29-1.02-.3-.44-.46-.96-.46-1.55v-.31s.02-.09.05-.12c.03-.03.07-.05.12-.05h1.6s.09.02.12.05.05.07.05.12v.21c0,.37.17.69.52.95.34.26.81.38,1.4.38.5,0,.86-.1,1.11-.31.24-.21.36-.47.36-.78,0-.22-.08-.41-.22-.57-.15-.15-.35-.29-.61-.41s-.67-.28-1.23-.48c-.62-.21-1.15-.43-1.59-.66-.43-.22-.8-.53-1.09-.92-.29-.39-.44-.87-.44-1.44s.15-1.05.43-1.47.69-.74,1.2-.97c.51-.22,1.11-.34,1.78-.34.71,0,1.34.13,1.9.38.55.25.99.6,1.3,1.06s.47.98.47,1.58v.21s-.02.09-.05.12c-.03.03-.07.05-.12.05h-1.61s-.09-.02-.12-.05c-.03-.03-.05-.07-.05-.12v-.11c0-.39-.16-.73-.48-1-.32-.27-.76-.41-1.32-.41-.44,0-.78.09-1.03.28-.25.19-.37.44-.37.77,0,.23.07.43.22.59s.36.3.64.43c.29.13.73.3,1.32.51.66.24,1.18.46,1.56.64.38.19.72.46,1.02.83.3.37.46.85.46,1.44,0,.88-.32,1.57-.97,2.08s-1.52.76-2.62.76c-.75,0-1.4-.12-1.96-.36Z"/>
      <path class="cls-1" d="M130.1,45.67s.05.07.05.12v1.37s-.02.09-.05.12c-.03.03-.07.05-.12.05h-2.51s-.07.02-.07.07v7.85s-.02.09-.05.12c-.03.03-.07.05-.12.05h-1.64s-.09-.02-.12-.05c-.03-.03-.05-.07-.05-.12v-7.85s-.02-.07-.07-.07h-2.44s-.09-.02-.12-.05c-.03-.03-.05-.07-.05-.12v-1.37s.02-.09.05-.12c.03-.03.07-.05.12-.05h7.06s.09.02.12.05Z"/>
      <path class="cls-1" d="M136.33,55.3l-1.75-3.88s-.05-.06-.08-.06h-1.3s-.07.02-.07.07v3.82s-.02.09-.05.12c-.03.03-.07.05-.12.05h-1.64s-.09-.02-.12-.05c-.03-.03-.05-.07-.05-.12v-9.46s.02-.09.05-.12c.03-.03.07-.05.12-.05h4c.6,0,1.12.12,1.57.36.45.24.8.59,1.05,1.04.25.45.37.97.37,1.55,0,.63-.16,1.18-.48,1.63s-.76.77-1.33.96c-.05.02-.06.05-.04.1l1.9,3.96s.03.07.03.08c0,.07-.05.11-.15.11h-1.72c-.09,0-.16-.04-.2-.13ZM133.13,47.39v2.39s.02.07.07.07h1.83c.39,0,.71-.12.96-.35.25-.23.37-.54.37-.91s-.12-.68-.37-.92c-.25-.24-.57-.36-.96-.36h-1.83s-.07.02-.07.07Z"/>
      <path class="cls-1" d="M141.16,55.12c-.55-.28-.97-.67-1.27-1.18-.3-.51-.46-1.09-.46-1.76v-6.38s.02-.09.05-.12c.03-.03.07-.05.12-.05h1.64s.09.02.12.05c.03.03.05.07.05.12v6.4c0,.49.15.89.46,1.2.3.3.7.46,1.2.46s.89-.15,1.2-.46c.3-.3.45-.7.45-1.2v-6.4s.02-.09.05-.12c.03-.03.07-.05.12-.05h1.64s.09.02.12.05c.03.03.05.07.05.12v6.38c0,.66-.15,1.25-.46,1.76-.3.51-.73.9-1.27,1.18-.55.28-1.18.42-1.9.42s-1.35-.14-1.9-.42Z"/>
      <path class="cls-1" d="M149.49,55.11c-.55-.28-.98-.68-1.27-1.2-.3-.51-.45-1.11-.45-1.78v-3.23c0-.67.15-1.26.45-1.78.3-.51.72-.91,1.27-1.19.55-.28,1.19-.42,1.92-.42s1.35.13,1.9.4c.55.27.97.64,1.27,1.13.3.49.46,1.06.46,1.7,0,.08-.06.14-.17.15l-1.64.1h-.03c-.09,0-.14-.05-.14-.15,0-.49-.15-.89-.46-1.19-.3-.3-.7-.45-1.2-.45s-.91.15-1.21.45c-.3.3-.46.7-.46,1.19v3.37c0,.49.15.88.46,1.18s.71.45,1.21.45.89-.15,1.2-.45c.3-.3.46-.69.46-1.18,0-.1.06-.15.17-.15l1.64.07s.09.01.12.04c.03.03.05.06.05.1,0,.64-.15,1.21-.46,1.71-.3.49-.73.88-1.27,1.15-.55.27-1.18.41-1.9.41s-1.37-.14-1.92-.43Z"/>
      <path class="cls-1" d="M163,45.67s.05.07.05.12v1.37s-.02.09-.05.12c-.03.03-.07.05-.12.05h-2.51s-.07.02-.07.07v7.85s-.02.09-.05.12c-.03.03-.07.05-.12.05h-1.64s-.09-.02-.12-.05c-.03-.03-.05-.07-.05-.12v-7.85s-.02-.07-.07-.07h-2.44s-.09-.02-.12-.05c-.03-.03-.05-.07-.05-.12v-1.37s.02-.09.05-.12c.03-.03.07-.05.12-.05h7.06s.09.02.12.05Z"/>
      <path class="cls-1" d="M164.1,55.38s-.05-.07-.05-.12v-9.46s.02-.09.05-.12c.03-.03.07-.05.12-.05h1.64s.09.02.12.05c.03.03.05.07.05.12v9.46s-.02.09-.05.12c-.03.03-.07.05-.12.05h-1.64s-.09-.02-.12-.05Z"/>
      <path class="cls-1" d="M169.04,55.13c-.56-.3-.99-.72-1.29-1.25-.31-.54-.46-1.16-.46-1.85v-3c0-.69.15-1.3.46-1.83.31-.53.74-.94,1.29-1.24.55-.29,1.2-.44,1.92-.44s1.38.15,1.94.44c.55.29.99.71,1.29,1.24.31.53.46,1.14.46,1.83v3c0,.7-.15,1.32-.46,1.86-.31.54-.74.96-1.29,1.25-.56.29-1.2.44-1.94.44s-1.37-.15-1.92-.45ZM172.21,53.4c.32-.33.48-.76.48-1.3v-3.08c0-.54-.16-.98-.47-1.31-.31-.33-.73-.5-1.25-.5s-.93.17-1.24.5c-.31.33-.47.77-.47,1.31v3.08c0,.54.16.98.47,1.3.31.33.73.49,1.24.49s.93-.16,1.25-.49Z"/>
      <path class="cls-1" d="M181.6,45.67s.07-.05.12-.05h1.64s.09.02.12.05c.03.03.05.07.05.12v9.46s-.02.09-.05.12c-.03.03-.07.05-.12.05h-1.58c-.09,0-.16-.04-.2-.11l-3.63-5.99s-.04-.04-.06-.04c-.02,0-.03.03-.03.06l.03,5.91s-.02.09-.05.12c-.03.03-.07.05-.12.05h-1.64s-.09-.02-.12-.05c-.03-.03-.05-.07-.05-.12v-9.46s.02-.09.05-.12c.03-.03.07-.05.12-.05h1.58c.09,0,.16.04.2.11l3.61,5.96s.04.04.06.04c.02,0,.03-.03.03-.06v-5.88s0-.09.04-.12Z"/>
      <path class="cls-1" d="M97.85,72.33c0,.07-.05.1-.15.1h-1.83c-.08,0-.15-.03-.21-.1l-.55-.59s-.05-.03-.1-.01c-.87.54-1.8.81-2.8.81-.88,0-1.61-.21-2.19-.62-.58-.42-.88-1.03-.88-1.84,0-.62.17-1.15.5-1.58.34-.43.79-.82,1.37-1.16.06-.04.06-.07.01-.1-.47-.57-.77-1.01-.92-1.32-.15-.31-.22-.65-.22-1,0-.44.12-.84.36-1.21.24-.37.57-.66,1.01-.87.43-.21.93-.31,1.49-.31s1.08.11,1.53.32c.45.21.81.52,1.06.9s.38.83.38,1.32c0,.58-.16,1.08-.48,1.5s-.76.81-1.31,1.15c-.05.03-.05.06-.01.1l1.25,1.41s.08.04.11,0c.35-.39.64-.77.87-1.12.06-.1.13-.12.22-.06l1.22.69c.1.06.13.13.07.22-.39.62-.8,1.15-1.23,1.61-.03.03-.02.07.03.13l1.36,1.51c.04.06.06.09.06.11ZM93.79,70.41c.06-.04.06-.07.01-.1l-.43-.49-.32-.35c-.21-.21-.44-.48-.71-.78-.02-.03-.05-.03-.1-.01-.34.21-.59.4-.77.59-.18.19-.28.4-.31.64,0,.03-.01.07-.01.14,0,.25.11.46.32.61s.48.23.82.23c.45,0,.95-.16,1.51-.48ZM92.11,64.52c-.17.14-.25.34-.25.58,0,.13.05.28.14.43.09.16.3.43.62.81.02.04.05.05.1.03.34-.21.59-.42.76-.62.17-.2.26-.42.26-.66s-.09-.44-.27-.58c-.18-.14-.41-.22-.69-.22s-.5.07-.67.22Z"/>
      <path class="cls-1" d="M101.71,72.38s-.05-.07-.05-.12v-9.46s.02-.09.05-.12c.03-.03.07-.05.12-.05h1.64s.09.02.12.05c.03.03.05.07.05.12v9.46s-.02.09-.05.12c-.03.03-.07.05-.12.05h-1.64s-.09-.02-.12-.05Z"/>
      <path class="cls-1" d="M110.76,62.67s.07-.05.12-.05h1.64s.09.02.12.05c.03.03.05.07.05.12v9.46s-.02.09-.05.12c-.03.03-.07.05-.12.05h-1.58c-.09,0-.16-.04-.2-.11l-3.63-5.99s-.04-.04-.06-.04c-.02,0-.03.03-.03.06l.03,5.91s-.02.09-.05.12c-.03.03-.07.05-.12.05h-1.64s-.09-.02-.12-.05c-.03-.03-.05-.07-.05-.12v-9.46s.02-.09.05-.12c.03-.03.07-.05.12-.05h1.58c.09,0,.16.04.2.11l3.61,5.96s.04.04.06.04c.02,0,.03-.03.03-.06v-5.88s0-.09.04-.12Z"/>
      <path class="cls-1" d="M121.03,62.67s.05.07.05.12v1.37s-.02.09-.05.12c-.03.03-.07.05-.12.05h-2.51s-.07.02-.07.07v7.85s-.02.09-.05.12c-.03.03-.07.05-.12.05h-1.64s-.09-.02-.12-.05c-.03-.03-.05-.07-.05-.12v-7.85s-.02-.07-.07-.07h-2.44s-.09-.02-.12-.05c-.03-.03-.05-.07-.05-.12v-1.37s.02-.09.05-.12c.03-.03.07-.05.12-.05h7.06s.09.02.12.05Z"/>
      <path class="cls-1" d="M128.84,64.27s-.07.05-.12.05h-4.59s-.07.02-.07.07v2.17s.02.07.07.07h3.01s.09.02.12.05c.03.03.05.07.05.12v1.36s-.02.09-.05.12c-.03.03-.07.05-.12.05h-3.01s-.07.02-.07.07v2.27s.02.07.07.07h4.59s.09.02.12.05c.03.03.05.07.05.12v1.36s-.02.09-.05.12c-.03.03-.07.05-.12.05h-6.47s-.09-.02-.12-.05c-.03-.03-.05-.07-.05-.12v-9.46s.02-.09.05-.12c.03-.03.07-.05.12-.05h6.47s.09.02.12.05c.03.03.05.07.05.12v1.36s-.02.09-.05.12Z"/>
      <path class="cls-1" d="M135.19,72.3l-1.75-3.88s-.05-.06-.08-.06h-1.3s-.07.02-.07.07v3.82s-.02.09-.05.12c-.03.03-.07.05-.12.05h-1.64s-.09-.02-.12-.05c-.03-.03-.05-.07-.05-.12v-9.46s.02-.09.05-.12c.03-.03.07-.05.12-.05h4c.6,0,1.12.12,1.57.36.45.24.8.59,1.05,1.04.25.45.37.97.37,1.55,0,.63-.16,1.18-.48,1.63s-.76.77-1.33.96c-.05.02-.06.05-.04.1l1.9,3.96s.03.07.03.08c0,.07-.05.11-.15.11h-1.72c-.09,0-.16-.04-.2-.13ZM131.98,64.39v2.39s.02.07.07.07h1.83c.39,0,.71-.12.96-.35.25-.23.37-.54.37-.91s-.12-.68-.37-.92c-.25-.24-.57-.36-.96-.36h-1.83s-.07.02-.07.07Z"/>
      <path class="cls-1" d="M138.4,72.38s-.05-.07-.05-.12v-9.46s.02-.09.05-.12c.03-.03.07-.05.12-.05h1.64s.09.02.12.05c.03.03.05.07.05.12v9.46s-.02.09-.05.12c-.03.03-.07.05-.12.05h-1.64s-.09-.02-.12-.05Z"/>
      <path class="cls-1" d="M143.34,72.13c-.56-.3-.99-.72-1.29-1.25-.31-.54-.46-1.16-.46-1.85v-3c0-.69.15-1.3.46-1.83.31-.53.74-.94,1.29-1.24.55-.29,1.2-.44,1.92-.44s1.38.15,1.94.44c.55.29.99.71,1.29,1.24.31.53.46,1.14.46,1.83v3c0,.7-.15,1.32-.46,1.86-.31.54-.74.96-1.29,1.25-.56.29-1.2.44-1.94.44s-1.37-.15-1.92-.45ZM146.51,70.4c.32-.33.48-.76.48-1.3v-3.08c0-.54-.16-.98-.47-1.31-.31-.33-.73-.5-1.25-.5s-.93.17-1.24.5c-.31.33-.47.77-.47,1.31v3.08c0,.54.16.98.47,1.3.31.33.73.49,1.24.49s.93-.16,1.25-.49Z"/>
      <path class="cls-1" d="M155.4,72.3l-1.75-3.88s-.05-.06-.08-.06h-1.3s-.07.02-.07.07v3.82s-.02.09-.05.12c-.03.03-.07.05-.12.05h-1.64s-.09-.02-.12-.05c-.03-.03-.05-.07-.05-.12v-9.46s.02-.09.05-.12c.03-.03.07-.05.12-.05h4c.6,0,1.12.12,1.57.36.45.24.8.59,1.05,1.04.25.45.37.97.37,1.55,0,.63-.16,1.18-.48,1.63s-.76.77-1.33.96c-.05.02-.06.05-.04.1l1.9,3.96s.03.07.03.08c0,.07-.05.11-.15.11h-1.72c-.09,0-.16-.04-.2-.13ZM152.2,64.39v2.39s.02.07.07.07h1.83c.39,0,.71-.12.96-.35.25-.23.37-.54.37-.91s-.12-.68-.37-.92c-.25-.24-.57-.36-.96-.36h-1.83s-.07.02-.07.07Z"/>
    </g>
  </g>
</svg>