<?xml version="1.0" encoding="UTF-8"?>
<svg id="Layer_1" data-name="Layer 1" xmlns="http://www.w3.org/2000/svg" viewBox="0 0 80.63 80.75">
  <defs>
    <style>
      .circle-1 {
        fill: none;
        stroke: #909c86;
        stroke-miterlimit: 10;
        stroke-width: 3px;
      }

      .circle-2 {
        fill: #909c86;
      }
    </style>
  </defs>
  <circle class="circle-1" cx="40.31" cy="40.38" r="33.46"/>
  <path class="circle-2" d="M47.5,39.92c3.52-2.34,5.84-6.33,5.84-10.86,0-7.18-5.84-13.03-13.03-13.03s-13.03,5.84-13.03,13.03c0,4.53,2.33,8.52,5.84,10.86-7.96,2.94-13.66,10.57-13.66,19.54h3.47c0-9.58,7.79-17.37,17.37-17.37s17.37,7.79,17.37,17.37h3.47c0-8.96-5.7-16.6-13.66-19.54ZM40.31,38.62c-5.27,0-9.55-4.29-9.55-9.55s4.29-9.55,9.55-9.55,9.55,4.29,9.55,9.55-4.29,9.55-9.55,9.55Z"/>
</svg>