<?xml version="1.0" encoding="UTF-8"?>
<svg id="Layer_1" data-name="Layer 1" xmlns="http://www.w3.org/2000/svg" viewBox="0 0 150 141.79">
  <defs>
    <style>
      .cls-1 {
        fill: #909c86;
      }
    </style>
  </defs>
  <path class="cls-1" d="M65.03,45.74c.5-.4.92-1.15,1.75-1.68,2.25-1.43,9.43-2.77,12.22-2.92,5.72-.31,11.45,4.31,16.51,3.83,4.14-.4,1.46-2.12,3.77-3.94s10.27-6.96,12.83-8.08c2.07-.9,3.18-.6,4.61,1.08l19.01,27.48c1.21,2.4,1.06,4.09-.97,5.87s-8.96,6.28-11.53,7.46c-2.75,1.26-3.13-.16-5.59-.65l-7.94,5.29-.27.56c0,.7,1.42,1.35,1.94,1.93,2.79,3.12,1.76,8.34-2.1,10-1.34.58-3.77.43-4.24.71-.51.31-1.04,3.67-3.21,5.05-2.28,1.45-5.61.41-6.24.84-.38.25-.82,2.13-1.18,2.75-.65,1.13-1.96,2.14-3.2,2.58-1.15.4-3.66.37-4.07.61-.5.3-1.27,2.33-1.92,3.03-2.27,2.46-5.35,2.16-7.98.51-.86-.54-2.46-2.33-3.2-2.31-.51.01-2.04,1.67-2.63,2.04-2.89,1.83-5.39,1.4-7.56-1.21-.43-.52-1.07-2.02-1.42-2.22-1.12-.66-3.04-.09-5.02-1.52-1.24-.89-2.33-3.28-2.78-3.55-.88-.52-3.49,0-5.49-1.39-1.55-1.08-2.22-3.49-2.93-3.94-1.4-.89-3.34-.4-5.22-2.21-1.06-1.03-1.69-3.24-2.33-3.72-.74-.56-2.72-.53-3.86-1.1-2.92-1.45-3.96-5.49-2.15-8.2.88-1.31,3.33-2.38.77-3.88-2.42-1.42-3.38,1.46-6.51.18-2.14-.88-9.64-5.88-11.51-7.48-3.2-2.75-1.76-5,.07-7.89,5.56-8.76,12.22-16.89,17.85-25.61,1.74-2.03,2.44-1.63,4.76-.46,4,2.03,7.93,4.98,11.71,7.61.77.54,1.32,1.31,1.69,2.18.72,1.7,2.71,1.73,4.77,2.11,1.62.3,7.71,1.15,8.78.28ZM35.84,34.88c-.41.09-.75.33-.99.68-5.47,8.95-12.89,17.37-18.28,26.28-.94,1.56-1.31,2.65.2,4.04s8.58,5.85,10.51,6.82c2.37,1.19,2.78-.8,4.17-2.34l17.22-25.8c.41-.62.25-1.45-.35-1.87-3.08-2.13-11.67-8-12.48-7.83ZM113.22,34.88l-12.03,7.53c-.37.29-.81.73-.71,1.24l19.43,28.7c.52.82,1.39.81,2.28.63l11.07-7.09c.82-.65,1.15-1.51.91-2.55l-18.99-27.78c-.45-.65-1.2-.84-1.96-.68ZM78.82,43.43c-2.24.16-9.33,1.32-10.97,2.52-4,4.97-8.52,9.64-12.04,14.92-.47,1.76.54,3.52,2.34,3.86,2.93.54,5.19-1.31,7.24-3.09,3.16-2.74,5.79-6.28,9.28-8.61.69-.16,1.42-.08,1.99.37l29.76,24.43c.6.25,1.31.27,1.91,0,1.41-1.66,7.06-4.04,8.01-5.47.29-.43.39-.76.11-1.24l-16.67-24.32c-1.23-.95-2.63.21-4.01.37-5.65.65-10.92-4.17-16.96-3.74ZM62.9,48.3c-2.31-.31-4.64-.24-6.94-.63-1.45-.25-4.88-1.77-5.88-1.04l-16.92,25.17c0,.64,2.56,2.24,3.22,2.26.76.03,1.79-1.06,2.77-1.24,1.85-.34,3.79-.02,5.17,1.31.59.57,1.35,2.36,1.86,2.57,1.3.54,3.54-.82,5.91.4s2.89,4.62,3.39,4.88c.6.31,1.32-.17,2.03-.14,1.38.06,3.14.99,4.02,2.05.7.85,1.18,2.73,1.82,3.13.7.44,2.36.35,3.41.72,1.44.51,2.78,1.83,3.37,3.24.41,1,.41,3.18.62,3.5.32.49,3.61.74,4.98,3.27,1.53,2.81-.32,5.07.26,6.33.48,1.04,3.56,2.88,4.76,2.97,1.91.15,4.57-2.09,4.01-4.01s-7.66-6.2-9.2-8.15c-.76-1,.23-2.21,1.38-1.66,3.79,2.84,7.13,6.52,11.23,8.87,3.43.7,6.8-3.7,4.04-6.51l-9.77-8.11c-.76-1.22-.01-2.32,1.39-1.66,3.61,2.74,7.02,6.23,10.61,8.92,1.17.87,2.53,1.98,4.08,1.91,3.08-.14,5.37-4.16,3.08-6.59l-12.14-10.14c-.97-.77-.09-2.17.96-1.81.35.12,1.64,1.19,2.07,1.53,3.6,2.77,8.2,7.74,11.8,9.94,4.54,2.77,8.78-2.83,5.05-6.55l-33.71-27.53c-.55-.13-.91.22-1.31.5-4.09,2.94-8.67,10.34-14.07,10.96-4.45.51-7.55-2.7-6.6-7.13,2.58-3.82,6.07-7.06,8.83-10.7.21-.27.54-.34.41-.82ZM39.69,74.74c-1.39.18-5.69,5.46-5.86,6.8-.34,2.54,3.63,5,5.55,3.6.33-.24,3.12-3.84,3.54-4.44.98-1.43,1.69-2.06.77-3.74-.72-1.31-2.47-2.42-3.99-2.22ZM48.23,78.59c-.41.08-.93.41-1.28.64-.68.46-5.59,6.54-5.74,7.18-.75,3.21,3.55,6.53,6.11,4.18.71-.65,4.61-5.57,5.12-6.44,1.71-2.91-1.05-6.21-4.2-5.57ZM56.22,84.09c-.76.16-1.46.77-2,1.3-.6.6-5.18,6.38-5.3,6.8-.86,2.96,2.9,5.96,5.45,4.07.86-.64,5-5.72,5.62-6.76,1.78-2.94-.46-6.09-3.77-5.41ZM57.76,100.42c1.33,1.43,3.74,2.11,5.28.65.58-.54,5.1-6.16,5.23-6.59,1.03-3.45-2.82-6.31-5.64-4.54-.92.58-5.07,5.61-5.46,6.64-.55,1.45-.49,2.67.59,3.83ZM69.7,97c-.9.21-4.95,5.05-5.11,5.91-.44,2.39,2.49,4.1,4.72,3.59,1.08-.25,4.6-3.86,4.82-4.81.62-2.71-1.59-5.35-4.43-4.69Z"/>
  <path class="cls-1" d="M123.14,59.35c5.62-.82,6.74,7.9,1,8.45-5.41.52-6.39-7.66-1-8.45ZM123.14,61.54c-2.57.55-1.62,4.96,1.47,3.95,1.8-.59,1.61-4.61-1.47-3.95Z"/>
  <path class="cls-1" d="M29.21,66.62c-3.44,3.43-9.54-1.04-6.63-5.38,3.42-5.11,10.98,1.07,6.63,5.38ZM25.37,61.54c-2.33.7-1.41,4.86,1.47,3.95,2.65-.84,1.24-4.76-1.47-3.95Z"/>
</svg>