<?xml version="1.0" encoding="UTF-8"?>
<svg id="Layer_1" data-name="Layer 1" xmlns="http://www.w3.org/2000/svg" viewBox="0 0 150 141.79">
  <defs>
    <style>
      .cls-1 {
        fill: #909c86;
      }
    </style>
  </defs>
  <path class="cls-1" d="M25.46,124.26c-.35-.41-.29-.93.17-1.54l33.78-51.36c.23-.31.23-.62,0-.93L25.63,19.07l-.35-.93c0-.82.64-1.23,1.92-1.23h22.12c1.16,0,2.03.41,2.61,1.23l22.64,35.32c.35.62.7.62,1.04,0l22.64-35.32c.58-.82,1.45-1.23,2.61-1.23h21.94c.81,0,1.39.21,1.74.62.35.41.29.92-.17,1.54l-33.78,51.36c-.12.31-.12.62,0,.93l33.78,51.36.35.93c0,.82-.64,1.23-1.92,1.23h-21.94c-1.16,0-2.03-.41-2.61-1.23l-22.64-35.16c-.35-.62-.7-.62-1.04,0l-22.81,35.16c-.58.82-1.45,1.23-2.61,1.23h-21.94c-.81,0-1.39-.2-1.74-.62Z"/>
</svg>