<?xml version="1.0" encoding="UTF-8"?>
<svg id="Layer_1" data-name="Layer 1" xmlns="http://www.w3.org/2000/svg" viewBox="0 0 80.63 80.75">
  <defs>
    <style>
      .cls-1 {
        fill: #fff3de;
      }
    </style>
  </defs>
  <path class="cls-1" d="M64.56,13.05H16.07c-6.3,0-11.43,5.13-11.43,11.43v28.33c0,9.32,7.58,16.89,16.89,16.89h37.56c9.31,0,16.89-7.58,16.89-16.89v-28.33c0-6.3-5.13-11.43-11.43-11.43ZM62.65,20.62l-18.63,21.35c-.95,1.09-2.27,1.69-3.72,1.69s-2.77-.6-3.72-1.69l-18.62-21.35h44.69ZM59.09,62.15H21.53c-5.14,0-9.33-4.18-9.33-9.33v-27.3l18.69,21.42c2.38,2.72,5.81,4.28,9.42,4.28s7.04-1.56,9.42-4.28l18.69-21.42v27.3c0,5.14-4.19,9.33-9.33,9.33Z"/>
</svg>