<?xml version="1.0" encoding="UTF-8"?>
<svg id="Layer_1" data-name="Layer 1" xmlns="http://www.w3.org/2000/svg" viewBox="0 0 80.63 80.75">
  <defs>
    <style>
      .cls-1 {
        fill: #fff3de;
        fill-rule: evenodd;
      }
    </style>
  </defs>
  <path class="cls-1" d="M63.57,50.49c-2.59-1.55-5.95-3.27-8.99-2.03-2.34.96-3.83,4.61-5.34,6.48-.78.96-1.7,1.11-2.9.63-8.77-3.49-15.49-9.35-20.33-17.42-.82-1.25-.67-2.24.31-3.4,1.46-1.72,3.3-3.68,3.69-6,.4-2.32-.69-5.03-1.65-7.1-1.23-2.64-2.6-6.4-5.24-7.9-2.43-1.37-5.63-.6-7.8,1.16-3.74,3.04-5.54,7.81-5.49,12.54.01,1.34.18,2.68.49,3.98.75,3.12,2.2,6.03,3.82,8.8,1.22,2.09,2.55,4.11,3.99,6.06,4.69,6.37,10.53,11.91,17.29,16.05,3.38,2.07,7.01,3.88,10.78,5.13,4.22,1.4,7.99,2.85,12.55,1.98,4.78-.91,9.48-3.86,11.38-8.46.56-1.36.84-2.88.53-4.32-.65-2.98-4.68-4.74-7.08-6.18Z"/>
</svg>