<?xml version="1.0" encoding="UTF-8"?>
<svg id="Layer_1" data-name="Layer 1" xmlns="http://www.w3.org/2000/svg" viewBox="0 0 150 141.79">
  <defs>
    <style>
      .cls-quality-1 {
        fill: #ffffff00;
      }

      .cls-2 {
        fill: #909c86;
      }
    </style>
  </defs>
  <path class="cls-2" d="M118.83,124.61l-20.04-4.2-11.44,16.97-9.74-23.99-10.18,24.09-11.2-17.14-20.09,3.92,14.09-33.35.79-1.88c.66.12,1.42.13,2.22.15,1.41.03,2.88.06,4.11.69,1.21.62,2.08,1.78,2.93,2.9.85,1.12,1.65,2.18,2.61,2.49.92.3,2.18-.08,3.5-.48,1.11-.34,2.25-.69,3.38-.69.26,0,.51.02.77.06,1.33.21,2.52,1.04,3.66,1.84,1.16.8,2.26,1.57,3.28,1.57s2.12-.77,3.28-1.57c1.15-.8,2.33-1.63,3.66-1.84,1.38-.21,2.79.21,4.15.63,1.33.4,2.58.78,3.5.48.96-.31,1.76-1.37,2.61-2.49.85-1.12,1.73-2.28,2.94-2.9,1.22-.63,2.69-.66,4.11-.69.96-.02,1.88-.04,2.62-.25l.76,1.87,13.72,33.81Z"/>
  <path class="cls-2" d="M124.76,54.77c.95-1.37,1.93-2.77,1.93-4.42s-.98-3.06-1.93-4.42c-.7-1.01-1.36-1.96-1.5-2.84-.14-.92.2-2.05.57-3.25.47-1.56.96-3.18.46-4.7-.5-1.56-1.86-2.59-3.18-3.59-.98-.74-1.91-1.45-2.32-2.25-.42-.82-.45-2-.47-3.24-.04-1.64-.08-3.34-1.03-4.64-.95-1.31-2.56-1.87-4.11-2.41-1.17-.41-2.28-.79-2.93-1.44-.64-.64-1.03-1.75-1.43-2.92-.54-1.56-1.1-3.16-2.41-4.12-1.31-.95-3-.98-4.64-1.02-1.25-.03-2.42-.05-3.24-.47-.81-.41-1.51-1.34-2.26-2.32-.99-1.32-2.02-2.68-3.58-3.19-1.52-.49-3.14,0-4.7.47-1.2.36-2.34.71-3.26.56-.87-.13-1.82-.8-2.83-1.5-1.36-.94-2.77-1.92-4.42-1.92s-3.06.98-4.42,1.92c-1,.7-1.96,1.37-2.83,1.5-.93.15-2.06-.2-3.26-.56-1.56-.47-3.17-.96-4.7-.47-1.55.51-2.59,1.87-3.58,3.19-.75.98-1.45,1.91-2.25,2.32-.82.42-2,.44-3.25.47-1.64.04-3.33.07-4.64,1.02-1.31.96-1.87,2.56-2.4,4.12-.41,1.17-.8,2.28-1.44,2.92-.65.65-1.75,1.03-2.93,1.44-1.55.54-3.16,1.1-4.11,2.41-.95,1.3-.99,3-1.02,4.64-.03,1.24-.05,2.42-.47,3.24-.41.8-1.34,1.51-2.33,2.25-1.31,1-2.68,2.03-3.18,3.59-.5,1.52-.01,3.14.47,4.7.36,1.2.7,2.33.56,3.25-.14.88-.8,1.83-1.5,2.84-.95,1.36-1.93,2.76-1.93,4.42s.98,3.06,1.93,4.42c.7,1,1.36,1.95,1.5,2.83.14.92-.2,2.05-.56,3.25-.48,1.57-.97,3.18-.47,4.71.5,1.55,1.87,2.58,3.18,3.58.99.74,1.92,1.45,2.33,2.25.42.82.44,2,.47,3.24.03,1.64.07,3.34,1.02,4.64.95,1.32,2.56,1.87,4.11,2.41,1.18.41,2.29.79,2.93,1.44.64.64,1.03,1.75,1.44,2.92.53,1.56,1.09,3.16,2.4,4.12.51.37,1.08.6,1.68.75.94.23,1.96.25,2.96.27,1.25.03,2.43.05,3.25.47.8.41,1.5,1.34,2.25,2.32.99,1.32,2.03,2.68,3.58,3.19,1.53.5,3.14,0,4.7-.47,1.2-.36,2.33-.71,3.26-.56.87.14,1.82.8,2.83,1.5,1.36.95,2.77,1.93,4.42,1.93s3.06-.98,4.42-1.93c1.01-.7,1.96-1.36,2.83-1.5.93-.15,2.06.2,3.26.56,1.56.48,3.18.96,4.7.47,1.56-.51,2.59-1.87,3.58-3.19.75-.98,1.45-1.91,2.26-2.32.82-.42,1.99-.44,3.24-.47,1.14-.02,2.3-.05,3.34-.38.46-.15.9-.35,1.3-.64,1.31-.96,1.87-2.56,2.41-4.12.4-1.17.79-2.28,1.43-2.92.65-.65,1.76-1.03,2.93-1.44,1.55-.54,3.16-1.09,4.11-2.41.95-1.3.99-3,1.03-4.64.02-1.24.05-2.42.47-3.24.41-.8,1.34-1.51,2.32-2.25,1.32-1,2.68-2.03,3.18-3.58.5-1.53.01-3.14-.46-4.71-.37-1.2-.71-2.33-.57-3.25.14-.88.8-1.83,1.5-2.83ZM123.12,53.62c-.8,1.15-1.62,2.34-1.83,3.67-.22,1.37.21,2.78.62,4.14.4,1.33.78,2.58.48,3.51-.31.96-1.37,1.76-2.49,2.6-1.12.85-2.28,1.73-2.89,2.94-.63,1.23-.66,2.69-.69,4.11-.03,1.39-.06,2.71-.64,3.51-.59.8-1.84,1.23-3.16,1.69-1.33.47-2.71.95-3.68,1.91-.97.97-1.45,2.35-1.91,3.69-.46,1.32-.89,2.57-1.7,3.15-.25.18-.54.31-.88.39-.74.21-1.66.23-2.62.25-1.42.03-2.89.06-4.11.69-1.21.62-2.09,1.78-2.94,2.9-.85,1.12-1.65,2.18-2.61,2.49-.92.3-2.17-.08-3.5-.48-1.36-.42-2.77-.84-4.15-.63-1.33.21-2.51,1.04-3.66,1.84-1.16.8-2.25,1.57-3.28,1.57s-2.12-.77-3.28-1.57c-1.14-.8-2.33-1.63-3.66-1.84-.26-.04-.51-.06-.77-.06-1.13,0-2.27.35-3.38.69-1.32.4-2.58.78-3.5.48-.96-.31-1.76-1.37-2.61-2.49-.85-1.12-1.72-2.28-2.93-2.9-1.23-.63-2.7-.66-4.11-.69-.8-.02-1.56-.03-2.22-.15-.5-.09-.94-.24-1.29-.49-.8-.58-1.24-1.83-1.7-3.15-.46-1.34-.94-2.72-1.91-3.69-.97-.96-2.35-1.44-3.68-1.91-1.32-.46-2.57-.89-3.15-1.69-.59-.8-.61-2.12-.64-3.51-.03-1.42-.07-2.88-.69-4.11-.62-1.21-1.78-2.09-2.9-2.94-1.12-.84-2.18-1.64-2.49-2.6-.3-.93.08-2.18.48-3.51.41-1.36.84-2.77.62-4.14-.2-1.33-1.03-2.52-1.83-3.67-.81-1.16-1.57-2.25-1.57-3.27s.76-2.12,1.57-3.28c.8-1.15,1.63-2.33,1.83-3.67.22-1.37-.21-2.78-.62-4.14-.4-1.33-.78-2.58-.48-3.51.31-.95,1.37-1.75,2.49-2.6,1.12-.85,2.28-1.73,2.9-2.94.62-1.23.66-2.69.69-4.11.03-1.39.05-2.71.64-3.5.58-.81,1.83-1.24,3.15-1.7,1.33-.46,2.71-.94,3.68-1.91.97-.97,1.45-2.35,1.91-3.69.46-1.32.9-2.56,1.7-3.15.8-.58,2.11-.61,3.51-.64,1.41-.03,2.88-.06,4.11-.69,1.21-.62,2.08-1.78,2.93-2.9.85-1.12,1.65-2.17,2.61-2.48.93-.31,2.18.07,3.5.48,1.37.41,2.77.83,4.15.62,1.33-.21,2.52-1.04,3.66-1.83,1.16-.81,2.26-1.57,3.28-1.57s2.12.76,3.28,1.57c1.15.79,2.33,1.62,3.66,1.83,1.38.21,2.79-.21,4.15-.62,1.32-.41,2.58-.79,3.5-.48.96.31,1.76,1.36,2.61,2.48.85,1.12,1.73,2.28,2.94,2.9,1.22.63,2.69.66,4.11.69,1.39.03,2.7.06,3.5.64.81.59,1.24,1.83,1.7,3.15.46,1.34.94,2.72,1.91,3.69.97.97,2.35,1.45,3.68,1.91,1.32.46,2.57.89,3.16,1.7.58.79.61,2.11.64,3.5.03,1.42.06,2.88.69,4.11.61,1.21,1.77,2.09,2.89,2.94,1.12.85,2.18,1.65,2.49,2.6.3.93-.08,2.18-.48,3.51-.41,1.36-.84,2.77-.62,4.14.21,1.34,1.03,2.52,1.83,3.67.81,1.16,1.57,2.25,1.57,3.28s-.76,2.11-1.57,3.27Z"/>
  <path class="cls-quality-1" d="M113.49,50.35c0,19.88-16.12,36-36.01,36s-36-16.12-36-36S57.6,14.34,77.48,14.34s36.01,16.12,36.01,36.01Z"/>
  <path class="cls-2" d="M77.48,16.73c-18.53,0-33.62,15.08-33.62,33.62s15.09,33.61,33.62,33.61,33.62-15.08,33.62-33.61-15.08-33.62-33.62-33.62ZM77.48,81.96c-17.43,0-31.62-14.18-31.62-31.61s14.19-31.62,31.62-31.62,31.62,14.18,31.62,31.62-14.18,31.61-31.62,31.61Z"/>
  <polygon class="cls-2" points="97.86 37.14 73.96 67.04 71.41 70.23 68.16 67.51 57.1 58.22 64.28 51.04 70.46 58.41 88.6 30.46 97.86 37.14"/>
</svg>