<?xml version="1.0" encoding="UTF-8"?>
<svg id="Layer_1" data-name="Layer 1" xmlns="http://www.w3.org/2000/svg" viewBox="0 0 150 141.79">
  <defs>
    <style>
      .cls-1 {
        fill: #909c86;
      }
    </style>
  </defs>
  <path class="cls-1" d="M75,5.62C38.95,5.62,9.73,34.84,9.73,70.89s29.22,65.27,65.27,65.27,65.27-29.22,65.27-65.27S111.05,5.62,75,5.62ZM79.93,126.08v-4.39c0-2.72-2.2-4.93-4.93-4.93s-4.93,2.2-4.93,4.93v4.39c-26.68-2.36-47.98-23.71-50.27-50.42h4.25c2.72,0,4.93-2.2,4.93-4.93s-2.2-4.93-4.93-4.93h-4.22c2.43-26.56,23.67-47.75,50.25-50.11v4.08c0,2.72,2.2,4.93,4.93,4.93s4.93-2.2,4.93-4.93v-4.08c26.58,2.35,47.82,23.55,50.25,50.11h-4.22c-2.72,0-4.93,2.2-4.93,4.93s2.2,4.93,4.93,4.93h4.25c-2.29,26.7-23.59,48.05-50.27,50.42Z"/>
  <path class="cls-1" d="M104.35,39.09l-29.18,30.58c-.05,0-.11,0-.17,0-.37,0-.72.04-1.07.1l-24.42-18.45c-1.62-1.21-3.93-.9-5.17.73-1.23,1.62-.91,3.94.72,5.18l24.41,18.45c.24,2.84,2.62,5.08,5.52,5.08,3.06,0,5.54-2.48,5.54-5.54,0-.15-.01-.29-.02-.43l29.17-30.58c1.41-1.48,1.36-3.81-.12-5.22-1.47-1.41-3.81-1.35-5.22.13Z"/>
</svg>