<?xml version="1.0" encoding="UTF-8"?>
<svg id="Layer_1" data-name="Layer 1" xmlns="http://www.w3.org/2000/svg" viewBox="0 0 80.63 80.75">
  <defs>
    <style>
      .cls-1 {
        fill: #fff3de;
      }
    </style>
  </defs>
  <path class="cls-1" d="M48.81,40.07l-11.78-6.41c-.48-.28-2.14.07-2.14.63v12.5c0,.55,1.64.9,2.12.64l12.31-6.09c.5-.27-.02-.99-.51-1.27Z"/>
  <path class="cls-1" d="M40.31,2.98C19.66,2.98,2.91,19.72,2.91,40.38s16.74,37.4,37.4,37.4,37.4-16.74,37.4-37.4S60.97,2.98,40.31,2.98ZM65.46,46.76c0,5.93-4.8,10.73-10.73,10.73h-27.44c-5.93,0-10.73-4.8-10.73-10.73v-12.77c0-5.93,4.8-10.73,10.73-10.73h27.44c5.93,0,10.73,4.81,10.73,10.73v12.77Z"/>
</svg>