<?xml version="1.0" encoding="UTF-8"?>
<svg id="Layer_1" data-name="Layer 1" xmlns="http://www.w3.org/2000/svg" viewBox="0 0 150 141.79">
  <defs>
    <style>
      .cls-1 {
        fill: #909c86;
      }
    </style>
  </defs>
  <path class="cls-1" d="M34.84,65.81v42.96c32.22.99,60.61,23.21,92.83,22.22v-42.96c-32.22,1.16-60.61-21.09-92.83-22.22ZM123.89,123.42c-2.09,0-3.78,1.69-3.78,3.78,0,.05.01.1.01.15-27.19,1.02-50.54-21.2-77.73-22.22,0-.05.01-.1.01-.15,0-2.09-1.69-3.78-3.78-3.78-.05,0-.1.01-.15.02v-27.86c.05,0,.1.02.15.02,2.09,0,3.78-1.69,3.78-3.78,0-.05-.01-.1-.01-.15,27.19.47,50.54,22.7,77.73,22.22,0,.05-.01.1-.01.15,0,2.09,1.69,3.78,3.78,3.78.05,0,.1-.01.15-.02v27.86c-.05,0-.1-.02-.15-.02ZM92.39,101.84c0,7.94-4.64,11.31-10.36,11.31s-10.36-9.5-10.36-17.43,4.64-10.54,10.36-10.54,10.36,8.73,10.36,16.67Z"/>
  <g>
    <path class="cls-1" d="M31.78,62.63l3.12.11c.16-.7.12-1.44-.15-2.16-.02-.05-.05-.09-.07-.13,25.61-9.12,55.3,3.46,80.58-6.56.02.05.02.1.04.15.73,1.96,2.92,2.95,4.87,2.21.05-.02.09-.05.14-.07l9.8,26.08s-.1.02-.15.04c-1.22.46-2.06,1.48-2.35,2.66l3.12-.11v5.17c1.83-.58,3.64-1.23,5.43-1.97l-15.12-40.21c-29.75,12.42-64.15,1.58-94.71,11.87l5.44,14.47v-11.54Z"/>
    <path class="cls-1" d="M93.89,78.99c.1-1.71-.19-3.64-1.01-5.81-2.79-7.43-10.21-13.97-15.56-11.95-4.25,1.6-7.27,4.5-6.95,9.34,3.28,1.15,6.53,2.34,9.75,3.53,4.65,1.71,9.22,3.39,13.77,4.9Z"/>
  </g>
  <g>
    <path class="cls-1" d="M28.27,73.55l-6.37-5.63s.08-.06.11-.1c1.38-1.57,1.23-3.96-.33-5.34-.04-.03-.08-.06-.12-.09,18.35-20.07,50.47-22.86,68.1-43.56.04.03.06.08.1.11,1.57,1.38,3.96,1.24,5.34-.33.03-.04.06-.08.09-.12l20.89,18.44s-.08.06-.11.1c-1.38,1.57-1.23,3.95.33,5.34.04.03.08.06.12.09-1.63,1.99-3.39,3.81-5.26,5.5,2.29-.62,4.55-1.35,6.79-2.21,2.18-2.04,4.25-4.21,6.18-6.55l-32.2-28.43c-20.45,24.92-55.93,31.47-78.1,54.87l17.16,15.15-2.73-7.25Z"/>
    <path class="cls-1" d="M82.71,51.38c-.69-1.68-1.92-3.37-3.78-5.01-5.95-5.25-15.56-7.55-19.35-3.27-2.32,2.63-3.63,5.59-2.94,8.7,5.02-.2,10.03-.24,14.99-.28,3.74-.03,7.43-.06,11.08-.15Z"/>
  </g>
</svg>