<?xml version="1.0" encoding="UTF-8"?>
<svg id="Layer_1" data-name="Layer 1" xmlns="http://www.w3.org/2000/svg" viewBox="0 0 150 141.79">
  <defs>
    <style>
      .cls-1 {
        fill: #909c86;
      }
    </style>
  </defs>
  <g>
    <path class="cls-1" d="M91.97,36.36c-16.44,0-29.81,13.38-29.81,29.83s13.37,29.83,29.81,29.83,29.83-13.38,29.83-29.83-13.37-29.83-29.83-29.83ZM118.43,66.18c0,14.59-11.87,26.47-26.47,26.47s-26.45-11.87-26.45-26.47,11.87-26.47,26.45-26.47,26.47,11.87,26.47,26.47Z"/>
    <path class="cls-1" d="M143.76,79.67l1.56-17.78-14.06-2.62c-.4-2.32-1.01-4.58-1.8-6.75l10.85-9.29-10.24-14.63-12.48,7.05c-1.78-1.51-3.68-2.85-5.69-4l2.35-14.12-17.25-4.64-5,13.38h-.03c-2.35,0-4.69.2-6.95.6l-7.25-12.29-16.17,7.54,4.77,13.49c-2.07,1.73-3.96,3.68-5.68,5.84l2.64,2.08c1.29-1.65,2.7-3.14,4.23-4.53.84-.76,1.73-1.48,2.64-2.13l-1.16-3.33-3.46-9.76,10.92-5.09,5.26,8.92,1.76,3.01c1.11-.27,2.22-.47,3.34-.62,1.28-.2,2.59-.3,3.9-.34.4-.03.82-.03,1.23-.03.72,0,1.44.02,2.17.07l1.23-3.27,3.63-9.69,11.64,3.12-1.71,10.21-.57,3.44c1.02.5,2.02,1.07,2.97,1.68,1.09.67,2.15,1.41,3.16,2.23.89.67,1.75,1.41,2.57,2.2l3.04-1.71,9.03-5.11,6.92,9.87-7.88,6.73-2.65,2.27c.45,1.02.86,2.1,1.21,3.17.4,1.23.74,2.47,1.01,3.74.23,1.09.42,2.22.54,3.36l3.44.64,10.18,1.9-1.04,12.01-10.36.08-3.49.03c-.32,1.09-.69,2.17-1.13,3.21-.49,1.21-1.02,2.38-1.65,3.51-.52,1.01-1.11,2-1.73,2.94l2.22,2.69,6.58,7.99-8.51,8.53-8.01-6.6-2.69-2.22c-.94.64-1.91,1.21-2.92,1.75-1.13.6-2.3,1.16-3.51,1.65-1.04.42-2.12.81-3.21,1.13l-.03,3.49-.1,10.34-12.01,1.06-1.88-10.18-.64-3.43c-.37-.05-3.09-1.06-3.46-1.11l.76,4.06,2.62,14.07,17.78-1.54.13-14.29c2.2-.81,4.32-1.8,6.31-2.97l11.05,9.1,12.63-12.63-9.1-11.05c1.18-2,2.18-4.13,2.99-6.33l14.27-.13Z"/>
  </g>
  <g>
    <path class="cls-1" d="M42.21,103.7c10.95,0,19.85-8.91,19.85-19.86s-8.9-19.86-19.85-19.86-19.86,8.91-19.86,19.86,8.9,19.86,19.86,19.86ZM24.58,83.84c0-9.72,7.91-17.62,17.62-17.62s17.61,7.91,17.61,17.62-7.91,17.62-17.61,17.62-17.62-7.91-17.62-17.62Z"/>
    <path class="cls-1" d="M7.72,74.86l-1.04,11.84,9.36,1.74c.27,1.54.67,3.05,1.2,4.5l-7.22,6.18,6.82,9.74,8.31-4.7c1.19,1.01,2.45,1.9,3.79,2.66l-1.57,9.4,11.48,3.09,3.33-8.91h.02c1.57,0,3.12-.13,4.63-.4l4.83,8.19,10.77-5.02-3.18-8.98c1.38-1.15,2.64-2.45,3.78-3.89l-1.76-1.39c-.86,1.1-1.8,2.09-2.82,3.02-.56.5-1.15.98-1.76,1.42l.77,2.21,2.3,6.5-7.27,3.39-3.5-5.94-1.17-2c-.74.18-1.48.31-2.23.41-.85.13-1.72.2-2.59.22-.27.02-.55.02-.82.02-.48,0-.96-.01-1.44-.04l-.82,2.18-2.42,6.45-7.75-2.08,1.14-6.8.38-2.29c-.68-.34-1.34-.72-1.98-1.12-.73-.45-1.43-.94-2.1-1.49-.59-.45-1.16-.94-1.71-1.46l-2.02,1.14-6.02,3.4-4.61-6.58,5.24-4.48,1.77-1.51c-.3-.68-.57-1.4-.81-2.11-.27-.82-.49-1.64-.67-2.49-.16-.73-.28-1.48-.36-2.24l-2.29-.42-6.78-1.26.69-8,6.9-.06,2.33-.02c.21-.73.46-1.44.75-2.14.32-.81.68-1.59,1.1-2.34.35-.67.74-1.33,1.15-1.96l-1.48-1.79-4.38-5.32,5.67-5.68,5.33,4.39,1.79,1.48c.63-.42,1.27-.81,1.95-1.16.75-.4,1.53-.77,2.34-1.1.69-.28,1.41-.54,2.14-.75l.02-2.33.07-6.89,8-.7,1.25,6.78.42,2.28c.25.03,2.06.7,2.3.74l-.5-2.71-1.74-9.37-11.84,1.03-.09,9.52c-1.46.54-2.87,1.2-4.2,1.98l-7.36-6.06-8.41,8.41,6.06,7.36c-.78,1.33-1.45,2.75-1.99,4.22l-9.5.09Z"/>
  </g>
</svg>