<?xml version="1.0" encoding="UTF-8"?>
<svg id="Layer_1" data-name="Layer 1" xmlns="http://www.w3.org/2000/svg" viewBox="0 0 150 141.79">
  <defs>
    <style>
      .cls-1 {
        fill: #909c86;
      }
    </style>
  </defs>
  <path class="cls-1" d="M24.59,63.72c5.23-.02,10.46.71,14.2,2,3.79,1.27,6.13,3.07,6.21,4.93.14,1.86-1.94,3.74-5.74,5.09-3.79,1.35-9.19,2.15-14.66,2.16-5.47,0-10.87-.81-14.67-2.16-3.81-1.35-5.88-3.24-5.74-5.09.09-1.86,2.42-3.67,6.21-4.93,3.74-1.29,8.97-2.02,14.2-2ZM24.59,63.85c-5.23,0-10.38.71-14,1.89-3.63,1.19-5.6,2.84-5.47,4.46.09,1.63,2.32,3.21,5.94,4.31,3.57,1.13,8.55,1.76,13.53,1.75,4.99.02,9.97-.62,13.54-1.75,3.62-1.11,5.85-2.68,5.94-4.31.14-1.63-1.84-3.28-5.47-4.46-3.62-1.19-8.77-1.89-14-1.89Z"/>
  <path class="cls-1" d="M44,71.46v6.51c-.19.84-.94,1.66-2.15,2.4v-6.37h-1.08v6.96c-.77.36-1.64.7-2.63,1.01-.1.03-.21.06-.31.09v-6.38h-1.3v6.74c-1.36.34-2.86.62-4.45.83v-6.77h-1.51v6.95c-1.65.17-3.37.26-5.1.28v-6.43h-1.73v6.43c-1.73-.02-3.45-.11-5.1-.28v-6.95h-1.51v6.77c-1.59-.21-3.09-.49-4.45-.83v-6.74h-1.3v6.38c-.1-.03-.2-.05-.3-.09-.99-.3-1.87-.65-2.64-1.01v-6.95h-1.08v6.37c-1.22-.75-1.97-1.57-2.15-2.43v-6.48l-1-.87v7.49s0,0,0,0c0,0,0,0,0,.01v.16h.01c0,1.81,2.05,3.62,5.73,4.92,3.79,1.35,9.19,2.15,14.67,2.16,5.47,0,10.87-.81,14.66-2.16,3.68-1.31,5.72-3.11,5.73-4.91h.01v-7.68l-1,.87Z"/>
  <path class="cls-1" d="M44,78.39v6.51c-.19.84-.94,1.66-2.15,2.4v-6.37h-1.08v6.96c-.77.36-1.64.7-2.63,1.01-.1.03-.21.06-.31.09v-6.38h-1.3v6.74c-1.36.34-2.86.62-4.45.83v-6.77h-1.51v6.95c-1.65.17-3.37.26-5.1.28v-6.43h-1.73v6.43c-1.73-.02-3.45-.11-5.1-.28v-6.95h-1.51v6.77c-1.59-.21-3.09-.49-4.45-.83v-6.74h-1.3v6.38c-.1-.03-.2-.05-.3-.09-.99-.3-1.87-.65-2.64-1.01v-6.95h-1.08v6.37c-1.22-.75-1.97-1.57-2.15-2.43v-6.48l-1-.87v7.49s0,0,0,0c0,0,0,0,0,.01v.16h.01c0,1.81,2.05,3.62,5.73,4.92,3.79,1.35,9.19,2.15,14.67,2.16,5.47,0,10.87-.81,14.66-2.16,3.68-1.31,5.72-3.11,5.73-4.91h.01v-7.68l-1,.87Z"/>
  <path class="cls-1" d="M44,85.31v6.51c-.19.84-.94,1.66-2.15,2.4v-6.37h-1.08v6.96c-.77.36-1.64.7-2.63,1.01-.1.03-.21.06-.31.09v-6.38h-1.3v6.74c-1.36.34-2.86.62-4.45.83v-6.77h-1.51v6.95c-1.65.17-3.37.26-5.1.28v-6.43h-1.73v6.43c-1.73-.02-3.45-.11-5.1-.28v-6.95h-1.51v6.77c-1.59-.21-3.09-.49-4.45-.83v-6.74h-1.3v6.38c-.1-.03-.2-.05-.3-.09-.99-.3-1.87-.65-2.64-1.01v-6.95h-1.08v6.37c-1.22-.75-1.97-1.57-2.15-2.43v-6.48l-1-.87v7.49s0,0,0,0c0,0,0,0,0,.01v.16h.01c0,1.81,2.05,3.62,5.73,4.92,3.79,1.35,9.19,2.15,14.67,2.16,5.47,0,10.87-.81,14.66-2.16,3.68-1.31,5.72-3.11,5.73-4.91h.01v-7.68l-1,.87Z"/>
  <path class="cls-1" d="M44,92.23v6.51c-.19.84-.94,1.66-2.15,2.4v-6.37h-1.08v6.96c-.77.36-1.64.7-2.63,1.01-.1.03-.21.06-.31.09v-6.38h-1.3v6.74c-1.36.34-2.86.62-4.45.83v-6.77h-1.51v6.95c-1.65.17-3.37.26-5.1.28v-6.43h-1.73v6.43c-1.73-.02-3.45-.11-5.1-.28v-6.95h-1.51v6.77c-1.59-.21-3.09-.49-4.45-.83v-6.74h-1.3v6.38c-.1-.03-.2-.05-.3-.09-.99-.3-1.87-.65-2.64-1.01v-6.95h-1.08v6.37c-1.22-.75-1.97-1.57-2.15-2.43v-6.48l-1-.87v7.49s0,0,0,0c0,0,0,0,0,.01v.16h.01c0,1.81,2.05,3.62,5.73,4.92,3.79,1.35,9.19,2.15,14.67,2.16,5.47,0,10.87-.81,14.66-2.16,3.68-1.31,5.72-3.11,5.73-4.91h.01v-7.68l-1,.87Z"/>
  <path class="cls-1" d="M73.92,49.88c5.23-.02,10.46.71,14.2,2,3.79,1.27,6.13,3.07,6.21,4.93.14,1.86-1.94,3.74-5.74,5.09-3.79,1.35-9.19,2.15-14.66,2.16-5.47,0-10.87-.81-14.67-2.16-3.81-1.35-5.88-3.24-5.74-5.09.09-1.86,2.42-3.67,6.21-4.93,3.74-1.29,8.97-2.02,14.2-2ZM73.92,50c-5.23,0-10.38.71-14,1.89-3.63,1.19-5.6,2.84-5.47,4.46.09,1.63,2.32,3.21,5.94,4.31,3.57,1.13,8.55,1.76,13.53,1.75,4.99.02,9.97-.62,13.54-1.75,3.62-1.11,5.85-2.68,5.94-4.31.14-1.63-1.84-3.28-5.47-4.46-3.62-1.19-8.77-1.89-14-1.89Z"/>
  <path class="cls-1" d="M93.32,64.54v6.51c-.19.84-.94,1.66-2.15,2.4v-6.37h-1.08v6.96c-.77.36-1.64.7-2.63,1.01-.1.03-.21.06-.31.09v-6.38h-1.3v6.74c-1.36.34-2.86.62-4.45.83v-6.77h-1.51v6.95c-1.65.17-3.37.26-5.1.28v-6.43h-1.73v6.43c-1.73-.02-3.45-.11-5.1-.28v-6.95h-1.51v6.77c-1.59-.21-3.09-.49-4.45-.83v-6.74h-1.3v6.38c-.1-.03-.2-.05-.3-.09-.99-.3-1.87-.65-2.64-1.01v-6.95h-1.08v6.37c-1.22-.75-1.97-1.57-2.15-2.43v-6.48l-1-.87v7.49s0,0,0,0c0,0,0,0,0,.01v.16h.01c0,1.81,2.05,3.62,5.73,4.92,3.79,1.35,9.19,2.15,14.67,2.16,5.47,0,10.87-.81,14.66-2.16,3.68-1.31,5.72-3.11,5.73-4.91h.01v-7.68l-1,.87Z"/>
  <path class="cls-1" d="M93.32,57.62v6.51c-.19.84-.94,1.66-2.15,2.4v-6.37h-1.08v6.96c-.77.36-1.64.7-2.63,1.01-.1.03-.21.06-.31.09v-6.38h-1.3v6.74c-1.36.34-2.86.62-4.45.83v-6.77h-1.51v6.95c-1.65.17-3.37.26-5.1.28v-6.43h-1.73v6.43c-1.73-.02-3.45-.11-5.1-.28v-6.95h-1.51v6.77c-1.59-.21-3.09-.49-4.45-.83v-6.74h-1.3v6.38c-.1-.03-.2-.05-.3-.09-.99-.3-1.87-.65-2.64-1.01v-6.95h-1.08v6.37c-1.22-.75-1.97-1.57-2.15-2.43v-6.48l-1-.87v7.49s0,0,0,0c0,0,0,0,0,.01v.16h.01c0,1.81,2.05,3.62,5.73,4.92,3.79,1.35,9.19,2.15,14.67,2.16,5.47,0,10.87-.81,14.66-2.16,3.68-1.31,5.72-3.11,5.73-4.91h.01v-7.68l-1,.87Z"/>
  <path class="cls-1" d="M93.32,71.46v6.51c-.19.84-.94,1.66-2.15,2.4v-6.37h-1.08v6.96c-.77.36-1.64.7-2.63,1.01-.1.03-.21.06-.31.09v-6.38h-1.3v6.74c-1.36.34-2.86.62-4.45.83v-6.77h-1.51v6.95c-1.65.17-3.37.26-5.1.28v-6.43h-1.73v6.43c-1.73-.02-3.45-.11-5.1-.28v-6.95h-1.51v6.77c-1.59-.21-3.09-.49-4.45-.83v-6.74h-1.3v6.38c-.1-.03-.2-.05-.3-.09-.99-.3-1.87-.65-2.64-1.01v-6.95h-1.08v6.37c-1.22-.75-1.97-1.57-2.15-2.43v-6.48l-1-.87v7.49s0,0,0,0c0,0,0,0,0,.01v.16h.01c0,1.81,2.05,3.62,5.73,4.92,3.79,1.35,9.19,2.15,14.67,2.16,5.47,0,10.87-.81,14.66-2.16,3.68-1.31,5.72-3.11,5.73-4.91h.01v-7.68l-1,.87Z"/>
  <path class="cls-1" d="M93.32,78.39v6.51c-.19.84-.94,1.66-2.15,2.4v-6.37h-1.08v6.96c-.77.36-1.64.7-2.63,1.01-.1.03-.21.06-.31.09v-6.38h-1.3v6.74c-1.36.34-2.86.62-4.45.83v-6.77h-1.51v6.95c-1.65.17-3.37.26-5.1.28v-6.43h-1.73v6.43c-1.73-.02-3.45-.11-5.1-.28v-6.95h-1.51v6.77c-1.59-.21-3.09-.49-4.45-.83v-6.74h-1.3v6.38c-.1-.03-.2-.05-.3-.09-.99-.3-1.87-.65-2.64-1.01v-6.95h-1.08v6.37c-1.22-.75-1.97-1.57-2.15-2.43v-6.48l-1-.87v7.49s0,0,0,0c0,0,0,0,0,.01v.16h.01c0,1.81,2.05,3.62,5.73,4.92,3.79,1.35,9.19,2.15,14.67,2.16,5.47,0,10.87-.81,14.66-2.16,3.68-1.31,5.72-3.11,5.73-4.91h.01v-7.68l-1,.87Z"/>
  <path class="cls-1" d="M93.32,85.31v6.51c-.19.84-.94,1.66-2.15,2.4v-6.37h-1.08v6.96c-.77.36-1.64.7-2.63,1.01-.1.03-.21.06-.31.09v-6.38h-1.3v6.74c-1.36.34-2.86.62-4.45.83v-6.77h-1.51v6.95c-1.65.17-3.37.26-5.1.28v-6.43h-1.73v6.43c-1.73-.02-3.45-.11-5.1-.28v-6.95h-1.51v6.77c-1.59-.21-3.09-.49-4.45-.83v-6.74h-1.3v6.38c-.1-.03-.2-.05-.3-.09-.99-.3-1.87-.65-2.64-1.01v-6.95h-1.08v6.37c-1.22-.75-1.97-1.57-2.15-2.43v-6.48l-1-.87v7.49s0,0,0,0c0,0,0,0,0,.01v.16h.01c0,1.81,2.05,3.62,5.73,4.92,3.79,1.35,9.19,2.15,14.67,2.16,5.47,0,10.87-.81,14.66-2.16,3.68-1.31,5.72-3.11,5.73-4.91h.01v-7.68l-1,.87Z"/>
  <path class="cls-1" d="M93.32,92.23v6.51c-.19.84-.94,1.66-2.15,2.4v-6.37h-1.08v6.96c-.77.36-1.64.7-2.63,1.01-.1.03-.21.06-.31.09v-6.38h-1.3v6.74c-1.36.34-2.86.62-4.45.83v-6.77h-1.51v6.95c-1.65.17-3.37.26-5.1.28v-6.43h-1.73v6.43c-1.73-.02-3.45-.11-5.1-.28v-6.95h-1.51v6.77c-1.59-.21-3.09-.49-4.45-.83v-6.74h-1.3v6.38c-.1-.03-.2-.05-.3-.09-.99-.3-1.87-.65-2.64-1.01v-6.95h-1.08v6.37c-1.22-.75-1.97-1.57-2.15-2.43v-6.48l-1-.87v7.49s0,0,0,0c0,0,0,0,0,.01v.16h.01c0,1.81,2.05,3.62,5.73,4.92,3.79,1.35,9.19,2.15,14.67,2.16,5.47,0,10.87-.81,14.66-2.16,3.68-1.31,5.72-3.11,5.73-4.91h.01v-7.68l-1,.87Z"/>
  <path class="cls-1" d="M123.24,36.03c5.23-.02,10.46.71,14.2,2,3.79,1.27,6.13,3.07,6.21,4.93.14,1.86-1.94,3.74-5.74,5.09-3.79,1.35-9.19,2.15-14.66,2.16-5.47,0-10.87-.81-14.67-2.16-3.81-1.35-5.88-3.24-5.74-5.09.09-1.86,2.42-3.67,6.21-4.93,3.74-1.29,8.97-2.02,14.2-2ZM123.24,36.15c-5.23,0-10.38.71-14,1.89-3.63,1.19-5.6,2.84-5.47,4.46.09,1.63,2.32,3.21,5.94,4.31,3.57,1.13,8.55,1.76,13.53,1.75,4.99.02,9.97-.62,13.54-1.75,3.62-1.11,5.85-2.68,5.94-4.31.14-1.63-1.84-3.28-5.47-4.46-3.62-1.19-8.77-1.89-14-1.89Z"/>
  <path class="cls-1" d="M142.65,57.62v6.51c-.19.84-.94,1.66-2.15,2.4v-6.37h-1.08v6.96c-.77.36-1.64.7-2.63,1.01-.1.03-.21.06-.31.09v-6.38h-1.3v6.74c-1.36.34-2.86.62-4.45.83v-6.77h-1.51v6.95c-1.65.17-3.37.26-5.1.28v-6.43h-1.73v6.43c-1.73-.02-3.45-.11-5.1-.28v-6.95h-1.51v6.77c-1.59-.21-3.09-.49-4.45-.83v-6.74h-1.3v6.38c-.1-.03-.2-.05-.3-.09-.99-.3-1.87-.65-2.64-1.01v-6.95h-1.08v6.37c-1.22-.75-1.97-1.57-2.15-2.43v-6.48l-1-.87v7.49s0,0,0,0c0,0,0,0,0,.01v.16h.01c0,1.81,2.05,3.62,5.73,4.92,3.79,1.35,9.19,2.15,14.67,2.16,5.47,0,10.87-.81,14.66-2.16,3.68-1.31,5.72-3.11,5.73-4.91h.01v-7.68l-1,.87Z"/>
  <path class="cls-1" d="M142.65,50.69v6.51c-.19.84-.94,1.66-2.15,2.4v-6.37h-1.08v6.96c-.77.36-1.64.7-2.63,1.01-.1.03-.21.06-.31.09v-6.38h-1.3v6.74c-1.36.34-2.86.62-4.45.83v-6.77h-1.51v6.95c-1.65.17-3.37.26-5.1.28v-6.43h-1.73v6.43c-1.73-.02-3.45-.11-5.1-.28v-6.95h-1.51v6.77c-1.59-.21-3.09-.49-4.45-.83v-6.74h-1.3v6.38c-.1-.03-.2-.05-.3-.09-.99-.3-1.87-.65-2.64-1.01v-6.95h-1.08v6.37c-1.22-.75-1.97-1.57-2.15-2.43v-6.48l-1-.87v7.49s0,0,0,0c0,0,0,0,0,.01v.16h.01c0,1.81,2.05,3.62,5.73,4.92,3.79,1.35,9.19,2.15,14.67,2.16,5.47,0,10.87-.81,14.66-2.16,3.68-1.31,5.72-3.11,5.73-4.91h.01v-7.68l-1,.87Z"/>
  <path class="cls-1" d="M142.65,43.77v6.51c-.19.84-.94,1.66-2.15,2.4v-6.37h-1.08v6.96c-.77.36-1.64.7-2.63,1.01-.1.03-.21.06-.31.09v-6.38h-1.3v6.74c-1.36.34-2.86.62-4.45.83v-6.77h-1.51v6.95c-1.65.17-3.37.26-5.1.28v-6.43h-1.73v6.43c-1.73-.02-3.45-.11-5.1-.28v-6.95h-1.51v6.77c-1.59-.21-3.09-.49-4.45-.83v-6.74h-1.3v6.38c-.1-.03-.2-.05-.3-.09-.99-.3-1.87-.65-2.64-1.01v-6.95h-1.08v6.37c-1.22-.75-1.97-1.57-2.15-2.43v-6.48l-1-.87v7.49s0,0,0,0c0,0,0,0,0,.01v.16h.01c0,1.81,2.05,3.62,5.73,4.92,3.79,1.35,9.19,2.15,14.67,2.16,5.47,0,10.87-.81,14.66-2.16,3.68-1.31,5.72-3.11,5.73-4.91h.01v-7.68l-1,.87Z"/>
  <path class="cls-1" d="M142.65,64.54v6.51c-.19.84-.94,1.66-2.15,2.4v-6.37h-1.08v6.96c-.77.36-1.64.7-2.63,1.01-.1.03-.21.06-.31.09v-6.38h-1.3v6.74c-1.36.34-2.86.62-4.45.83v-6.77h-1.51v6.95c-1.65.17-3.37.26-5.1.28v-6.43h-1.73v6.43c-1.73-.02-3.45-.11-5.1-.28v-6.95h-1.51v6.77c-1.59-.21-3.09-.49-4.45-.83v-6.74h-1.3v6.38c-.1-.03-.2-.05-.3-.09-.99-.3-1.87-.65-2.64-1.01v-6.95h-1.08v6.37c-1.22-.75-1.97-1.57-2.15-2.43v-6.48l-1-.87v7.49s0,0,0,0c0,0,0,0,0,.01v.16h.01c0,1.81,2.05,3.62,5.73,4.92,3.79,1.35,9.19,2.15,14.67,2.16,5.47,0,10.87-.81,14.66-2.16,3.68-1.31,5.72-3.11,5.73-4.91h.01v-7.68l-1,.87Z"/>
  <path class="cls-1" d="M142.65,71.46v6.51c-.19.84-.94,1.66-2.15,2.4v-6.37h-1.08v6.96c-.77.36-1.64.7-2.63,1.01-.1.03-.21.06-.31.09v-6.38h-1.3v6.74c-1.36.34-2.86.62-4.45.83v-6.77h-1.51v6.95c-1.65.17-3.37.26-5.1.28v-6.43h-1.73v6.43c-1.73-.02-3.45-.11-5.1-.28v-6.95h-1.51v6.77c-1.59-.21-3.09-.49-4.45-.83v-6.74h-1.3v6.38c-.1-.03-.2-.05-.3-.09-.99-.3-1.87-.65-2.64-1.01v-6.95h-1.08v6.37c-1.22-.75-1.97-1.57-2.15-2.43v-6.48l-1-.87v7.49s0,0,0,0c0,0,0,0,0,.01v.16h.01c0,1.81,2.05,3.62,5.73,4.92,3.79,1.35,9.19,2.15,14.67,2.16,5.47,0,10.87-.81,14.66-2.16,3.68-1.31,5.72-3.11,5.73-4.91h.01v-7.68l-1,.87Z"/>
  <path class="cls-1" d="M142.65,78.39v6.51c-.19.84-.94,1.66-2.15,2.4v-6.37h-1.08v6.96c-.77.36-1.64.7-2.63,1.01-.1.03-.21.06-.31.09v-6.38h-1.3v6.74c-1.36.34-2.86.62-4.45.83v-6.77h-1.51v6.95c-1.65.17-3.37.26-5.1.28v-6.43h-1.73v6.43c-1.73-.02-3.45-.11-5.1-.28v-6.95h-1.51v6.77c-1.59-.21-3.09-.49-4.45-.83v-6.74h-1.3v6.38c-.1-.03-.2-.05-.3-.09-.99-.3-1.87-.65-2.64-1.01v-6.95h-1.08v6.37c-1.22-.75-1.97-1.57-2.15-2.43v-6.48l-1-.87v7.49s0,0,0,0c0,0,0,0,0,.01v.16h.01c0,1.81,2.05,3.62,5.73,4.92,3.79,1.35,9.19,2.15,14.67,2.16,5.47,0,10.87-.81,14.66-2.16,3.68-1.31,5.72-3.11,5.73-4.91h.01v-7.68l-1,.87Z"/>
  <path class="cls-1" d="M142.65,85.31v6.51c-.19.84-.94,1.66-2.15,2.4v-6.37h-1.08v6.96c-.77.36-1.64.7-2.63,1.01-.1.03-.21.06-.31.09v-6.38h-1.3v6.74c-1.36.34-2.86.62-4.45.83v-6.77h-1.51v6.95c-1.65.17-3.37.26-5.1.28v-6.43h-1.73v6.43c-1.73-.02-3.45-.11-5.1-.28v-6.95h-1.51v6.77c-1.59-.21-3.09-.49-4.45-.83v-6.74h-1.3v6.38c-.1-.03-.2-.05-.3-.09-.99-.3-1.87-.65-2.64-1.01v-6.95h-1.08v6.37c-1.22-.75-1.97-1.57-2.15-2.43v-6.48l-1-.87v7.49s0,0,0,0c0,0,0,0,0,.01v.16h.01c0,1.81,2.05,3.62,5.73,4.92,3.79,1.35,9.19,2.15,14.67,2.16,5.47,0,10.87-.81,14.66-2.16,3.68-1.31,5.72-3.11,5.73-4.91h.01v-7.68l-1,.87Z"/>
  <path class="cls-1" d="M142.65,92.23v6.51c-.19.84-.94,1.66-2.15,2.4v-6.37h-1.08v6.96c-.77.36-1.64.7-2.63,1.01-.1.03-.21.06-.31.09v-6.38h-1.3v6.74c-1.36.34-2.86.62-4.45.83v-6.77h-1.51v6.95c-1.65.17-3.37.26-5.1.28v-6.43h-1.73v6.43c-1.73-.02-3.45-.11-5.1-.28v-6.95h-1.51v6.77c-1.59-.21-3.09-.49-4.45-.83v-6.74h-1.3v6.38c-.1-.03-.2-.05-.3-.09-.99-.3-1.87-.65-2.64-1.01v-6.95h-1.08v6.37c-1.22-.75-1.97-1.57-2.15-2.43v-6.48l-1-.87v7.49s0,0,0,0c0,0,0,0,0,.01v.16h.01c0,1.81,2.05,3.62,5.73,4.92,3.79,1.35,9.19,2.15,14.67,2.16,5.47,0,10.87-.81,14.66-2.16,3.68-1.31,5.72-3.11,5.73-4.91h.01v-7.68l-1,.87Z"/>
</svg>